<svg width="40" height="40" viewBox="0 0 40 40" fill="none" xmlns="http://www.w3.org/2000/svg">
<path d="M20 0C8.9554 0 0 8.9554 0 20C0 31.0446 8.9554 40 20 40C31.0446 40 40 31.0446 40 20C40 8.9554 31.0446 0 20 0ZM33.2655 10.2724L35.0614 13.3852L31.5415 15.4145L29.7456 12.3017L33.2655 10.2724ZM18.2041 3.6516H21.7959V7.71625H18.2041V3.6516ZM13.3792 4.94463L15.4086 8.46453L12.2957 10.2604L10.2664 6.7405L13.3792 4.94463ZM3.6516 18.2041H7.71625V21.7959H3.6516V18.2041ZM6.7405 29.7336L4.94463 26.6208L8.46453 24.5914L10.2604 27.7043L6.7405 29.7336ZM8.45855 15.4145L4.93864 13.3852L6.73451 10.2724L10.2544 12.3017L8.45855 15.4145ZM13.3792 35.0614L10.2664 33.2655L12.2957 29.7456L15.4086 31.5415L13.3792 35.0614ZM21.7959 36.3544H18.2041V32.2897H21.7959V36.3544ZM20.1197 26.4591C17.372 26.4591 15.4684 24.5914 15.3068 22.604L17.821 22.0413C17.8809 23.2086 18.7728 24.1664 20.1197 24.1664C21.3289 24.1664 22.2987 23.3702 22.2987 22.1012C22.2987 20.6585 21.2272 19.9761 20.0599 19.9761C19.2038 19.9761 18.5214 20.3652 18.1143 20.8321C17.8629 20.7363 15.9353 20.0718 15.66 19.994L17.1625 13.5109H24.2921V15.8276H18.9943L18.3717 18.6112C18.9165 18.1024 19.8144 17.833 20.6525 17.833C23.1847 17.833 24.9746 19.3535 24.9746 22.0593C24.9686 24.4119 23.1547 26.4591 20.1197 26.4591ZM26.6208 35.0614L24.5914 31.5415L27.7043 29.7456L29.7336 33.2655L26.6208 35.0614ZM27.6983 10.2544L24.5855 8.45855L26.6148 4.93864L29.7276 6.73451L27.6983 10.2544ZM33.2655 29.7336L29.7456 27.7043L31.5415 24.5914L35.0614 26.6208L33.2655 29.7336ZM32.2897 21.7959V18.2041H36.3544V21.7959H32.2897Z" fill="#A3D5FB"/>
</svg>
