<svg width="54" height="53" viewBox="0 0 54 53" fill="none" xmlns="http://www.w3.org/2000/svg">
<g clip-path="url(#clip0)">
<ellipse cx="42.7776" cy="25.0119" rx="0.784235" ry="0.769711" fill="url(#paint0_linear)"/>
<path fill-rule="evenodd" clip-rule="evenodd" d="M8.27019 25.0628C8.39066 25.265 8.4621 25.595 8.38887 26.1754C8.34669 26.5098 8.58865 26.8144 8.9293 26.8558C9.26995 26.8972 9.5803 26.6597 9.62248 26.3253C9.71142 25.6205 9.65997 24.9787 9.34327 24.447C9.01908 23.9028 8.48373 23.584 7.84925 23.3906C7.29522 23.2218 6.99496 22.9449 6.84582 22.6644C6.69371 22.3784 6.66122 22.0179 6.77779 21.6209C6.87285 21.2972 6.68254 20.9592 6.35272 20.8659C6.02289 20.7725 5.67845 20.9593 5.58338 21.2831C5.39413 21.9275 5.41949 22.619 5.74385 23.2289C6.07118 23.8445 6.66601 24.3075 7.48066 24.5558C7.94112 24.6961 8.15721 24.8732 8.27019 25.0628Z" fill="url(#paint1_linear)"/>
<rect width="7.18013" height="5.56954" rx="2" transform="matrix(0.86301 0.505186 -0.51931 0.854586 14.1477 18.8164)" fill="url(#paint2_linear)"/>
<path d="M13.3069 22.9856L13.7211 23.2281L14.2039 22.4337L15.0448 22.926L14.5621 23.7204L14.9754 23.9623L16.144 22.0392L15.7307 21.7973L15.2486 22.5907L14.4076 22.0985L14.8898 21.305L14.4755 21.0625L13.3069 22.9856Z" fill="white"/>
<path d="M16.0115 24.5688C16.6085 24.9183 17.1904 24.7675 17.5556 24.1666C17.9197 23.5675 17.7772 22.9952 17.1859 22.6491L16.4856 22.2392L15.317 24.1622L16.0115 24.5688ZM15.9429 24.0564L16.6881 22.83L16.9522 22.9846C17.3196 23.1997 17.402 23.4974 17.1423 23.9246C16.8816 24.3538 16.5744 24.426 16.206 24.2104L15.9429 24.0564Z" fill="white"/>
<path fill-rule="evenodd" clip-rule="evenodd" d="M12.975 8.38172L10.7328 8.23979C10.3402 8.21494 10.0881 8.70084 10.3335 9.01048L10.773 9.56583L8.36652 11.6964C8.27054 11.7813 8.13079 11.7725 8.05483 11.6766L6.56365 9.79423C6.33556 9.50669 5.91674 9.48018 5.62835 9.73503L2.51175 12.4929C2.22337 12.7477 2.17433 13.1904 2.40263 13.478L2.67812 13.8246C2.90643 14.1121 3.32503 14.1386 3.61342 13.8838L5.68608 12.0496C5.78207 11.9646 5.9216 11.9734 5.99778 12.0693L7.48896 13.9517C7.71704 14.2392 8.13587 14.2657 8.42403 14.0109L11.8749 10.9544L12.3146 11.5098C12.56 11.8194 13.0577 11.6432 13.1034 11.2306L13.3645 8.87322C13.393 8.61592 13.2184 8.39712 12.975 8.38172Z" fill="url(#paint3_linear)"/>
<rect width="23.4456" height="6.17971" rx="3" transform="matrix(0.904144 -0.427227 0.440392 0.897806 23.7993 24.0977)" fill="url(#paint4_linear)"/>
<rect width="15.0052" height="1.23594" rx="0.617971" transform="matrix(0.904144 -0.427227 0.440392 0.897806 28.845 24.4453)" fill="white"/>
<path d="M3.05779 32.6984C2.25884 34.0315 3.21913 35.7266 4.77328 35.7266H15.6728L21.9467 25.2585H7.51678L3.05779 32.6984Z" fill="#BAE7FF"/>
<path d="M7.45825 25.2578H33.1476V53.0009H9.45825C8.35368 53.0009 7.45825 52.1055 7.45825 51.0009V25.2578Z" fill="#CAF0FF"/>
<path d="M33.1475 25.2578H44.7541V51.0009C44.7541 52.1055 43.8587 53.0009 42.7541 53.0009H33.1475V25.2578Z" fill="#93E0FF"/>
<path d="M33.1475 25.2578H47.5773L51.2229 32.8612C51.8595 34.1888 50.8918 35.7259 49.4195 35.7259H45.3815H39.4256C38.6561 35.7259 37.9549 35.2844 37.6222 34.5905L33.1475 25.2578Z" fill="#BAE7FF"/>
<ellipse opacity="0.4" cx="27.9638" cy="8.02202" rx="4.07801" ry="4.00249" fill="#FFC450"/>
<path d="M28.6303 12.1258C29.0006 13.0249 30.1686 13.1629 30.7613 12.4791L28.6303 12.1258ZM27.3732 9.07353L28.6303 12.1258L29.0173 7.41862C28.0262 7.02532 26.9273 7.99132 27.3731 9.07334C27.3731 9.0734 27.3731 9.07347 27.3732 9.07353ZM32.1272 8.65255L29.0175 7.41868L31.9758 11.9582L32.6759 12.6722C32.6763 12.6719 32.6767 12.6715 32.677 12.6712C33.1634 12.1931 33.1632 11.4106 32.6763 10.9329C32.6762 10.9327 32.6761 10.9326 32.6759 10.9325L32.5086 10.7682C33.1887 10.1685 33.0254 9.00888 32.1274 8.65263C32.1274 8.6526 32.1273 8.65258 32.1272 8.65255ZM28.2797 9.27763C28.2797 9.27761 28.2796 9.27758 28.2795 9.27756L28.2797 9.27763Z" fill="#47525D" stroke="white" stroke-width="2"/>
<path d="M27.6499 7.71591L26.552 6.63832M28.591 7.25409V6.48438" stroke="#47525D" stroke-linecap="round" stroke-linejoin="round"/>
<path d="M27.3363 8.94922H26.3953" stroke="#47525D" stroke-linecap="round" stroke-linejoin="round"/>
<ellipse cx="40.2681" cy="8.3869" rx="0.784233" ry="0.769711" fill="#00C1FF"/>
<ellipse cx="12.0357" cy="2.53533" rx="0.784234" ry="0.76971" fill="#00C1FF"/>
<ellipse cx="51.8748" cy="18.8556" rx="0.784235" ry="0.769711" fill="#00C1FF"/>
<path fill-rule="evenodd" clip-rule="evenodd" d="M16.08 2.32588C15.9334 2.14099 15.6478 1.95333 15.0715 1.80447C14.7396 1.71872 14.5413 1.38509 14.6287 1.05929C14.7161 0.733485 15.056 0.538884 15.3879 0.624633C16.0878 0.805416 16.6758 1.09069 17.0611 1.57676C17.4554 2.07431 17.5582 2.6806 17.5055 3.3306C17.4594 3.89818 17.6098 4.27464 17.8197 4.51472C18.0338 4.75957 18.3628 4.9231 18.7815 4.96431C19.1231 4.99792 19.3722 5.29691 19.3379 5.63213C19.3037 5.96734 18.9991 6.21185 18.6575 6.17824C17.9776 6.11133 17.3329 5.83136 16.8764 5.30922C16.4157 4.78231 16.1986 4.06826 16.2664 3.2337C16.3047 2.76198 16.2174 2.49929 16.08 2.32588Z" fill="url(#paint5_linear)"/>
<path fill-rule="evenodd" clip-rule="evenodd" d="M38.0789 5.78335C37.9432 5.9761 37.8467 6.29984 37.8752 6.88403C37.8916 7.22054 37.627 7.5064 37.2841 7.52251C36.9412 7.53862 36.65 7.27888 36.6336 6.94237C36.599 6.23291 36.6995 5.59673 37.0561 5.09001C37.4211 4.57132 37.9794 4.29292 38.6269 4.14701C39.1923 4.01959 39.513 3.76568 39.6832 3.49704C39.8568 3.22306 39.9169 2.86596 39.8311 2.46155C39.7611 2.13172 39.9768 1.80868 40.3129 1.74001C40.6489 1.67134 40.9781 1.88305 41.048 2.21288C41.1873 2.86944 41.109 3.55712 40.7387 4.14138C40.3651 4.73097 39.7365 5.14873 38.9051 5.33608C38.4352 5.44198 38.2061 5.60258 38.0789 5.78335Z" fill="url(#paint6_linear)"/>
<path fill-rule="evenodd" clip-rule="evenodd" d="M51.6438 11.4672C51.865 11.3794 52.208 11.3576 52.7826 11.5125C53.1136 11.6017 53.4556 11.4107 53.5465 11.0858C53.6374 10.761 53.4428 10.4253 53.1118 10.336C52.414 10.1479 51.7595 10.1053 51.1778 10.3361C50.5823 10.5724 50.1836 11.0463 49.8971 11.6347C49.6469 12.1484 49.3244 12.4 49.0201 12.5044C48.7098 12.6108 48.3416 12.5903 47.9583 12.4199C47.6456 12.2808 47.2773 12.4168 47.1356 12.7237C46.9939 13.0306 47.1326 13.392 47.4452 13.5311C48.0676 13.8079 48.7684 13.8831 49.4302 13.6561C50.098 13.427 50.6507 12.9162 51.0186 12.1608C51.2265 11.7338 51.4362 11.5495 51.6438 11.4672Z" fill="url(#paint7_linear)"/>
<rect x="19.4075" y="15.0078" width="1.88216" height="1.84731" rx="0.923654" fill="url(#paint8_linear)"/>
<path d="M28.1924 17.5499C28.6073 17.3095 29.1272 17.5975 29.1319 18.0703C29.1367 18.5466 28.6158 18.8527 28.1963 18.6203C27.7767 18.3879 27.7745 17.7921 28.1924 17.5499Z" fill="url(#paint9_linear)"/>
<path d="M1.15937 19.5085C0.881884 19.1188 1.14102 18.5746 1.62358 18.5336C2.10184 18.4929 2.44148 18.9779 2.23639 19.4086C2.0313 19.8393 1.43439 19.8947 1.15937 19.5085Z" fill="url(#paint10_linear)"/>
<path fill-rule="evenodd" clip-rule="evenodd" d="M26.6354 39.1727C26.6354 37.4795 25.6472 36.0555 24.2007 35.3739C23.5063 33.9157 22.0084 32.9844 20.3927 32.9844C18.6676 32.9844 17.2167 33.9542 16.5223 35.3739C15.0366 36.0555 14.0876 37.5257 14.0876 39.1727C14.0876 40.8046 15.0758 42.2286 16.5223 42.9102C17.2167 44.3684 18.7146 45.2997 20.3927 45.2997C22.0554 45.2997 23.5063 44.3299 24.2007 42.9102C25.6864 42.2286 26.6354 40.7584 26.6354 39.1727ZM21.6412 37.8247C21.7973 38.2383 21.891 38.6672 21.891 39.1114C21.891 39.5633 21.7973 39.9922 21.6412 40.3981C21.2199 40.5513 20.7829 40.6432 20.3303 40.6432C19.8699 40.6432 19.4329 40.5513 19.0193 40.3981C18.8633 39.9845 18.7696 39.5556 18.7696 39.1114C18.7696 38.6596 18.8633 38.2307 19.0193 37.8247C19.4407 37.6716 19.8777 37.5797 20.3303 37.5797C20.7907 37.5797 21.2199 37.6716 21.6412 37.8247ZM20.3927 33.7809C21.4002 33.7809 22.3658 34.2282 23.0146 35.0063C22.7829 34.9409 22.5434 34.9181 22.3279 34.945C20.5814 34.9181 19.106 35.9264 18.4575 37.3959C18.4263 37.3821 18.4263 37.3821 18.4575 37.3959C18.1868 37.9128 18.0555 38.4814 18.0829 39.1114C18.0555 39.3229 18.0787 39.558 18.1454 39.7854C17.3603 39.1486 16.8968 38.2009 16.8968 37.212C16.8968 35.3123 18.4572 33.7809 20.3927 33.7809ZM14.8992 39.1114C14.8992 38.1226 15.3549 37.1749 16.1477 36.5381C16.081 36.7655 16.0579 37.0005 16.0853 37.212C16.0579 38.9262 17.0852 40.3743 18.5823 41.0108C18.5683 41.0414 18.5683 41.0414 18.5823 41.0108C19.109 41.2765 19.6884 41.4053 20.3303 41.3784C20.5458 41.4053 20.7852 41.3826 21.017 41.3172C20.3681 42.0877 19.4026 42.5426 18.3951 42.5426C16.4595 42.5426 14.8992 41.0111 14.8992 39.1114ZM20.3303 44.3807C19.3228 44.3807 18.3572 43.9334 17.7084 43.1553C17.9401 43.2207 18.1796 43.2435 18.3951 43.2165C20.1416 43.2435 21.617 42.2351 22.2655 40.7657C22.2967 40.7795 22.2967 40.7795 22.2655 40.7657C22.5362 40.2488 22.6675 39.6802 22.6401 39.0501C22.6675 38.8386 22.6443 38.6036 22.5776 38.3762C23.3627 39.013 23.8262 39.9607 23.8262 40.9495C23.8262 42.8492 22.2658 44.3807 20.3303 44.3807ZM22.0158 37.2733C22.0298 37.2427 22.0298 37.2427 22.0158 37.2733C21.4891 37.0076 20.9098 36.8788 20.2679 36.9057C20.0524 36.8788 19.8129 36.9015 19.5812 36.967C20.23 36.1964 21.1956 35.7415 22.2031 35.7415C24.1386 35.7415 25.699 37.273 25.699 39.1727C25.699 40.1615 25.2432 41.1092 24.4504 41.7461C24.5171 41.5186 24.5403 41.2836 24.5129 41.0721C24.5403 39.3579 23.5129 37.9098 22.0158 37.2733Z" fill="#93E0FF"/>
</g>
<defs>
<linearGradient id="paint0_linear" x1="43.5619" y1="25.7816" x2="41.8137" y2="25.5144" gradientUnits="userSpaceOnUse">
<stop offset="0.287293" stop-color="#516BF0"/>
<stop offset="1" stop-color="#19AEFF"/>
</linearGradient>
<linearGradient id="paint1_linear" x1="5.60509" y1="21.7784" x2="10.3699" y2="24.1419" gradientUnits="userSpaceOnUse">
<stop offset="0.287293" stop-color="#516BF0"/>
<stop offset="1" stop-color="#19AEFF"/>
</linearGradient>
<linearGradient id="paint2_linear" x1="7.18013" y1="2.78477" x2="-1.02525e-07" y2="2.78477" gradientUnits="userSpaceOnUse">
<stop stop-color="#181BA3"/>
<stop offset="1" stop-color="#516BF0"/>
</linearGradient>
<linearGradient id="paint3_linear" x1="11.7177" y1="16.3303" x2="1.63307" y2="11.4404" gradientUnits="userSpaceOnUse">
<stop offset="0.287293" stop-color="#516BF0"/>
<stop offset="1" stop-color="#19AEFF"/>
</linearGradient>
<linearGradient id="paint4_linear" x1="0" y1="3.08985" x2="23.4456" y2="3.08985" gradientUnits="userSpaceOnUse">
<stop stop-color="#FE7A60"/>
<stop offset="1" stop-color="#FD5E60"/>
</linearGradient>
<linearGradient id="paint5_linear" x1="15.2004" y1="1.23716" x2="18.61" y2="5.65582" gradientUnits="userSpaceOnUse">
<stop stop-color="#FE7A60"/>
<stop offset="1" stop-color="#FD5E60"/>
</linearGradient>
<linearGradient id="paint6_linear" x1="40.9884" y1="2.70521" x2="36.052" y2="4.70067" gradientUnits="userSpaceOnUse">
<stop offset="0.287293" stop-color="#516BF0"/>
<stop offset="1" stop-color="#19AEFF"/>
</linearGradient>
<linearGradient id="paint7_linear" x1="52.961" y1="10.9583" x2="47.7428" y2="13.0766" gradientUnits="userSpaceOnUse">
<stop stop-color="#FE7A60"/>
<stop offset="1" stop-color="#FD5E60"/>
</linearGradient>
<linearGradient id="paint8_linear" x1="19.4075" y1="15.9315" x2="21.2896" y2="15.9315" gradientUnits="userSpaceOnUse">
<stop stop-color="#FE7A60"/>
<stop offset="1" stop-color="#FD5E60"/>
</linearGradient>
<linearGradient id="paint9_linear" x1="28.9807" y1="19.7619" x2="26.7808" y2="18.0126" gradientUnits="userSpaceOnUse">
<stop offset="0.287293" stop-color="#516BF0"/>
<stop offset="1" stop-color="#19AEFF"/>
</linearGradient>
<linearGradient id="paint10_linear" x1="1.13676" y1="20.2636" x2="2.16705" y2="18.0174" gradientUnits="userSpaceOnUse">
<stop stop-color="#FE7A60"/>
<stop offset="1" stop-color="#FD5E60"/>
</linearGradient>
<clipPath id="clip0">
<rect width="54" height="53" fill="white"/>
</clipPath>
</defs>
</svg>
