<svg enable-background="new 0 0 128 128" viewBox="0 0 128 128" xmlns="http://www.w3.org/2000/svg"><path d="m128 57.1h-38.9l33.6-19.7-6.9-11.7-33.7 19.6 19.7-33.6-11.7-6.4-19.7 33.6v-38.9h-13.3v38.9l-19.2-33.6-11.7 6.9 19.7 33.6-33.6-19.7-7 11.8 33.6 19.7h-38.9v13.3h38.9l-33.6 19.2 6.9 11.7 33.6-19.7-19.7 33.6 11.7 6.9 19.7-33.6v39h13.3v-40l19.7 34.7 10.7-6.4-19.6-34.2 34.7 19.7 6.9-11.7-33.6-19.7h38.4zm-64 25c-10.1 0-18.1-8-18.1-18.1s8-18.1 18.1-18.1 18.1 8 18.1 18.1-8 18.1-18.1 18.1z" fill="#1c1f20"/></svg>