<svg enable-background="new 0 0 114 18" viewBox="0 0 114 18" xmlns="http://www.w3.org/2000/svg"><path d="m16 8.2h-4.9l4.2-2.4-.8-1.4-4.2 2.4 2.4-4.2-1.4-.8-2.5 4.1v-4.9h-1.6v4.9l-2.5-4.2-1.4.8 2.4 4.2-4.2-2.4-.8 1.4 4.2 2.4h-4.9v1.7h4.9l-4.2 2.4.8 1.4 4.2-2.4-2.4 4.2 1.4.8 2.4-4.2v5h1.7v-5l2.5 4.3 1.4-.8-2.5-4.3 4.3 2.5.8-1.4-4.2-2.4h4.9zm-8 3.1c-1.3 0-2.3-1-2.3-2.3s1-2.3 2.3-2.3 2.3 1 2.3 2.3-1 2.3-2.3 2.3z" fill="#625df5"/><g fill="#393855"><path d="m20.3 14.8v-11.6h2.1v11.7h-2.1z"/><path d="m40.9 6.9h2v1c.4-.8 1.5-1.2 2.3-1.2 1.1 0 2 .5 2.4 1.3.6-1 1.5-1.3 2.5-1.3 1.5 0 2.9.9 2.9 3v5.2h-2.1v-4.7c0-.9-.4-1.5-1.4-1.5-.9 0-1.5.7-1.5 1.6v4.7h-2.1v-4.7c0-.9-.4-1.5-1.4-1.5-.9 0-1.5.7-1.5 1.6v4.7h-2.1z"/><path d="m27.3 15.1c-2.4 0-4.2-1.8-4.2-4.2s1.7-4.2 4.2-4.2c2.4 0 4.2 1.9 4.2 4.2 0 2.4-1.8 4.2-4.2 4.2zm0-6.5c-1.2 0-2.3 1-2.3 2.3 0 1.2 1 2.3 2.3 2.3 1.2 0 2.3-1 2.3-2.3s-1.1-2.3-2.3-2.3z"/><path d="m36 15.1c-2.4 0-4.2-1.8-4.2-4.2s1.7-4.2 4.2-4.2c2.4 0 4.2 1.9 4.2 4.2 0 2.4-1.7 4.2-4.2 4.2zm0-6.5c-1.3 0-2.3 1-2.3 2.3s1 2.3 2.3 2.3 2.3-1 2.3-2.3-1-2.3-2.3-2.3z"/></g><path d="m61 14.7v-6.6h1.5v6.5h-1.5zm.8-7.5c-.2 0-.5-.1-.6-.2-.2-.2-.3-.4-.3-.6s.1-.4.3-.6.4-.2.6-.2.5.1.6.2c.2.2.3.4.3.6s-.1.4-.3.6c-.1.1-.3.2-.6.2zm3.9 3.6v3.8h-1.5v-6.5h1.5v1.1h.1c.2-.4.4-.7.7-.9s.7-.3 1.2-.3c.7 0 1.2.2 1.6.6s.6 1 .6 1.8v4.2h-1.5v-3.9c0-.4-.1-.8-.3-1s-.5-.4-.9-.4-.7.1-1 .4c-.4.3-.5.7-.5 1.1zm14.7-2.1c-.1-.5-.4-.8-.7-1.1s-.8-.4-1.3-.4-.9.1-1.3.4c-.4.2-.7.6-.9 1-.2.5-.3 1-.3 1.7 0 1 .2 1.7.7 2.3.5.5 1.1.8 1.8.8s1.2-.2 1.6-.5c.4-.4.6-.9.6-1.5h-2v-1.2h3.4v1c0 .7-.2 1.4-.5 1.9s-.8 1-1.3 1.3c-.6.3-1.2.4-1.9.4-.8 0-1.5-.2-2.1-.5-.6-.4-1.1-.9-1.4-1.5-.3-.7-.5-1.5-.5-2.4s.2-1.7.5-2.4.8-1.2 1.4-1.5c.6-.4 1.3-.5 2-.5.6 0 1.2.1 1.8.4.5.2 1 .6 1.3 1s.6.9.6 1.5h-1.5zm3.1 6v-6.6h1.5v1.1h.1c.1-.4.4-.7.7-.9s.6-.3 1.1-.3c.4 0 .8.1 1.1.3s.5.5.6.9h.1c.1-.4.4-.7.7-.9.4-.2.8-.3 1.3-.3.6 0 1.1.2 1.5.6s.6.9.6 1.7v4.4h-1.5v-4.2c0-.4-.1-.7-.3-.9s-.5-.3-.8-.3c-.4 0-.7.1-.9.3s-.3.5-.3.9v4.1h-1.5v-4.2c0-.3-.1-.6-.3-.8s-.5-.3-.8-.3-.6.1-.9.4c-.2.2-.3.6-.3 1v4zm12.7.1c-.6 0-1.1-.2-1.6-.5-.4-.3-.6-.8-.6-1.5 0-.5.1-.9.4-1.1.2-.3.5-.5.9-.6s.8-.2 1.2-.3c.6-.1 1-.1 1.2-.2.3-.1.4-.2.4-.4 0-.3-.1-.6-.3-.7-.2-.2-.5-.3-.8-.3-.4 0-.7.1-.9.2-.2.2-.4.4-.4.6l-1.4-.2c.2-.6.5-1 1-1.4.4-.2 1-.4 1.7-.4.3 0 .6 0 .9.1s.6.2.9.4.5.4.6.7c.2.3.2.7.2 1.1v4.4h-1.5v-.9h-.1c-.1.3-.4.5-.7.7-.2.2-.6.3-1.1.3zm.4-1.1c.5 0 .8-.1 1.1-.4s.4-.6.4-.9v-.8c-.1.1-.2.1-.4.1s-.4.1-.6.1-.4.1-.5.1c-.3 0-.6.1-.9.3-.2.1-.3.4-.3.7s.1.5.3.6c.3.1.5.2.9.2zm4.6 1v-6.6h1.5v6.5h-1.5zm.7-7.5c-.2 0-.5-.1-.6-.2-.2-.2-.3-.4-.3-.6s.1-.4.3-.6.4-.2.6-.2.5.1.6.2c.2.2.3.4.3.6s-.1.4-.3.6c-.1.1-.3.2-.6.2zm3.9-1.3v8.7h-1.5v-8.7z" fill="#fff"/></svg>