<svg enable-background="new 0 0 360 240" viewBox="0 0 360 240" xmlns="http://www.w3.org/2000/svg"><path d="m336 107.4h-73.1l63.3-36.5-12.6-21.8-63.3 36.5 36.6-63.3-21.8-12.5-36.6 63.3v-73.1h-25.1v73.1l-36.5-63.3-21.8 12.6 36.6 63.3-63.3-36.5-12.6 21.8 63.3 36.5h-73.1v25.1h73.1l-63.3 36.5 12.6 21.8 63.3-36.5-36.6 63.3 21.8 12.6 36.6-63.3v73h25.1v-74.7l37.2 64.5 20.4-11.8-37.2-64.5 64.7 37.3 12.6-21.8-63.3-36.5h73zm-120 46.8c-18.9 0-34.2-15.3-34.2-34.2s15.3-34.2 34.2-34.2 34.2 15.3 34.2 34.2-15.3 34.2-34.2 34.2z" fill="#625df5"/></svg>