<?xml version="1.0" encoding="UTF-8" standalone="no"?>
<!DOCTYPE svg PUBLIC "-//W3C//DTD SVG 1.1//EN"
 "http://www.w3.org/Graphics/SVG/1.1/DTD/svg11.dtd">
<!-- Generated by graphviz version 12.2.1 (0)
 -->
<!-- Title: Guix service Pages: 1 -->
<svg width="3648pt" height="1828pt"
 viewBox="0.00 0.00 3648.25 1828.12" xmlns="http://www.w3.org/2000/svg" xmlns:xlink="http://www.w3.org/1999/xlink">
<g id="graph0" class="graph" transform="scale(1 1) rotate(0) translate(4 1824.12)">
<title>Guix service</title>
<!-- 139898572201024 -->
<g id="node1" class="node">
<title>139898572201024</title>
<polygon fill="white" stroke="black" points="2083.12,-224 1867.12,-224 1867.12,-80 2083.12,-80 2083.12,-224"/>
<text text-anchor="middle" x="1975.12" y="-143.72" font-family="sans" font-size="32.00">home</text>
</g>
<!-- 139898572200928 -->
<g id="node2" class="node">
<title>139898572200928</title>
<polygon fill="white" stroke="black" points="2170.12,-982 1954.12,-982 1954.12,-838 2170.12,-838 2170.12,-982"/>
<text text-anchor="middle" x="2062.12" y="-901.73" font-family="sans" font-size="32.00">home&#45;profile</text>
</g>
<!-- 139898572200928&#45;&gt;139898572201024 -->
<g id="edge1" class="edge">
<title>139898572200928&#45;&gt;139898572201024</title>
<path fill="none" stroke="blue" d="M2068.49,-837.65C2075.02,-748.54 2081.82,-591.67 2063.12,-459 2052.19,-381.42 2026.39,-295.94 2005.53,-235.09"/>
<polygon fill="blue" stroke="blue" points="2008.91,-234.14 2002.33,-225.84 2002.29,-236.43 2008.91,-234.14"/>
</g>
<!-- 139898572201600 -->
<g id="node3" class="node">
<title>139898572201600</title>
<polygon fill="white" stroke="black" points="777,-982 325.25,-982 325.25,-838 777,-838 777,-982"/>
<text text-anchor="middle" x="551.12" y="-901.73" font-family="sans" font-size="32.00">home&#45;environment&#45;variables</text>
</g>
<!-- 139898572201600&#45;&gt;139898572201024 -->
<g id="edge2" class="edge">
<title>139898572201600&#45;&gt;139898572201024</title>
<path fill="none" stroke="magenta" d="M685.73,-837.54C963.13,-690.27 1594.38,-355.14 1857.04,-215.69"/>
<polygon fill="magenta" stroke="magenta" points="1858.46,-218.9 1865.65,-211.12 1855.18,-212.72 1858.46,-218.9"/>
</g>
<!-- 139898572201696 -->
<g id="node4" class="node">
<title>139898572201696</title>
<polygon fill="white" stroke="black" points="1389.62,-982 1130.62,-982 1130.62,-838 1389.62,-838 1389.62,-982"/>
<text text-anchor="middle" x="1260.12" y="-901.73" font-family="sans" font-size="32.00">home&#45;activation</text>
</g>
<!-- 139898572201696&#45;&gt;139898572201024 -->
<g id="edge3" class="edge">
<title>139898572201696&#45;&gt;139898572201024</title>
<path fill="none" stroke="dimgrey" d="M1324.52,-837.84C1405.54,-748.61 1549.35,-591.27 1675.12,-459 1749.09,-381.22 1834.97,-293.92 1895.84,-232.53"/>
<polygon fill="dimgrey" stroke="dimgrey" points="1898.26,-235.06 1902.82,-225.5 1893.29,-230.13 1898.26,-235.06"/>
</g>
<!-- 139898572201792 -->
<g id="node5" class="node">
<title>139898572201792</title>
<polygon fill="white" stroke="black" points="2054.5,-603 1683.75,-603 1683.75,-459 2054.5,-459 2054.5,-603"/>
<text text-anchor="middle" x="1869.12" y="-522.73" font-family="sans" font-size="32.00">home&#45;run&#45;on&#45;first&#45;login</text>
</g>
<!-- 139898572201792&#45;&gt;139898572201024 -->
<g id="edge4" class="edge">
<title>139898572201792&#45;&gt;139898572201024</title>
<path fill="none" stroke="dimgrey" d="M1889.19,-458.65C1907.07,-395.05 1933.24,-301.98 1951.99,-235.27"/>
<polygon fill="dimgrey" stroke="dimgrey" points="1955.31,-236.41 1954.64,-225.84 1948.57,-234.52 1955.31,-236.41"/>
</g>
<!-- 139898241717024 -->
<g id="node6" class="node">
<title>139898241717024</title>
<polygon fill="white" stroke="black" points="3640.25,-603 2674,-603 2674,-459 3640.25,-459 3640.25,-603"/>
<text text-anchor="middle" x="3157.12" y="-522.73" font-family="sans" font-size="32.00">home&#45;provenance /home/nick/.dotfiles/ns/systems/ulysses.scm</text>
</g>
<!-- 139898241717024&#45;&gt;139898572201024 -->
<g id="edge5" class="edge">
<title>139898241717024&#45;&gt;139898572201024</title>
<path fill="none" stroke="#00cdcd" d="M2933.06,-458.54C2683.73,-379.01 2290.22,-253.5 2094.24,-190.99"/>
<polygon fill="#00cdcd" stroke="#00cdcd" points="2095.38,-187.68 2084.78,-187.98 2093.25,-194.35 2095.38,-187.68"/>
</g>
<!-- 139898572199680 -->
<g id="node7" class="node">
<title>139898572199680</title>
<polygon fill="white" stroke="black" points="2656.12,-603 2440.12,-603 2440.12,-459 2656.12,-459 2656.12,-603"/>
<text text-anchor="middle" x="2548.12" y="-522.73" font-family="sans" font-size="32.00">home&#45;files</text>
</g>
<!-- 139898572199680&#45;&gt;139898572201024 -->
<g id="edge6" class="edge">
<title>139898572199680&#45;&gt;139898572201024</title>
<path fill="none" stroke="blue" d="M2439.67,-458.65C2340.72,-393.54 2194.83,-297.55 2093.02,-230.57"/>
<polygon fill="blue" stroke="blue" points="2095.16,-227.79 2084.88,-225.21 2091.31,-233.63 2095.16,-227.79"/>
</g>
<!-- 139898257682144 -->
<g id="node8" class="node">
<title>139898257682144</title>
<polygon fill="white" stroke="black" points="1562.88,-1361 1329.38,-1361 1329.38,-1217 1562.88,-1217 1562.88,-1361"/>
<text text-anchor="middle" x="1446.12" y="-1280.72" font-family="sans" font-size="32.00">home&#45;desktop</text>
</g>
<!-- 139898257682144&#45;&gt;139898572200928 -->
<g id="edge7" class="edge">
<title>139898257682144&#45;&gt;139898572200928</title>
<path fill="none" stroke="red" d="M1562.71,-1216.65C1671.91,-1149.82 1834.27,-1050.45 1943.97,-983.31"/>
<polygon fill="red" stroke="red" points="1945.76,-986.32 1952.47,-978.11 1942.11,-980.35 1945.76,-986.32"/>
</g>
<!-- 139898257682144&#45;&gt;139898572201600 -->
<g id="edge15" class="edge">
<title>139898257682144&#45;&gt;139898572201600</title>
<path fill="none" stroke="red" d="M1328.94,-1220.81C1326.32,-1219.52 1323.71,-1218.24 1321.12,-1217 1136.82,-1128.56 919.86,-1044.01 763.29,-986.29"/>
<polygon fill="red" stroke="red" points="764.61,-983.05 754.02,-982.88 762.19,-989.62 764.61,-983.05"/>
</g>
<!-- 139898257682208 -->
<g id="node9" class="node">
<title>139898257682208</title>
<polygon fill="white" stroke="black" points="2520.62,-1361 2207.62,-1361 2207.62,-1217 2520.62,-1217 2520.62,-1361"/>
<text text-anchor="middle" x="2364.12" y="-1280.72" font-family="sans" font-size="32.00">home&#45;emacs&#45;config</text>
</g>
<!-- 139898257682208&#45;&gt;139898572200928 -->
<g id="edge8" class="edge">
<title>139898257682208&#45;&gt;139898572200928</title>
<path fill="none" stroke="red" d="M2306.97,-1216.65C2255.5,-1152.39 2179.93,-1058.06 2126.38,-991.21"/>
<polygon fill="red" stroke="red" points="2129.24,-989.18 2120.25,-983.56 2123.77,-993.56 2129.24,-989.18"/>
</g>
<!-- 139898257561792 -->
<g id="node10" class="node">
<title>139898257561792</title>
<polygon fill="white" stroke="black" points="2833.12,-1361 2617.12,-1361 2617.12,-1217 2833.12,-1217 2833.12,-1361"/>
<text text-anchor="middle" x="2725.12" y="-1280.72" font-family="sans" font-size="32.00">home&#45;zsh</text>
</g>
<!-- 139898257561792&#45;&gt;139898572200928 -->
<g id="edge9" class="edge">
<title>139898257561792&#45;&gt;139898572200928</title>
<path fill="none" stroke="magenta" d="M2616.76,-1226.38C2496.83,-1158.18 2304.17,-1048.63 2180.4,-978.25"/>
<polygon fill="magenta" stroke="magenta" points="2182.24,-975.27 2171.82,-973.37 2178.78,-981.36 2182.24,-975.27"/>
</g>
<!-- 139898257561792&#45;&gt;139898572199680 -->
<g id="edge30" class="edge">
<title>139898257561792&#45;&gt;139898572199680</title>
<path fill="none" stroke="magenta" d="M2833.45,-1251.91C3019.66,-1183.86 3368.79,-1026.35 3242.12,-838 3089.64,-611.25 2917.1,-724.36 2666.55,-603.52"/>
<polygon fill="magenta" stroke="magenta" points="2668.34,-600.5 2657.83,-599.22 2665.25,-606.78 2668.34,-600.5"/>
</g>
<!-- 139898572199616 -->
<g id="node22" class="node">
<title>139898572199616</title>
<polygon fill="white" stroke="black" points="2915.75,-982 2534.5,-982 2534.5,-838 2915.75,-838 2915.75,-982"/>
<text text-anchor="middle" x="2725.12" y="-901.73" font-family="sans" font-size="32.00">home&#45;xdg&#45;configuration</text>
</g>
<!-- 139898257561792&#45;&gt;139898572199616 -->
<g id="edge33" class="edge">
<title>139898257561792&#45;&gt;139898572199616</title>
<path fill="none" stroke="magenta" d="M2725.12,-1216.65C2725.12,-1153.18 2725.12,-1060.36 2725.12,-993.68"/>
<polygon fill="magenta" stroke="magenta" points="2728.63,-993.9 2725.13,-983.9 2721.63,-993.9 2728.63,-993.9"/>
</g>
<!-- 139898572199552 -->
<g id="node11" class="node">
<title>139898572199552</title>
<polygon fill="white" stroke="black" points="2189.75,-1361 1934.5,-1361 1934.5,-1217 2189.75,-1217 2189.75,-1361"/>
<text text-anchor="middle" x="2062.12" y="-1280.72" font-family="sans" font-size="32.00">home&#45;shepherd</text>
</g>
<!-- 139898572199552&#45;&gt;139898572200928 -->
<g id="edge10" class="edge">
<title>139898572199552&#45;&gt;139898572200928</title>
<path fill="none" stroke="#00cdcd" d="M2062.12,-1216.65C2062.12,-1153.18 2062.12,-1060.36 2062.12,-993.68"/>
<polygon fill="#00cdcd" stroke="#00cdcd" points="2065.63,-993.9 2062.13,-983.9 2058.63,-993.9 2065.63,-993.9"/>
</g>
<!-- 139898572199552&#45;&gt;139898572201696 -->
<g id="edge22" class="edge">
<title>139898572199552&#45;&gt;139898572201696</title>
<path fill="none" stroke="#00cdcd" d="M1934.08,-1220.93C1931.41,-1219.6 1928.76,-1218.29 1926.12,-1217 1746.3,-1128.82 1535.83,-1033.39 1400.39,-972.97"/>
<polygon fill="#00cdcd" stroke="#00cdcd" points="1401.9,-969.81 1391.34,-968.94 1399.04,-976.2 1401.9,-969.81"/>
</g>
<!-- 139898572199552&#45;&gt;139898572201792 -->
<g id="edge25" class="edge">
<title>139898572199552&#45;&gt;139898572201792</title>
<path fill="none" stroke="#00cdcd" d="M2030.24,-1216.7C2004,-1155.52 1967.61,-1064.44 1945.12,-982 1910.79,-856.1 1889.18,-705.93 1878.13,-614.84"/>
<polygon fill="#00cdcd" stroke="#00cdcd" points="1881.61,-614.49 1876.95,-604.98 1874.66,-615.33 1881.61,-614.49"/>
</g>
<!-- 139898572199552&#45;&gt;139898572199616 -->
<g id="edge34" class="edge">
<title>139898572199552&#45;&gt;139898572199616</title>
<path fill="none" stroke="#00cdcd" d="M2187.61,-1216.65C2302.45,-1151.35 2471.94,-1054.97 2589.78,-987.96"/>
<polygon fill="#00cdcd" stroke="#00cdcd" points="2591.31,-991.12 2598.28,-983.13 2587.85,-985.03 2591.31,-991.12"/>
</g>
<!-- 139898257682112 -->
<g id="node12" class="node">
<title>139898257682112</title>
<polygon fill="white" stroke="black" points="2808.88,-1740 2551.38,-1740 2551.38,-1596 2808.88,-1596 2808.88,-1740"/>
<text text-anchor="middle" x="2680.12" y="-1659.72" font-family="sans" font-size="32.00">home&#45;syncthing</text>
</g>
<!-- 139898257682112&#45;&gt;139898572199680 -->
<g id="edge27" class="edge">
<title>139898257682112&#45;&gt;139898572199680</title>
<path fill="none" stroke="magenta" d="M2799.33,-1595.53C3022.27,-1452.72 3462.98,-1121.44 3269.12,-838 3108.58,-603.26 2928.1,-727.18 2666.57,-603.5"/>
<polygon fill="magenta" stroke="magenta" points="2668.33,-600.47 2657.8,-599.27 2665.28,-606.77 2668.33,-600.47"/>
</g>
<!-- 139898257682112&#45;&gt;139898572199552 -->
<g id="edge11" class="edge">
<title>139898257682112&#45;&gt;139898572199552</title>
<path fill="none" stroke="magenta" d="M2563.16,-1595.65C2456.33,-1530.48 2298.76,-1434.36 2188.95,-1367.37"/>
<polygon fill="magenta" stroke="magenta" points="2190.79,-1364.39 2180.43,-1362.17 2187.15,-1370.37 2190.79,-1364.39"/>
</g>
<!-- 139898257682176 -->
<g id="node13" class="node">
<title>139898257682176</title>
<polygon fill="white" stroke="black" points="906.12,-1740 690.12,-1740 690.12,-1596 906.12,-1596 906.12,-1740"/>
<text text-anchor="middle" x="798.12" y="-1659.72" font-family="sans" font-size="32.00">home&#45;dbus</text>
</g>
<!-- 139898257682176&#45;&gt;139898572201600 -->
<g id="edge16" class="edge">
<title>139898257682176&#45;&gt;139898572201600</title>
<path fill="none" stroke="darkviolet" d="M689.81,-1614.77C598.47,-1564.08 473.99,-1477.7 418.12,-1361 359.36,-1238.22 433.96,-1084.02 492.87,-991.71"/>
<polygon fill="darkviolet" stroke="darkviolet" points="495.74,-993.71 498.24,-983.42 489.87,-989.91 495.74,-993.71"/>
</g>
<!-- 139898257682176&#45;&gt;139898572199552 -->
<g id="edge12" class="edge">
<title>139898257682176&#45;&gt;139898572199552</title>
<path fill="none" stroke="darkviolet" d="M906.38,-1634.91C948.66,-1622.53 997.6,-1608.39 1042.12,-1596 1430.14,-1487.99 1545.04,-1507.81 1923.65,-1361.85"/>
<polygon fill="darkviolet" stroke="darkviolet" points="1924.89,-1365.12 1932.95,-1358.25 1922.36,-1358.6 1924.89,-1365.12"/>
</g>
<!-- 139898257561696 -->
<g id="node14" class="node">
<title>139898257561696</title>
<polygon fill="white" stroke="black" points="1319.5,-1740 1050.75,-1740 1050.75,-1596 1319.5,-1596 1319.5,-1740"/>
<text text-anchor="middle" x="1185.12" y="-1659.72" font-family="sans" font-size="32.00">home&#45;gpg&#45;agent</text>
</g>
<!-- 139898257561696&#45;&gt;139898572201600 -->
<g id="edge17" class="edge">
<title>139898257561696&#45;&gt;139898572201600</title>
<path fill="none" stroke="magenta" d="M1050.48,-1630.25C858.18,-1574.73 520.37,-1464.9 451.12,-1361 411.46,-1301.49 475.93,-1105.72 518.46,-992.97"/>
<polygon fill="magenta" stroke="magenta" points="521.68,-994.33 521.96,-983.74 515.14,-991.84 521.68,-994.33"/>
</g>
<!-- 139898257561696&#45;&gt;139898572201696 -->
<g id="edge21" class="edge">
<title>139898257561696&#45;&gt;139898572201696</title>
<path fill="none" stroke="magenta" d="M1096.07,-1595.84C999.14,-1509.17 865.66,-1356.96 927.12,-1217 969.14,-1121.32 1057.47,-1042.42 1132.61,-988.72"/>
<polygon fill="magenta" stroke="magenta" points="1134.32,-991.79 1140.46,-983.16 1130.28,-986.08 1134.32,-991.79"/>
</g>
<!-- 139898257561696&#45;&gt;139898572199680 -->
<g id="edge28" class="edge">
<title>139898257561696&#45;&gt;139898572199680</title>
<path fill="none" stroke="magenta" d="M1319.85,-1657.08C1629.98,-1631.18 2379.35,-1549.93 2530.12,-1361 2570.05,-1310.98 2558.73,-1274.25 2530.12,-1217 2452.37,-1061.39 2294.88,-1137.61 2217.12,-982 2144.61,-836.89 2308.17,-689.29 2430.26,-604.41"/>
<polygon fill="magenta" stroke="magenta" points="2432.21,-607.31 2438.46,-598.76 2428.24,-601.55 2432.21,-607.31"/>
</g>
<!-- 139898257561696&#45;&gt;139898572199552 -->
<g id="edge13" class="edge">
<title>139898257561696&#45;&gt;139898572199552</title>
<path fill="none" stroke="magenta" d="M1319.88,-1615.55C1467.24,-1558.33 1709.95,-1461.3 1923.98,-1361.95"/>
<polygon fill="magenta" stroke="magenta" points="1925.19,-1365.25 1932.78,-1357.85 1922.24,-1358.9 1925.19,-1365.25"/>
</g>
<!-- 139898572201216 -->
<g id="node15" class="node">
<title>139898572201216</title>
<polygon fill="white" stroke="black" points="879.88,-1361 460.38,-1361 460.38,-1217 879.88,-1217 879.88,-1361"/>
<text text-anchor="middle" x="670.12" y="-1280.72" font-family="sans" font-size="32.00">home&#45;xdg&#45;base&#45;directories</text>
</g>
<!-- 139898572201216&#45;&gt;139898572201600 -->
<g id="edge14" class="edge">
<title>139898572201216&#45;&gt;139898572201600</title>
<path fill="none" stroke="magenta" d="M647.6,-1216.65C627.53,-1153.05 598.15,-1059.98 577.09,-993.27"/>
<polygon fill="magenta" stroke="magenta" points="580.46,-992.31 574.11,-983.83 573.78,-994.42 580.46,-992.31"/>
</g>
<!-- 139898572201216&#45;&gt;139898572201696 -->
<g id="edge19" class="edge">
<title>139898572201216&#45;&gt;139898572201696</title>
<path fill="none" stroke="magenta" d="M781.79,-1216.65C883.68,-1151.54 1033.9,-1055.55 1138.73,-988.57"/>
<polygon fill="magenta" stroke="magenta" points="1140.6,-991.53 1147.14,-983.2 1136.83,-985.63 1140.6,-991.53"/>
</g>
<!-- 139898257622432 -->
<g id="node16" class="node">
<title>139898257622432</title>
<polygon fill="white" stroke="black" points="366.25,-1361 0,-1361 0,-1217 366.25,-1217 366.25,-1361"/>
<text text-anchor="middle" x="183.12" y="-1280.72" font-family="sans" font-size="32.00">profile&#45;env&#45;vars&#45;service</text>
</g>
<!-- 139898257622432&#45;&gt;139898572201600 -->
<g id="edge18" class="edge">
<title>139898257622432&#45;&gt;139898572201600</title>
<path fill="none" stroke="darkgoldenrod" d="M252.78,-1216.65C315.75,-1152.13 408.33,-1057.29 473.62,-990.4"/>
<polygon fill="darkgoldenrod" stroke="darkgoldenrod" points="475.91,-993.07 480.39,-983.47 470.9,-988.18 475.91,-993.07"/>
</g>
<!-- 139898572201504 -->
<g id="node17" class="node">
<title>139898572201504</title>
<polygon fill="white" stroke="black" points="1311.75,-1361 936.5,-1361 936.5,-1217 1311.75,-1217 1311.75,-1361"/>
<text text-anchor="middle" x="1124.12" y="-1280.72" font-family="sans" font-size="32.00">home&#45;symlink&#45;manager</text>
</g>
<!-- 139898572201504&#45;&gt;139898572201696 -->
<g id="edge20" class="edge">
<title>139898572201504&#45;&gt;139898572201696</title>
<path fill="none" stroke="darkgoldenrod" d="M1149.87,-1216.65C1172.85,-1152.92 1206.52,-1059.6 1230.6,-992.86"/>
<polygon fill="darkgoldenrod" stroke="darkgoldenrod" points="1233.76,-994.4 1233.86,-983.81 1227.18,-992.02 1233.76,-994.4"/>
</g>
<!-- 139898572199488 -->
<g id="node18" class="node">
<title>139898572199488</title>
<polygon fill="white" stroke="black" points="1916.88,-1361 1581.38,-1361 1581.38,-1217 1916.88,-1217 1916.88,-1361"/>
<text text-anchor="middle" x="1749.12" y="-1280.72" font-family="sans" font-size="32.00">home&#45;run&#45;on&#45;change</text>
</g>
<!-- 139898572199488&#45;&gt;139898572201696 -->
<g id="edge23" class="edge">
<title>139898572199488&#45;&gt;139898572201696</title>
<path fill="none" stroke="darkviolet" d="M1656.57,-1216.65C1572.47,-1151.8 1448.62,-1056.32 1361.79,-989.38"/>
<polygon fill="darkviolet" stroke="darkviolet" points="1363.97,-986.64 1353.91,-983.31 1359.69,-992.18 1363.97,-986.64"/>
</g>
<!-- 139898572201408 -->
<g id="node19" class="node">
<title>139898572201408</title>
<polygon fill="white" stroke="black" points="2208.12,-1740 1940.12,-1740 1940.12,-1596 2208.12,-1596 2208.12,-1740"/>
<text text-anchor="middle" x="2074.12" y="-1659.72" font-family="sans" font-size="32.00">home&#45;fontconfig</text>
</g>
<!-- 139898572201408&#45;&gt;139898572199488 -->
<g id="edge24" class="edge">
<title>139898572201408&#45;&gt;139898572199488</title>
<path fill="none" stroke="dimgrey" d="M2012.61,-1595.65C1957.11,-1531.26 1875.57,-1436.67 1817.92,-1369.81"/>
<polygon fill="dimgrey" stroke="dimgrey" points="1820.83,-1367.82 1811.65,-1362.53 1815.53,-1372.39 1820.83,-1367.82"/>
</g>
<!-- 139898572201408&#45;&gt;139898572199616 -->
<g id="edge32" class="edge">
<title>139898572201408&#45;&gt;139898572199616</title>
<path fill="none" stroke="dimgrey" d="M2208.45,-1614.47C2318.73,-1564.82 2471.19,-1480.12 2563.12,-1361 2604.09,-1307.92 2586.14,-1280.35 2608.12,-1217 2634.74,-1140.3 2668.05,-1054 2692.32,-992.65"/>
<polygon fill="dimgrey" stroke="dimgrey" points="2695.45,-994.25 2695.88,-983.66 2688.94,-991.67 2695.45,-994.25"/>
</g>
<!-- 139898572201120 -->
<g id="node20" class="node">
<title>139898572201120</title>
<polygon fill="white" stroke="black" points="2516.38,-982 2225.88,-982 2225.88,-838 2516.38,-838 2516.38,-982"/>
<text text-anchor="middle" x="2371.12" y="-901.73" font-family="sans" font-size="32.00">home&#45;shell&#45;profile</text>
</g>
<!-- 139898572201120&#45;&gt;139898572199680 -->
<g id="edge26" class="edge">
<title>139898572201120&#45;&gt;139898572199680</title>
<path fill="none" stroke="magenta" d="M2404.63,-837.65C2434.61,-773.79 2478.54,-680.21 2509.89,-613.45"/>
<polygon fill="magenta" stroke="magenta" points="2512.89,-615.29 2513.97,-604.75 2506.55,-612.32 2512.89,-615.29"/>
</g>
<!-- 139898257621376 -->
<g id="node21" class="node">
<title>139898257621376</title>
<polygon fill="white" stroke="black" points="3232.88,-982 2933.38,-982 2933.38,-838 3232.88,-838 3232.88,-982"/>
<text text-anchor="middle" x="3083.12" y="-901.73" font-family="sans" font-size="32.00">profile&#45;files&#45;service</text>
</g>
<!-- 139898257621376&#45;&gt;139898572199680 -->
<g id="edge29" class="edge">
<title>139898257621376&#45;&gt;139898572199680</title>
<path fill="none" stroke="#8b7765" d="M2981.87,-837.65C2889.66,-772.67 2753.81,-676.94 2658.78,-609.97"/>
<polygon fill="#8b7765" stroke="#8b7765" points="2660.85,-607.15 2650.66,-604.25 2656.82,-612.88 2660.85,-607.15"/>
</g>
<!-- 139898572199616&#45;&gt;139898572199680 -->
<g id="edge31" class="edge">
<title>139898572199616&#45;&gt;139898572199680</title>
<path fill="none" stroke="darkgoldenrod" d="M2691.62,-837.65C2661.64,-773.79 2617.71,-680.21 2586.36,-613.45"/>
<polygon fill="darkgoldenrod" stroke="darkgoldenrod" points="2589.7,-612.32 2582.28,-604.75 2583.36,-615.29 2589.7,-612.32"/>
</g>
</g>
</svg>
