<?xml version="1.0" encoding="UTF-8" standalone="no"?>
<!DOCTYPE svg PUBLIC "-//W3C//DTD SVG 1.1//EN"
 "http://www.w3.org/Graphics/SVG/1.1/DTD/svg11.dtd">
<!-- Generated by graphviz version 12.2.1 (0)
 -->
<!-- Title: Guix service Pages: 1 -->
<svg width="2800pt" height="1404pt"
 viewBox="0.00 0.00 2799.75 1403.88" xmlns="http://www.w3.org/2000/svg" xmlns:xlink="http://www.w3.org/1999/xlink">
<g id="graph0" class="graph" transform="scale(1 1) rotate(0) translate(4 1399.88)">
<title>Guix service</title>
<!-- 140013814941248 -->
<g id="node1" class="node">
<title>140013814941248</title>
<polygon fill="none" stroke="black" points="1622.75,-188 1406.75,-188 1406.75,-44 1622.75,-44 1622.75,-188"/>
<text text-anchor="middle" x="1514.75" y="-110.47" font-family="sans" font-size="22.00">home</text>
</g>
<!-- 140013814941152 -->
<g id="node2" class="node">
<title>140013814941152</title>
<polygon fill="none" stroke="black" points="1695.75,-770 1479.75,-770 1479.75,-626 1695.75,-626 1695.75,-770"/>
<text text-anchor="middle" x="1587.75" y="-692.48" font-family="sans" font-size="22.00">home&#45;profile</text>
</g>
<!-- 140013814941152&#45;&gt;140013814941248 -->
<g id="edge1" class="edge">
<title>140013814941152&#45;&gt;140013814941248</title>
<path fill="none" stroke="#8b7765" d="M1590.05,-625.79C1591.29,-552.46 1590.1,-435.08 1574.75,-335 1567.74,-289.33 1554.49,-239.57 1542.23,-199.13"/>
<polygon fill="#8b7765" stroke="#8b7765" points="1545.61,-198.24 1539.33,-189.71 1538.92,-200.29 1545.61,-198.24"/>
</g>
<!-- 140013814941728 -->
<g id="node3" class="node">
<title>140013814941728</title>
<polygon fill="none" stroke="black" points="570.12,-770 253.38,-770 253.38,-626 570.12,-626 570.12,-770"/>
<text text-anchor="middle" x="411.75" y="-692.48" font-family="sans" font-size="22.00">home&#45;environment&#45;variables</text>
</g>
<!-- 140013814941728&#45;&gt;140013814941248 -->
<g id="edge2" class="edge">
<title>140013814941728&#45;&gt;140013814941248</title>
<path fill="none" stroke="darkviolet" d="M547.55,-625.59C765.53,-510.97 1189.9,-287.82 1396.31,-179.28"/>
<polygon fill="darkviolet" stroke="darkviolet" points="1397.71,-182.5 1404.93,-174.75 1394.45,-176.3 1397.71,-182.5"/>
</g>
<!-- 140013814941824 -->
<g id="node4" class="node">
<title>140013814941824</title>
<polygon fill="none" stroke="black" points="1073.75,-770 857.75,-770 857.75,-626 1073.75,-626 1073.75,-770"/>
<text text-anchor="middle" x="965.75" y="-692.48" font-family="sans" font-size="22.00">home&#45;activation</text>
</g>
<!-- 140013814941824&#45;&gt;140013814941248 -->
<g id="edge3" class="edge">
<title>140013814941824&#45;&gt;140013814941248</title>
<path fill="none" stroke="red" d="M1029.21,-625.73C1095.17,-552.09 1201.85,-434.24 1296.75,-335 1341.31,-288.4 1392.21,-237.38 1433.61,-196.42"/>
<polygon fill="red" stroke="red" points="1436.03,-198.95 1440.69,-189.43 1431.11,-193.97 1436.03,-198.95"/>
</g>
<!-- 140013814941920 -->
<g id="node5" class="node">
<title>140013814941920</title>
<polygon fill="none" stroke="black" points="1565.62,-479 1305.88,-479 1305.88,-335 1565.62,-335 1565.62,-479"/>
<text text-anchor="middle" x="1435.75" y="-401.48" font-family="sans" font-size="22.00">home&#45;run&#45;on&#45;first&#45;login</text>
</g>
<!-- 140013814941920&#45;&gt;140013814941248 -->
<g id="edge4" class="edge">
<title>140013814941920&#45;&gt;140013814941248</title>
<path fill="none" stroke="darkgoldenrod" d="M1455.28,-334.56C1466.48,-293.58 1480.59,-241.97 1492.25,-199.29"/>
<polygon fill="darkgoldenrod" stroke="darkgoldenrod" points="1495.58,-200.4 1494.84,-189.83 1488.83,-198.55 1495.58,-200.4"/>
</g>
<!-- 140013485227232 -->
<g id="node6" class="node">
<title>140013485227232</title>
<polygon fill="none" stroke="black" points="2791.75,-479 2115.75,-479 2115.75,-335 2791.75,-335 2791.75,-479"/>
<text text-anchor="middle" x="2453.75" y="-401.48" font-family="sans" font-size="22.00">home&#45;provenance /home/nick/.dotfiles/ns/systems/ulysses.scm</text>
</g>
<!-- 140013485227232&#45;&gt;140013814941248 -->
<g id="edge5" class="edge">
<title>140013485227232&#45;&gt;140013814941248</title>
<path fill="none" stroke="blue" d="M2221.64,-334.56C2035.27,-277.2 1781.17,-199 1633.86,-153.66"/>
<polygon fill="blue" stroke="blue" points="1635.04,-150.36 1624.45,-150.76 1632.98,-157.05 1635.04,-150.36"/>
</g>
<!-- 140013814939904 -->
<g id="node7" class="node">
<title>140013814939904</title>
<polygon fill="none" stroke="black" points="2097.75,-479 1881.75,-479 1881.75,-335 2097.75,-335 2097.75,-479"/>
<text text-anchor="middle" x="1989.75" y="-401.48" font-family="sans" font-size="22.00">home&#45;files</text>
</g>
<!-- 140013814939904&#45;&gt;140013814941248 -->
<g id="edge6" class="edge">
<title>140013814939904&#45;&gt;140013814941248</title>
<path fill="none" stroke="darkgoldenrod" d="M1881.37,-340.06C1807.19,-294.93 1708.87,-235.11 1632.72,-188.78"/>
<polygon fill="darkgoldenrod" stroke="darkgoldenrod" points="1634.73,-185.9 1624.37,-183.69 1631.09,-191.88 1634.73,-185.9"/>
</g>
<!-- 140013501251040 -->
<g id="node8" class="node">
<title>140013501251040</title>
<polygon fill="none" stroke="black" points="1199.75,-1061 983.75,-1061 983.75,-917 1199.75,-917 1199.75,-1061"/>
<text text-anchor="middle" x="1091.75" y="-983.48" font-family="sans" font-size="22.00">home&#45;desktop</text>
</g>
<!-- 140013501251040&#45;&gt;140013814941152 -->
<g id="edge7" class="edge">
<title>140013501251040&#45;&gt;140013814941152</title>
<path fill="none" stroke="dimgrey" d="M1200.06,-922.15C1202.99,-920.41 1205.89,-918.69 1208.75,-917 1295.68,-865.63 1394.61,-808.78 1469.59,-766.02"/>
<polygon fill="dimgrey" stroke="dimgrey" points="1471.27,-769.09 1478.22,-761.1 1467.8,-763.01 1471.27,-769.09"/>
</g>
<!-- 140013501251040&#45;&gt;140013814941728 -->
<g id="edge15" class="edge">
<title>140013501251040&#45;&gt;140013814941728</title>
<path fill="none" stroke="dimgrey" d="M983.44,-921.38C980.53,-919.88 977.63,-918.42 974.75,-917 846.28,-853.76 694.6,-795.94 581.07,-755.76"/>
<polygon fill="dimgrey" stroke="dimgrey" points="582.57,-752.57 571.97,-752.55 580.24,-759.18 582.57,-752.57"/>
</g>
<!-- 140013501251104 -->
<g id="node9" class="node">
<title>140013501251104</title>
<polygon fill="none" stroke="black" points="1925.75,-1061 1705.75,-1061 1705.75,-917 1925.75,-917 1925.75,-1061"/>
<text text-anchor="middle" x="1815.75" y="-983.48" font-family="sans" font-size="22.00">home&#45;emacs&#45;config</text>
</g>
<!-- 140013501251104&#45;&gt;140013814941152 -->
<g id="edge8" class="edge">
<title>140013501251104&#45;&gt;140013814941152</title>
<path fill="none" stroke="darkgoldenrod" d="M1759.39,-916.56C1726.58,-874.97 1685.13,-822.43 1651.18,-779.4"/>
<polygon fill="darkgoldenrod" stroke="darkgoldenrod" points="1653.93,-777.24 1644.99,-771.56 1648.44,-781.57 1653.93,-777.24"/>
</g>
<!-- 140013501193120 -->
<g id="node10" class="node">
<title>140013501193120</title>
<polygon fill="none" stroke="black" points="2235.75,-1061 2019.75,-1061 2019.75,-917 2235.75,-917 2235.75,-1061"/>
<text text-anchor="middle" x="2127.75" y="-983.48" font-family="sans" font-size="22.00">home&#45;zsh</text>
</g>
<!-- 140013501193120&#45;&gt;140013814941152 -->
<g id="edge9" class="edge">
<title>140013501193120&#45;&gt;140013814941152</title>
<path fill="none" stroke="darkviolet" d="M2019.45,-930.04C1928.69,-881.47 1799.36,-812.25 1705.94,-762.25"/>
<polygon fill="darkviolet" stroke="darkviolet" points="1707.68,-759.21 1697.21,-757.58 1704.37,-765.38 1707.68,-759.21"/>
</g>
<!-- 140013501193120&#45;&gt;140013814939904 -->
<g id="edge30" class="edge">
<title>140013501193120&#45;&gt;140013814939904</title>
<path fill="none" stroke="darkviolet" d="M2235.82,-957C2323.47,-925.51 2441.25,-867.26 2496.75,-770 2528.47,-714.41 2533.16,-678.63 2496.75,-626 2393.43,-476.64 2277.92,-556.78 2108.25,-479.46"/>
<polygon fill="darkviolet" stroke="darkviolet" points="2109.95,-476.39 2099.41,-475.3 2106.97,-482.73 2109.95,-476.39"/>
</g>
<!-- 140013814939840 -->
<g id="node22" class="node">
<title>140013814939840</title>
<polygon fill="none" stroke="black" points="2253.75,-770 1985.75,-770 1985.75,-626 2253.75,-626 2253.75,-770"/>
<text text-anchor="middle" x="2119.75" y="-692.48" font-family="sans" font-size="22.00">home&#45;xdg&#45;configuration</text>
</g>
<!-- 140013501193120&#45;&gt;140013814939840 -->
<g id="edge33" class="edge">
<title>140013501193120&#45;&gt;140013814939840</title>
<path fill="none" stroke="darkviolet" d="M2125.77,-916.56C2124.64,-875.76 2123.22,-824.4 2122.04,-781.84"/>
<polygon fill="darkviolet" stroke="darkviolet" points="2125.54,-781.78 2121.77,-771.88 2118.55,-781.97 2125.54,-781.78"/>
</g>
<!-- 140013814939776 -->
<g id="node11" class="node">
<title>140013814939776</title>
<polygon fill="none" stroke="black" points="1687.75,-1061 1471.75,-1061 1471.75,-917 1687.75,-917 1687.75,-1061"/>
<text text-anchor="middle" x="1579.75" y="-983.48" font-family="sans" font-size="22.00">home&#45;shepherd</text>
</g>
<!-- 140013814939776&#45;&gt;140013814941152 -->
<g id="edge10" class="edge">
<title>140013814939776&#45;&gt;140013814941152</title>
<path fill="none" stroke="dimgrey" d="M1581.73,-916.56C1582.86,-875.76 1584.28,-824.4 1585.46,-781.84"/>
<polygon fill="dimgrey" stroke="dimgrey" points="1588.95,-781.97 1585.73,-771.88 1581.96,-781.78 1588.95,-781.97"/>
</g>
<!-- 140013814939776&#45;&gt;140013814941824 -->
<g id="edge22" class="edge">
<title>140013814939776&#45;&gt;140013814941824</title>
<path fill="none" stroke="dimgrey" d="M1471.38,-922.09C1468.15,-920.35 1464.93,-918.65 1461.75,-917 1335.91,-851.82 1186.38,-787.85 1084.65,-746.25"/>
<polygon fill="dimgrey" stroke="dimgrey" points="1086.01,-743.02 1075.43,-742.48 1083.37,-749.5 1086.01,-743.02"/>
</g>
<!-- 140013814939776&#45;&gt;140013814941920 -->
<g id="edge25" class="edge">
<title>140013814939776&#45;&gt;140013814941920</title>
<path fill="none" stroke="dimgrey" d="M1535.65,-916.58C1512.33,-875.28 1485.54,-821.44 1470.75,-770 1443.9,-676.64 1436.68,-564.75 1435.2,-490.32"/>
<polygon fill="dimgrey" stroke="dimgrey" points="1438.7,-490.61 1435.04,-480.67 1431.7,-490.73 1438.7,-490.61"/>
</g>
<!-- 140013814939776&#45;&gt;140013814939840 -->
<g id="edge34" class="edge">
<title>140013814939776&#45;&gt;140013814939840</title>
<path fill="none" stroke="dimgrey" d="M1687.96,-921.97C1690.91,-920.29 1693.85,-918.63 1696.75,-917 1748.28,-888.13 1874.21,-823.5 1975.36,-772.06"/>
<polygon fill="dimgrey" stroke="dimgrey" points="1976.7,-775.31 1984.03,-767.66 1973.52,-769.07 1976.7,-775.31"/>
</g>
<!-- 140013501251008 -->
<g id="node12" class="node">
<title>140013501251008</title>
<polygon fill="none" stroke="black" points="2170.75,-1352 1954.75,-1352 1954.75,-1208 2170.75,-1208 2170.75,-1352"/>
<text text-anchor="middle" x="2062.75" y="-1274.47" font-family="sans" font-size="22.00">home&#45;syncthing</text>
</g>
<!-- 140013501251008&#45;&gt;140013814939904 -->
<g id="edge27" class="edge">
<title>140013501251008&#45;&gt;140013814939904</title>
<path fill="none" stroke="dimgrey" d="M2171.02,-1212.92C2350.51,-1094.99 2675.58,-840.51 2523.75,-626 2412.33,-468.58 2289.03,-559.56 2108.32,-479.46"/>
<polygon fill="dimgrey" stroke="dimgrey" points="2109.93,-476.35 2099.38,-475.36 2107.01,-482.71 2109.93,-476.35"/>
</g>
<!-- 140013501251008&#45;&gt;140013814939776 -->
<g id="edge11" class="edge">
<title>140013501251008&#45;&gt;140013814939776</title>
<path fill="none" stroke="dimgrey" d="M1954.51,-1214.85C1884.07,-1173.02 1789.96,-1117 1697.86,-1061.66"/>
<polygon fill="dimgrey" stroke="dimgrey" points="1699.77,-1058.72 1689.39,-1056.57 1696.16,-1064.72 1699.77,-1058.72"/>
</g>
<!-- 140013501251072 -->
<g id="node13" class="node">
<title>140013501251072</title>
<polygon fill="none" stroke="black" points="684.75,-1352 468.75,-1352 468.75,-1208 684.75,-1208 684.75,-1352"/>
<text text-anchor="middle" x="576.75" y="-1274.47" font-family="sans" font-size="22.00">home&#45;dbus</text>
</g>
<!-- 140013501251072&#45;&gt;140013814941728 -->
<g id="edge16" class="edge">
<title>140013501251072&#45;&gt;140013814941728</title>
<path fill="none" stroke="darkviolet" d="M468.56,-1222.34C409.86,-1185.13 342.72,-1130.47 309.75,-1061 266.22,-969.26 313.22,-855.39 356.82,-780.13"/>
<polygon fill="darkviolet" stroke="darkviolet" points="359.83,-781.93 361.9,-771.54 353.8,-778.37 359.83,-781.93"/>
</g>
<!-- 140013501251072&#45;&gt;140013814939776 -->
<g id="edge12" class="edge">
<title>140013501251072&#45;&gt;140013814939776</title>
<path fill="none" stroke="darkviolet" d="M685.19,-1236.48C713.14,-1226.37 743.35,-1216.15 771.75,-1208 1069.6,-1122.5 1167.78,-1174.81 1460.94,-1061.06"/>
<polygon fill="darkviolet" stroke="darkviolet" points="1462.01,-1064.4 1470.04,-1057.5 1459.46,-1057.89 1462.01,-1064.4"/>
</g>
<!-- 140013501193024 -->
<g id="node14" class="node">
<title>140013501193024</title>
<polygon fill="none" stroke="black" points="996.75,-1352 780.75,-1352 780.75,-1208 996.75,-1208 996.75,-1352"/>
<text text-anchor="middle" x="888.75" y="-1274.47" font-family="sans" font-size="22.00">home&#45;gpg&#45;agent</text>
</g>
<!-- 140013501193024&#45;&gt;140013814941728 -->
<g id="edge17" class="edge">
<title>140013501193024&#45;&gt;140013814941728</title>
<path fill="none" stroke="darkgoldenrod" d="M780.56,-1239.35C625.13,-1181.88 355.75,-1080.18 342.75,-1061 285.88,-977.06 325.86,-858.33 364.58,-780.04"/>
<polygon fill="darkgoldenrod" stroke="darkgoldenrod" points="367.47,-782.08 368.85,-771.57 361.22,-778.92 367.47,-782.08"/>
</g>
<!-- 140013501193024&#45;&gt;140013814941824 -->
<g id="edge21" class="edge">
<title>140013501193024&#45;&gt;140013814941824</title>
<path fill="none" stroke="darkgoldenrod" d="M800.72,-1207.66C760.17,-1169.06 716.33,-1117.7 694.75,-1061 671.99,-1001.18 667.1,-974.72 694.75,-917 726.75,-850.2 790.31,-797.36 847.83,-760.44"/>
<polygon fill="darkgoldenrod" stroke="darkgoldenrod" points="849.5,-763.53 856.09,-755.23 845.77,-757.6 849.5,-763.53"/>
</g>
<!-- 140013501193024&#45;&gt;140013814939904 -->
<g id="edge28" class="edge">
<title>140013501193024&#45;&gt;140013814939904</title>
<path fill="none" stroke="darkgoldenrod" d="M997.05,-1264.23C1252.43,-1228.32 1875.36,-1134.04 1934.75,-1061 1975.13,-1011.34 1963.09,-974.38 1934.75,-917 1887.16,-820.64 1790.34,-866.36 1742.75,-770 1714.41,-712.62 1716.43,-684.34 1742.75,-626 1769.82,-566 1822.47,-515.89 1872.23,-478.9"/>
<polygon fill="darkgoldenrod" stroke="darkgoldenrod" points="1874.25,-481.76 1880.26,-473.04 1870.12,-476.11 1874.25,-481.76"/>
</g>
<!-- 140013501193024&#45;&gt;140013814939776 -->
<g id="edge13" class="edge">
<title>140013501193024&#45;&gt;140013814939776</title>
<path fill="none" stroke="darkgoldenrod" d="M997.02,-1244.26C1111.65,-1206.03 1297.09,-1140.05 1461.21,-1061.1"/>
<polygon fill="darkgoldenrod" stroke="darkgoldenrod" points="1462.65,-1064.29 1470.13,-1056.79 1459.6,-1057.99 1462.65,-1064.29"/>
</g>
<!-- 140013814941440 -->
<g id="node15" class="node">
<title>140013814941440</title>
<polygon fill="none" stroke="black" points="647.25,-1061 352.25,-1061 352.25,-917 647.25,-917 647.25,-1061"/>
<text text-anchor="middle" x="499.75" y="-983.48" font-family="sans" font-size="22.00">home&#45;xdg&#45;base&#45;directories</text>
</g>
<!-- 140013814941440&#45;&gt;140013814941728 -->
<g id="edge14" class="edge">
<title>140013814941440&#45;&gt;140013814941728</title>
<path fill="none" stroke="#00cdcd" d="M478,-916.56C465.52,-875.58 449.8,-823.97 436.81,-781.29"/>
<polygon fill="#00cdcd" stroke="#00cdcd" points="440.18,-780.36 433.92,-771.82 433.49,-782.4 440.18,-780.36"/>
</g>
<!-- 140013814941440&#45;&gt;140013814941824 -->
<g id="edge19" class="edge">
<title>140013814941440&#45;&gt;140013814941824</title>
<path fill="none" stroke="#00cdcd" d="M614.94,-916.56C685.88,-872.57 776.58,-816.32 847.98,-772.04"/>
<polygon fill="#00cdcd" stroke="#00cdcd" points="849.54,-775.19 856.19,-766.94 845.85,-769.24 849.54,-775.19"/>
</g>
<!-- 140013501195424 -->
<g id="node16" class="node">
<title>140013501195424</title>
<polygon fill="none" stroke="black" points="257.5,-1061 0,-1061 0,-917 257.5,-917 257.5,-1061"/>
<text text-anchor="middle" x="128.75" y="-983.48" font-family="sans" font-size="22.00">profile&#45;env&#45;vars&#45;service</text>
</g>
<!-- 140013501195424&#45;&gt;140013814941728 -->
<g id="edge18" class="edge">
<title>140013501195424&#45;&gt;140013814941728</title>
<path fill="none" stroke="magenta" d="M198.71,-916.56C239.68,-874.71 291.53,-821.77 333.81,-778.59"/>
<polygon fill="magenta" stroke="magenta" points="336.31,-781.04 340.81,-771.45 331.31,-776.14 336.31,-781.04"/>
</g>
<!-- 140013814941632 -->
<g id="node17" class="node">
<title>140013814941632</title>
<polygon fill="none" stroke="black" points="965.75,-1061 703.75,-1061 703.75,-917 965.75,-917 965.75,-1061"/>
<text text-anchor="middle" x="834.75" y="-983.48" font-family="sans" font-size="22.00">home&#45;symlink&#45;manager</text>
</g>
<!-- 140013814941632&#45;&gt;140013814941824 -->
<g id="edge20" class="edge">
<title>140013814941632&#45;&gt;140013814941824</title>
<path fill="none" stroke="#00cdcd" d="M867.13,-916.56C885.79,-875.41 909.3,-823.53 928.69,-780.75"/>
<polygon fill="#00cdcd" stroke="#00cdcd" points="931.83,-782.3 932.78,-771.75 925.46,-779.41 931.83,-782.3"/>
</g>
<!-- 140013814939712 -->
<g id="node18" class="node">
<title>140013814939712</title>
<polygon fill="none" stroke="black" points="1453.25,-1061 1218.25,-1061 1218.25,-917 1453.25,-917 1453.25,-1061"/>
<text text-anchor="middle" x="1335.75" y="-983.48" font-family="sans" font-size="22.00">home&#45;run&#45;on&#45;change</text>
</g>
<!-- 140013814939712&#45;&gt;140013814941824 -->
<g id="edge23" class="edge">
<title>140013814939712&#45;&gt;140013814941824</title>
<path fill="none" stroke="#00cdcd" d="M1244.29,-916.56C1190.15,-874.28 1121.52,-820.67 1065.93,-777.25"/>
<polygon fill="#00cdcd" stroke="#00cdcd" points="1068.35,-774.7 1058.31,-771.3 1064.04,-780.21 1068.35,-774.7"/>
</g>
<!-- 140013814941536 -->
<g id="node19" class="node">
<title>140013814941536</title>
<polygon fill="none" stroke="black" points="1689.75,-1352 1473.75,-1352 1473.75,-1208 1689.75,-1208 1689.75,-1352"/>
<text text-anchor="middle" x="1581.75" y="-1274.47" font-family="sans" font-size="22.00">home&#45;fontconfig</text>
</g>
<!-- 140013814941536&#45;&gt;140013814939712 -->
<g id="edge24" class="edge">
<title>140013814941536&#45;&gt;140013814939712</title>
<path fill="none" stroke="magenta" d="M1520.94,-1207.56C1485.47,-1165.89 1440.63,-1113.21 1403.96,-1070.13"/>
<polygon fill="magenta" stroke="magenta" points="1406.63,-1067.87 1397.48,-1062.52 1401.3,-1072.4 1406.63,-1067.87"/>
</g>
<!-- 140013814941536&#45;&gt;140013814939840 -->
<g id="edge32" class="edge">
<title>140013814941536&#45;&gt;140013814939840</title>
<path fill="none" stroke="magenta" d="M1690.2,-1243.56C1777.2,-1209.78 1896.23,-1150.64 1967.75,-1061 2009.41,-1008.79 1986.17,-979.1 2010.75,-917 2029.13,-870.57 2053.72,-820.63 2074.9,-780.27"/>
<polygon fill="magenta" stroke="magenta" points="2077.92,-782.05 2079.49,-771.57 2071.73,-778.78 2077.92,-782.05"/>
</g>
<!-- 140013814941344 -->
<g id="node20" class="node">
<title>140013814941344</title>
<polygon fill="none" stroke="black" points="1967.75,-770 1751.75,-770 1751.75,-626 1967.75,-626 1967.75,-770"/>
<text text-anchor="middle" x="1859.75" y="-692.48" font-family="sans" font-size="22.00">home&#45;shell&#45;profile</text>
</g>
<!-- 140013814941344&#45;&gt;140013814939904 -->
<g id="edge26" class="edge">
<title>140013814941344&#45;&gt;140013814939904</title>
<path fill="none" stroke="darkviolet" d="M1891.88,-625.56C1910.4,-584.41 1933.73,-532.53 1952.98,-489.75"/>
<polygon fill="darkviolet" stroke="darkviolet" points="1956.12,-491.3 1957.03,-480.75 1949.73,-488.43 1956.12,-491.3"/>
</g>
<!-- 140013501194368 -->
<g id="node21" class="node">
<title>140013501194368</title>
<polygon fill="none" stroke="black" points="2487.75,-770 2271.75,-770 2271.75,-626 2487.75,-626 2487.75,-770"/>
<text text-anchor="middle" x="2379.75" y="-692.48" font-family="sans" font-size="22.00">profile&#45;files&#45;service</text>
</g>
<!-- 140013501194368&#45;&gt;140013814939904 -->
<g id="edge29" class="edge">
<title>140013501194368&#45;&gt;140013814939904</title>
<path fill="none" stroke="darkgoldenrod" d="M2283.35,-625.56C2226.17,-583.19 2153.64,-529.45 2094.98,-485.98"/>
<polygon fill="darkgoldenrod" stroke="darkgoldenrod" points="2097.39,-483.41 2087.27,-480.27 2093.23,-489.03 2097.39,-483.41"/>
</g>
<!-- 140013814939840&#45;&gt;140013814939904 -->
<g id="edge31" class="edge">
<title>140013814939840&#45;&gt;140013814939904</title>
<path fill="none" stroke="darkgoldenrod" d="M2087.62,-625.56C2069.1,-584.41 2045.77,-532.53 2026.52,-489.75"/>
<polygon fill="darkgoldenrod" stroke="darkgoldenrod" points="2029.77,-488.43 2022.47,-480.75 2023.38,-491.3 2029.77,-488.43"/>
</g>
</g>
</svg>
