<?xml version="1.0" encoding="UTF-8" standalone="no"?>
<!DOCTYPE svg PUBLIC "-//W3C//DTD SVG 1.1//EN"
 "http://www.w3.org/Graphics/SVG/1.1/DTD/svg11.dtd">
<!-- Generated by graphviz version 12.2.1 (0)
 -->
<!-- Title: Guix service Pages: 1 -->
<svg width="16629pt" height="16601pt"
 viewBox="0.00 0.00 16628.60 16601.38" xmlns="http://www.w3.org/2000/svg" xmlns:xlink="http://www.w3.org/1999/xlink">
<g id="graph0" class="graph" transform="scale(1 1) rotate(0) translate(4 16597.38)">
<title>Guix service</title>
<!-- 140026548863744 -->
<g id="node1" class="node">
<title>140026548863744</title>
<polygon fill="white" stroke="black" points="13655.6,-1061 13341.1,-1061 13341.1,-917 13655.6,-917 13655.6,-1061"/>
<text text-anchor="middle" x="13498.35" y="-965.38" font-family="sans" font-size="90.00">system</text>
</g>
<!-- 140026548896256 -->
<g id="node2" class="node">
<title>140026548896256</title>
<polygon fill="white" stroke="black" points="1758.22,-3149 1468.47,-3149 1468.47,-3005 1758.22,-3005 1758.22,-3149"/>
<text text-anchor="middle" x="1613.35" y="-3053.38" font-family="sans" font-size="90.00">profile</text>
</g>
<!-- 140026548896256&#45;&gt;140026548863744 -->
<g id="edge1" class="edge">
<title>140026548896256&#45;&gt;140026548863744</title>
<path fill="none" stroke="#00cdcd" d="M1758.53,-3050.52C3011.46,-2830.61 11983.32,-1255.91 13329.48,-1019.64"/>
<polygon fill="#00cdcd" stroke="#00cdcd" points="13329.93,-1023.11 13339.17,-1017.94 13328.72,-1016.22 13329.93,-1023.11"/>
</g>
<!-- 140026548897376 -->
<g id="node3" class="node">
<title>140026548897376</title>
<polygon fill="white" stroke="black" points="13571.35,-7325 13355.35,-7325 13355.35,-7181 13571.35,-7181 13571.35,-7325"/>
<text text-anchor="middle" x="13463.35" y="-7229.38" font-family="sans" font-size="90.00">etc</text>
</g>
<!-- 140026548897376&#45;&gt;140026548863744 -->
<g id="edge2" class="edge">
<title>140026548897376&#45;&gt;140026548863744</title>
<path fill="none" stroke="darkgoldenrod" d="M13463.33,-7180.71C13463.3,-6909.16 13463.49,-5913.39 13467.35,-5093 13474.96,-3474.27 13493.49,-1496.38 13497.55,-1072.42"/>
<polygon fill="darkgoldenrod" stroke="darkgoldenrod" points="13501.05,-1072.76 13497.64,-1062.73 13494.05,-1072.7 13501.05,-1072.76"/>
</g>
<!-- 140026364642400 -->
<g id="node4" class="node">
<title>140026364642400</title>
<polygon fill="white" stroke="black" points="13814.6,-5237 13470.1,-5237 13470.1,-5093 13814.6,-5093 13814.6,-5237"/>
<text text-anchor="middle" x="13642.35" y="-5141.38" font-family="sans" font-size="90.00">activate</text>
</g>
<!-- 140026548897376&#45;&gt;140026364642400 -->
<g id="edge127" class="edge">
<title>140026548897376&#45;&gt;140026364642400</title>
<path fill="none" stroke="darkgoldenrod" d="M13469.46,-7180.8C13496.6,-6864.49 13606.2,-5587.3 13635.25,-5248.72"/>
<polygon fill="darkgoldenrod" stroke="darkgoldenrod" points="13638.73,-5249.08 13636.1,-5238.82 13631.76,-5248.48 13638.73,-5249.08"/>
</g>
<!-- 140026364642400&#45;&gt;140026548863744 -->
<g id="edge3" class="edge">
<title>140026364642400&#45;&gt;140026548863744</title>
<path fill="none" stroke="darkviolet" d="M13635.88,-5092.7C13612.67,-4832.73 13533.45,-3911.12 13506.35,-3149 13477.57,-2339.92 13491.66,-1359.22 13496.76,-1072.44"/>
<polygon fill="darkviolet" stroke="darkviolet" points="13500.26,-1072.89 13496.94,-1062.83 13493.26,-1072.77 13500.26,-1072.89"/>
</g>
<!-- 140026364642688 -->
<g id="node5" class="node">
<title>140026364642688</title>
<polygon fill="white" stroke="black" points="13725.35,-3149 13509.35,-3149 13509.35,-3005 13725.35,-3005 13725.35,-3149"/>
<text text-anchor="middle" x="13617.35" y="-3053.38" font-family="sans" font-size="90.00">boot</text>
</g>
<!-- 140026364642400&#45;&gt;140026364642688 -->
<g id="edge149" class="edge">
<title>140026364642400&#45;&gt;140026364642688</title>
<path fill="none" stroke="darkviolet" d="M13641.49,-5092.8C13637.7,-4776.49 13622.4,-3499.3 13618.34,-3160.72"/>
<polygon fill="darkviolet" stroke="darkviolet" points="13621.84,-3160.78 13618.22,-3150.82 13614.84,-3160.86 13621.84,-3160.78"/>
</g>
<!-- 140026364642688&#45;&gt;140026548863744 -->
<g id="edge4" class="edge">
<title>140026364642688&#45;&gt;140026548863744</title>
<path fill="none" stroke="#8b7765" d="M13613.29,-3004.8C13595.24,-2688.49 13522.38,-1411.3 13503.07,-1072.72"/>
<polygon fill="#8b7765" stroke="#8b7765" points="13506.57,-1072.61 13502.5,-1062.82 13499.58,-1073 13506.57,-1072.61"/>
</g>
<!-- 140026548863552 -->
<g id="node6" class="node">
<title>140026548863552</title>
<polygon fill="white" stroke="black" points="14284.1,-3149 13732.6,-3149 13732.6,-3005 14284.1,-3005 14284.1,-3149"/>
<text text-anchor="middle" x="14008.35" y="-3053.38" font-family="sans" font-size="90.00">linux&#45;builder</text>
</g>
<!-- 140026548863552&#45;&gt;140026548863744 -->
<g id="edge5" class="edge">
<title>140026548863552&#45;&gt;140026548863744</title>
<path fill="none" stroke="#00cdcd" d="M13990.94,-3004.8C13913.59,-2688.41 13601.2,-1410.67 13518.51,-1072.47"/>
<polygon fill="#00cdcd" stroke="#00cdcd" points="13521.92,-1071.66 13516.14,-1062.78 13515.12,-1073.33 13521.92,-1071.66"/>
</g>
<!-- 140026548466144 -->
<g id="node7" class="node">
<title>140026548466144</title>
<polygon fill="white" stroke="black" points="1349.72,-11501 834.97,-11501 834.97,-11357 1349.72,-11357 1349.72,-11501"/>
<text text-anchor="middle" x="1092.35" y="-11405.38" font-family="sans" font-size="90.00">file&#45;systems</text>
</g>
<!-- 140026548466144&#45;&gt;140026548896256 -->
<g id="edge6" class="edge">
<title>140026548466144&#45;&gt;140026548896256</title>
<path fill="none" stroke="darkviolet" d="M1021.01,-11356.79C770.02,-11097.89 -53.22,-10174.18 24.35,-9269 185.16,-7392.42 208.83,-6898.43 745.35,-5093 977.68,-4311.19 1428.6,-3427.55 1569.91,-3159.36"/>
<polygon fill="darkviolet" stroke="darkviolet" points="1572.93,-3161.14 1574.5,-3150.66 1566.74,-3157.87 1572.93,-3161.14"/>
</g>
<!-- 140026365033536 -->
<g id="node9" class="node">
<title>140026365033536</title>
<polygon fill="white" stroke="black" points="5782.47,-5237 5158.22,-5237 5158.22,-5093 5782.47,-5093 5782.47,-5237"/>
<text text-anchor="middle" x="5470.35" y="-5141.38" font-family="sans" font-size="90.00">shepherd&#45;root</text>
</g>
<!-- 140026548466144&#45;&gt;140026365033536 -->
<g id="edge24" class="edge">
<title>140026548466144&#45;&gt;140026365033536</title>
<path fill="none" stroke="darkviolet" d="M1095.76,-11356.82C1122.2,-10808.23 1294.82,-7271.67 1355.35,-7181 2258.36,-5828.38 4343.69,-5351.05 5146.86,-5213.67"/>
<polygon fill="darkviolet" stroke="darkviolet" points="5147.24,-5217.15 5156.51,-5212.02 5146.07,-5210.25 5147.24,-5217.15"/>
</g>
<!-- 140026548505792 -->
<g id="node24" class="node">
<title>140026548505792</title>
<polygon fill="white" stroke="black" points="2067.97,-7325 1416.72,-7325 1416.72,-7181 2067.97,-7181 2067.97,-7325"/>
<text text-anchor="middle" x="1742.35" y="-7229.38" font-family="sans" font-size="90.00">user&#45;processes</text>
</g>
<!-- 140026548466144&#45;&gt;140026548505792 -->
<g id="edge66" class="edge">
<title>140026548466144&#45;&gt;140026548505792</title>
<path fill="none" stroke="darkviolet" d="M1140.34,-11356.79C1306.63,-11105.22 1857.9,-10229.38 2040.35,-9413 2218.89,-8614.11 1882.84,-7623.58 1774.44,-7335.86"/>
<polygon fill="darkviolet" stroke="darkviolet" points="1777.72,-7334.65 1770.91,-7326.53 1771.17,-7337.12 1777.72,-7334.65"/>
</g>
<!-- 140026548896512 -->
<g id="node64" class="node">
<title>140026548896512</title>
<polygon fill="white" stroke="black" points="8947.1,-9413 8719.6,-9413 8719.6,-9269 8947.1,-9269 8947.1,-9413"/>
<text text-anchor="middle" x="8833.35" y="-9317.38" font-family="sans" font-size="90.00">fstab</text>
</g>
<!-- 140026548466144&#45;&gt;140026548896512 -->
<g id="edge124" class="edge">
<title>140026548466144&#45;&gt;140026548896512</title>
<path fill="none" stroke="darkviolet" d="M1350.18,-11358.52C2580.23,-11027.06 7828.7,-9612.73 8708.1,-9375.75"/>
<polygon fill="darkviolet" stroke="darkviolet" points="8708.97,-9379.14 8717.72,-9373.16 8707.15,-9372.38 8708.97,-9379.14"/>
</g>
<!-- 140026548468864 -->
<g id="node8" class="node">
<title>140026548468864</title>
<polygon fill="white" stroke="black" points="1866.6,-5237 832.1,-5237 832.1,-5093 1866.6,-5093 1866.6,-5237"/>
<text text-anchor="middle" x="1349.35" y="-5141.38" font-family="sans" font-size="90.00">boot&#45;file&#45;system&#45;utilities</text>
</g>
<!-- 140026548468864&#45;&gt;140026548896256 -->
<g id="edge7" class="edge">
<title>140026548468864&#45;&gt;140026548896256</title>
<path fill="none" stroke="dimgrey" d="M1358.36,-5092.8C1398.39,-4776.49 1560.03,-3499.3 1602.88,-3160.72"/>
<polygon fill="dimgrey" stroke="dimgrey" points="1606.35,-3161.17 1604.13,-3150.81 1599.41,-3160.29 1606.35,-3161.17"/>
</g>
<!-- 140026365033536&#45;&gt;140026548896256 -->
<g id="edge8" class="edge">
<title>140026365033536&#45;&gt;140026548896256</title>
<path fill="none" stroke="#8b7765" d="M5338.42,-5092.65C4749.46,-4774.12 2362.9,-3483.38 1754.86,-3154.53"/>
<polygon fill="#8b7765" stroke="#8b7765" points="1756.96,-3151.69 1746.5,-3150.01 1753.63,-3157.85 1756.96,-3151.69"/>
</g>
<!-- 140026365033536&#45;&gt;140026364642688 -->
<g id="edge148" class="edge">
<title>140026365033536&#45;&gt;140026364642688</title>
<path fill="none" stroke="#8b7765" d="M5749.31,-5092.57C7063.7,-4756.03 12611.95,-3335.43 13497.85,-3108.6"/>
<polygon fill="#8b7765" stroke="#8b7765" points="13498.71,-3111.99 13507.53,-3106.12 13496.97,-3105.21 13498.71,-3111.99"/>
</g>
<!-- 140026340698720 -->
<g id="node10" class="node">
<title>140026340698720</title>
<polygon fill="white" stroke="black" points="2083.35,-11501 1867.35,-11501 1867.35,-11357 2083.35,-11357 2083.35,-11501"/>
<text text-anchor="middle" x="1975.35" y="-11405.38" font-family="sans" font-size="90.00">guix</text>
</g>
<!-- 140026340698720&#45;&gt;140026548896256 -->
<g id="edge9" class="edge">
<title>140026340698720&#45;&gt;140026548896256</title>
<path fill="none" stroke="blue" d="M1954.12,-11356.76C1876.82,-11097 1603.77,-10176 1390.35,-9413 1131.47,-8487.5 957.52,-8277.31 828.35,-7325 795.01,-7079.25 767.81,-5336.6 814.35,-5093 965.46,-4301.97 1422.26,-3425.39 1568.08,-3159.04"/>
<polygon fill="blue" stroke="blue" points="1571.09,-3160.85 1572.83,-3150.4 1564.95,-3157.49 1571.09,-3160.85"/>
</g>
<!-- 140026340698720&#45;&gt;140026364642400 -->
<g id="edge132" class="edge">
<title>140026340698720&#45;&gt;140026364642400</title>
<path fill="none" stroke="blue" d="M1975.5,-11356.66C1976.91,-11000.65 1991.27,-9427.03 2134.35,-9269 5508.19,-5542.61 9808.87,-10964.43 13276.35,-7325 13298.59,-7301.65 13289.6,-7212.9 13294.35,-7181 13406.41,-6427.71 13575.04,-5521.92 13626.73,-5248.21"/>
<polygon fill="blue" stroke="blue" points="13630.11,-5249.16 13628.53,-5238.68 13623.24,-5247.86 13630.11,-5249.16"/>
</g>
<!-- 140026340698720&#45;&gt;140026365033536 -->
<g id="edge37" class="edge">
<title>140026340698720&#45;&gt;140026365033536</title>
<path fill="none" stroke="blue" d="M1947.07,-11356.84C1846.77,-11100.12 1508.17,-10195.42 1398.35,-9413 1391.73,-9365.84 1309.96,-7334.17 1405.35,-7181 2256.91,-5813.56 4342.25,-5344.96 5146.57,-5211.79"/>
<polygon fill="blue" stroke="blue" points="5146.94,-5215.28 5156.24,-5210.2 5145.8,-5208.37 5146.94,-5215.28"/>
</g>
<!-- 140026548899552 -->
<g id="node26" class="node">
<title>140026548899552</title>
<polygon fill="white" stroke="black" points="11810.97,-9413 11459.72,-9413 11459.72,-9269 11810.97,-9269 11810.97,-9413"/>
<text text-anchor="middle" x="11635.35" y="-9317.38" font-family="sans" font-size="90.00">account</text>
</g>
<!-- 140026340698720&#45;&gt;140026548899552 -->
<g id="edge69" class="edge">
<title>140026340698720&#45;&gt;140026548899552</title>
<path fill="none" stroke="blue" d="M2083.83,-11404.57C3051.58,-11195.6 10196.58,-9652.69 11448.42,-9382.37"/>
<polygon fill="blue" stroke="blue" points="11448.79,-9385.87 11457.82,-9380.33 11447.31,-9379.02 11448.79,-9385.87"/>
</g>
<!-- 140026548420416 -->
<g id="node11" class="node">
<title>140026548420416</title>
<polygon fill="white" stroke="black" points="3684.35,-13588 3468.35,-13588 3468.35,-13444 3684.35,-13444 3684.35,-13588"/>
<text text-anchor="middle" x="3576.35" y="-13492.38" font-family="sans" font-size="90.00">nix</text>
</g>
<!-- 140026548420416&#45;&gt;140026548896256 -->
<g id="edge10" class="edge">
<title>140026548420416&#45;&gt;140026548896256</title>
<path fill="none" stroke="#8b7765" d="M3492.77,-13443.73C3214.77,-13201.89 2313.35,-12378.69 1863.35,-11501 990.99,-9799.55 1060.83,-9222.98 829.35,-7325 703.84,-6295.88 1617.26,-6242.63 1869.35,-5237 1920.77,-5031.86 1685.96,-3531.21 1626.67,-3160.58"/>
<polygon fill="#8b7765" stroke="#8b7765" points="1630.16,-3160.25 1625.12,-3150.93 1623.24,-3161.35 1630.16,-3160.25"/>
</g>
<!-- 140026548420416&#45;&gt;140026548897376 -->
<g id="edge118" class="edge">
<title>140026548420416&#45;&gt;140026548897376</title>
<path fill="none" stroke="#8b7765" d="M3684.66,-13512.54C4309.34,-13491.91 7470.65,-13298.98 8804.35,-11501 8822.87,-11476.03 8950.49,-9294.44 8968.35,-9269 10186.66,-7533.98 11411.69,-8239.5 13324.35,-7325 13331.08,-7321.78 13337.98,-7318.43 13344.92,-7315.02"/>
<polygon fill="#8b7765" stroke="#8b7765" points="13346.34,-7318.22 13353.75,-7310.65 13343.24,-7311.94 13346.34,-7318.22"/>
</g>
<!-- 140026548420416&#45;&gt;140026364642400 -->
<g id="edge133" class="edge">
<title>140026548420416&#45;&gt;140026364642400</title>
<path fill="none" stroke="#8b7765" d="M3653.65,-13443.56C3952.04,-13168.39 5059.31,-12152.87 6006.35,-11357 7148.13,-10397.47 7349.19,-10027.48 8633.35,-9269 10564.52,-8128.37 11939.37,-9115.35 13290.35,-7325 13309.76,-7299.28 13302.82,-7212.9 13307.35,-7181 13414.36,-6427.79 13577.27,-5521.95 13627.25,-5248.22"/>
<polygon fill="#8b7765" stroke="#8b7765" points="13630.63,-5249.15 13628.99,-5238.69 13623.75,-5247.9 13630.63,-5249.15"/>
</g>
<!-- 140026548420416&#45;&gt;140026548466144 -->
<g id="edge21" class="edge">
<title>140026548420416&#45;&gt;140026548466144</title>
<path fill="none" stroke="#8b7765" d="M3491.2,-13443.53C3112.33,-13125.52 1580.98,-11840.15 1185.78,-11508.42"/>
<polygon fill="#8b7765" stroke="#8b7765" points="1188.29,-11505.96 1178.38,-11502.21 1183.79,-11511.32 1188.29,-11505.96"/>
</g>
<!-- 140026548420416&#45;&gt;140026365033536 -->
<g id="edge50" class="edge">
<title>140026548420416&#45;&gt;140026365033536</title>
<path fill="none" stroke="#8b7765" d="M3498.78,-13443.81C3242.04,-13202.24 2420,-12379.78 2134.35,-11501 2097.25,-11386.87 2045.17,-7285.4 2104.35,-7181 2779.13,-5990.6 4467.93,-5427.59 5163.54,-5240.4"/>
<polygon fill="#8b7765" stroke="#8b7765" points="5164.25,-5243.83 5173.01,-5237.86 5162.44,-5237.07 5164.25,-5243.83"/>
</g>
<!-- 140026548420416&#45;&gt;140026548899552 -->
<g id="edge70" class="edge">
<title>140026548420416&#45;&gt;140026548899552</title>
<path fill="none" stroke="#8b7765" d="M3684.61,-13508.27C4615.67,-13447.94 11266.33,-12968.05 12437.35,-11501 12577.4,-11325.54 11854.48,-9796.32 11674.94,-9423.63"/>
<polygon fill="#8b7765" stroke="#8b7765" points="11678.2,-9422.32 11670.7,-9414.83 11671.89,-9425.36 11678.2,-9422.32"/>
</g>
<!-- 140026548411968 -->
<g id="node12" class="node">
<title>140026548411968</title>
<polygon fill="white" stroke="black" points="12434.22,-11501 12060.47,-11501 12060.47,-11357 12434.22,-11357 12434.22,-11501"/>
<text text-anchor="middle" x="12247.35" y="-11405.38" font-family="sans" font-size="90.00">openssh</text>
</g>
<!-- 140026548411968&#45;&gt;140026548896256 -->
<g id="edge11" class="edge">
<title>140026548411968&#45;&gt;140026548896256</title>
<path fill="none" stroke="red" d="M12109.52,-11356.52C11566.44,-11072.01 9586.66,-10006.73 9225.35,-9413 9191.87,-9357.99 9251.16,-9317.97 9209.35,-9269 7091.05,-6788.02 4238.08,-9815.8 2131.35,-7325 1970.37,-7134.67 1934.78,-5340.41 1904.35,-5093 1811.78,-4340.42 1670,-3434.15 1626.5,-3160.26"/>
<polygon fill="red" stroke="red" points="1630.01,-3160.06 1624.98,-3150.74 1623.1,-3161.16 1630.01,-3160.06"/>
</g>
<!-- 140026548411968&#45;&gt;140026364642400 -->
<g id="edge136" class="edge">
<title>140026548411968&#45;&gt;140026364642400</title>
<path fill="none" stroke="red" d="M12317.31,-11356.58C12551.58,-11111.85 13308.6,-10274.57 13574.35,-9413 13606.2,-9309.72 13636.76,-5831.87 13641.66,-5248.6"/>
<polygon fill="red" stroke="red" points="13645.16,-5248.92 13641.75,-5238.89 13638.16,-5248.86 13645.16,-5248.92"/>
</g>
<!-- 140026548411968&#45;&gt;140026365033536 -->
<g id="edge54" class="edge">
<title>140026548411968&#45;&gt;140026365033536</title>
<path fill="none" stroke="red" d="M12163.21,-11356.55C11818.24,-11066.16 10471.26,-9957.1 9222.35,-9269 7218.68,-8165.06 5732.44,-9223.67 4456.35,-7325 4326.69,-7132.09 5204.38,-5616.94 5422.23,-5247.18"/>
<polygon fill="red" stroke="red" points="5425.19,-5249.05 5427.25,-5238.66 5419.16,-5245.5 5425.19,-5249.05"/>
</g>
<!-- 140026548411968&#45;&gt;140026548899552 -->
<g id="edge75" class="edge">
<title>140026548411968&#45;&gt;140026548899552</title>
<path fill="none" stroke="red" d="M12226.46,-11356.8C12133.61,-11040.33 11758.58,-9762.04 11659.47,-9424.22"/>
<polygon fill="red" stroke="red" points="11662.87,-9423.37 11656.7,-9414.76 11656.15,-9425.34 11662.87,-9423.37"/>
</g>
<!-- 140026548863072 -->
<g id="node27" class="node">
<title>140026548863072</title>
<polygon fill="white" stroke="black" points="13869.35,-9413 13653.35,-9413 13653.35,-9269 13869.35,-9269 13869.35,-9413"/>
<text text-anchor="middle" x="13761.35" y="-9317.38" font-family="sans" font-size="90.00">pam</text>
</g>
<!-- 140026548411968&#45;&gt;140026548863072 -->
<g id="edge99" class="edge">
<title>140026548411968&#45;&gt;140026548863072</title>
<path fill="none" stroke="red" d="M12299.03,-11356.8C12529.11,-11039.78 13459.7,-9757.62 13702.94,-9422.47"/>
<polygon fill="red" stroke="red" points="13705.66,-9424.68 13708.7,-9414.54 13700,-9420.57 13705.66,-9424.68"/>
</g>
<!-- 140026548377216 -->
<g id="node13" class="node">
<title>140026548377216</title>
<polygon fill="white" stroke="black" points="12779.6,-15676 12525.1,-15676 12525.1,-15532 12779.6,-15532 12779.6,-15676"/>
<text text-anchor="middle" x="12652.35" y="-15580.38" font-family="sans" font-size="90.00">libvirt</text>
</g>
<!-- 140026548377216&#45;&gt;140026548896256 -->
<g id="edge12" class="edge">
<title>140026548377216&#45;&gt;140026548896256</title>
<path fill="none" stroke="magenta" d="M12524.83,-15602.63C11350.13,-15596.31 2419.11,-15485.76 799.35,-13588 176.66,-12858.44 776.35,-12389.17 776.35,-11430 776.35,-11430 776.35,-11430 776.35,-7252 776.35,-6772.22 692.42,-5563.5 786.35,-5093 944.68,-4299.9 1415.68,-3425.57 1566.4,-3159.3"/>
<polygon fill="magenta" stroke="magenta" points="1569.42,-3161.07 1571.31,-3150.65 1563.33,-3157.62 1569.42,-3161.07"/>
</g>
<!-- 140026548377216&#45;&gt;140026548897376 -->
<g id="edge119" class="edge">
<title>140026548377216&#45;&gt;140026548897376</title>
<path fill="none" stroke="magenta" d="M12658.04,-15531.54C12711.91,-14855.13 13131,-9597.18 13168.35,-9269 13254.12,-8515.4 13403.3,-7609.82 13449.38,-7336.18"/>
<polygon fill="magenta" stroke="magenta" points="13452.78,-7337.11 13450.99,-7326.66 13445.87,-7335.94 13452.78,-7337.11"/>
</g>
<!-- 140026548377216&#45;&gt;140026364642400 -->
<g id="edge137" class="edge">
<title>140026548377216&#45;&gt;140026364642400</title>
<path fill="none" stroke="magenta" d="M12688.28,-15531.53C12815.31,-15275.55 13246.77,-14377.75 13454.35,-13588 13691.38,-12686.19 13843.25,-10344.95 13873.35,-9413 13875.41,-9349.03 13876.15,-9332.94 13873.35,-9269 13835.31,-8402.5 13752.42,-8190.89 13702.35,-7325 13655.59,-6516.45 13645.02,-5535.39 13642.86,-5248.48"/>
<polygon fill="magenta" stroke="magenta" points="13646.36,-5248.84 13642.79,-5238.87 13639.36,-5248.89 13646.36,-5248.84"/>
</g>
<!-- 140026548377216&#45;&gt;140026365033536 -->
<g id="edge55" class="edge">
<title>140026548377216&#45;&gt;140026365033536</title>
<path fill="none" stroke="magenta" d="M12525,-15560.54C11461.1,-15197.47 4042.89,-12502.27 2119.35,-7325 2108.2,-7295 2103.6,-7208.85 2119.35,-7181 2791.27,-5992.92 4474.84,-5428.11 5166.46,-5240.42"/>
<polygon fill="magenta" stroke="magenta" points="5167.13,-5243.86 5175.86,-5237.87 5165.3,-5237.1 5167.13,-5243.86"/>
</g>
<!-- 140026548377216&#45;&gt;140026548899552 -->
<g id="edge76" class="edge">
<title>140026548377216&#45;&gt;140026548899552</title>
<path fill="none" stroke="magenta" d="M12643.67,-15531.76C12612.5,-15272.03 12506.03,-14351.11 12468.35,-13588 12419.44,-12597.62 12644.65,-12329.56 12451.35,-11357 12293.99,-10565.27 11830.01,-9690.02 11681.58,-9423.41"/>
<polygon fill="magenta" stroke="magenta" points="11684.68,-9421.78 11676.75,-9414.75 11678.56,-9425.19 11684.68,-9421.78"/>
</g>
<!-- 140026548401792 -->
<g id="node55" class="node">
<title>140026548401792</title>
<polygon fill="white" stroke="black" points="14010.85,-13588 13757.85,-13588 13757.85,-13444 14010.85,-13444 14010.85,-13588"/>
<text text-anchor="middle" x="13884.35" y="-13492.38" font-family="sans" font-size="90.00">polkit</text>
</g>
<!-- 140026548377216&#45;&gt;140026548401792 -->
<g id="edge91" class="edge">
<title>140026548377216&#45;&gt;140026548401792</title>
<path fill="none" stroke="magenta" d="M12694.4,-15531.8C12881.54,-15214.94 13638.14,-13933.88 13836.53,-13597.97"/>
<polygon fill="magenta" stroke="magenta" points="13839.39,-13600 13841.46,-13589.61 13833.36,-13596.44 13839.39,-13600"/>
</g>
<!-- 140026548400736 -->
<g id="node14" class="node">
<title>140026548400736</title>
<polygon fill="white" stroke="black" points="6316.47,-11501 6010.22,-11501 6010.22,-11357 6316.47,-11357 6316.47,-11501"/>
<text text-anchor="middle" x="6163.35" y="-11405.38" font-family="sans" font-size="90.00">docker</text>
</g>
<!-- 140026548400736&#45;&gt;140026548896256 -->
<g id="edge13" class="edge">
<title>140026548400736&#45;&gt;140026548896256</title>
<path fill="none" stroke="red" d="M6009.79,-11357.13C5312.02,-11025.37 2430.49,-9547.67 1413.35,-7325 990.96,-6402 1968.35,-6105.57 1897.35,-5093 1844.36,-4337.4 1680.92,-3434.08 1629.21,-3160.46"/>
<polygon fill="red" stroke="red" points="1632.7,-3160.11 1627.41,-3150.94 1625.83,-3161.42 1632.7,-3160.11"/>
</g>
<!-- 140026548400736&#45;&gt;140026364642400 -->
<g id="edge138" class="edge">
<title>140026548400736&#45;&gt;140026364642400</title>
<path fill="none" stroke="red" d="M6231.23,-11356.65C6512.41,-11064.3 7622.38,-9941.79 8716.35,-9269 10602.75,-8108.85 11941.9,-9070.91 13304.35,-7325 13337.26,-7282.83 13574.63,-5638.48 13630.56,-5248.38"/>
<polygon fill="red" stroke="red" points="13634,-5249.11 13631.95,-5238.71 13627.07,-5248.11 13634,-5249.11"/>
</g>
<!-- 140026548400736&#45;&gt;140026365033536 -->
<g id="edge56" class="edge">
<title>140026548400736&#45;&gt;140026365033536</title>
<path fill="none" stroke="red" d="M6070.51,-11356.62C5606.1,-10992.87 3529.78,-9285.88 2834.35,-7325 2616.1,-6709.62 4734.36,-5550.13 5321.79,-5242.51"/>
<polygon fill="red" stroke="red" points="5323.02,-5245.82 5330.25,-5238.09 5319.77,-5239.62 5323.02,-5245.82"/>
</g>
<!-- 140026548400736&#45;&gt;140026548899552 -->
<g id="edge77" class="edge">
<title>140026548400736&#45;&gt;140026548899552</title>
<path fill="none" stroke="red" d="M6316.85,-11369.48C7094.84,-11072.9 10598.54,-9737.25 11448.95,-9413.06"/>
<polygon fill="red" stroke="red" points="11449.93,-9416.43 11458.03,-9409.6 11447.44,-9409.89 11449.93,-9416.43"/>
</g>
<!-- 140026548400768 -->
<g id="node15" class="node">
<title>140026548400768</title>
<polygon fill="white" stroke="black" points="1304.72,-7325 831.97,-7325 831.97,-7181 1304.72,-7181 1304.72,-7325"/>
<text text-anchor="middle" x="1068.35" y="-7229.38" font-family="sans" font-size="90.00">containerd</text>
</g>
<!-- 140026548400768&#45;&gt;140026548896256 -->
<g id="edge14" class="edge">
<title>140026548400768&#45;&gt;140026548896256</title>
<path fill="none" stroke="magenta" d="M1054.79,-7180.6C993.8,-6855.01 751.28,-5508.93 829.35,-5093 977.53,-4303.49 1425.82,-3425.89 1568.93,-3159.17"/>
<polygon fill="magenta" stroke="magenta" points="1571.93,-3160.98 1573.58,-3150.52 1565.76,-3157.67 1571.93,-3160.98"/>
</g>
<!-- 140026548400768&#45;&gt;140026365033536 -->
<g id="edge57" class="edge">
<title>140026548400768&#45;&gt;140026365033536</title>
<path fill="none" stroke="magenta" d="M1218.92,-7180.65C1891.25,-6862.05 4616.13,-5570.79 5309.32,-5242.31"/>
<polygon fill="magenta" stroke="magenta" points="5310.72,-5245.52 5318.25,-5238.07 5307.72,-5239.19 5310.72,-5245.52"/>
</g>
<!-- 140026548401888 -->
<g id="node16" class="node">
<title>140026548401888</title>
<polygon fill="white" stroke="black" points="12809.6,-13588 12471.1,-13588 12471.1,-13444 12809.6,-13444 12809.6,-13588"/>
<text text-anchor="middle" x="12640.35" y="-13492.38" font-family="sans" font-size="90.00">upower</text>
</g>
<!-- 140026548401888&#45;&gt;140026548896256 -->
<g id="edge15" class="edge">
<title>140026548401888&#45;&gt;140026548896256</title>
<path fill="none" stroke="darkseagreen" d="M12470.87,-13483.41C11697.84,-13335.3 8439.22,-12667.43 6006.35,-11501 4523.04,-10789.84 4142.36,-10546.61 2950.35,-9413 2105.89,-8609.91 1736.24,-8429.42 1364.35,-7325 1039.49,-6360.26 1944.86,-6108.79 1878.35,-5093 1828.89,-4337.69 1676.23,-3433.27 1628.07,-3160.05"/>
<polygon fill="darkseagreen" stroke="darkseagreen" points="1631.57,-3159.78 1626.39,-3150.54 1624.68,-3161 1631.57,-3159.78"/>
</g>
<!-- 140026548401888&#45;&gt;140026364642400 -->
<g id="edge141" class="edge">
<title>140026548401888&#45;&gt;140026364642400</title>
<path fill="none" stroke="darkseagreen" d="M12679.77,-13443.77C12818.27,-13189.49 13284.44,-12299.09 13473.35,-11501 13526.93,-11274.64 13615.73,-9645.41 13625.35,-9413 13663.72,-8485.75 13641.68,-8253.04 13646.35,-7325 13646.67,-7261 13646.41,-7245 13646.35,-7181 13645.6,-6430.9 13643.3,-5523.74 13642.57,-5248.84"/>
<polygon fill="darkseagreen" stroke="darkseagreen" points="13646.07,-5248.89 13642.55,-5238.9 13639.07,-5248.91 13646.07,-5248.89"/>
</g>
<!-- 140026548401888&#45;&gt;140026365033536 -->
<g id="edge61" class="edge">
<title>140026548401888&#45;&gt;140026365033536</title>
<path fill="none" stroke="darkseagreen" d="M12640.71,-13443.83C12640.85,-13170.7 12629.62,-12164.45 12467.35,-11357 12371.77,-10881.4 11738.36,-9745.31 11830.35,-9269 12006.88,-8354.94 12433.81,-8239.06 12610.35,-7325 12616.42,-7293.58 12629.66,-7206.52 12610.35,-7181 11753.23,-6048.51 7073.93,-5371.83 5794.05,-5206.09"/>
<polygon fill="darkseagreen" stroke="darkseagreen" points="5794.72,-5202.65 5784.35,-5204.83 5793.82,-5209.59 5794.72,-5202.65"/>
</g>
<!-- 140026340697472 -->
<g id="node29" class="node">
<title>140026340697472</title>
<polygon fill="white" stroke="black" points="9206.1,-9413 8984.6,-9413 8984.6,-9269 9206.1,-9269 9206.1,-9413"/>
<text text-anchor="middle" x="9095.35" y="-9317.38" font-family="sans" font-size="90.00">udev</text>
</g>
<!-- 140026548401888&#45;&gt;140026340697472 -->
<g id="edge106" class="edge">
<title>140026548401888&#45;&gt;140026340697472</title>
<path fill="none" stroke="darkseagreen" d="M12470.66,-13483.26C11865.29,-13359.83 9805.51,-12850 9011.35,-11501 8957.8,-11410.04 9063.37,-9809.8 9089.63,-9424.8"/>
<polygon fill="darkseagreen" stroke="darkseagreen" points="9093.11,-9425.22 9090.3,-9415.01 9086.13,-9424.75 9093.11,-9425.22"/>
</g>
<!-- 140026548401760 -->
<g id="node52" class="node">
<title>140026548401760</title>
<polygon fill="white" stroke="black" points="13997.97,-11501 13772.72,-11501 13772.72,-11357 13997.97,-11357 13997.97,-11501"/>
<text text-anchor="middle" x="13885.35" y="-11405.38" font-family="sans" font-size="90.00">dbus</text>
</g>
<!-- 140026548401888&#45;&gt;140026548401760 -->
<g id="edge86" class="edge">
<title>140026548401888&#45;&gt;140026548401760</title>
<path fill="none" stroke="darkseagreen" d="M12683.02,-13443.53C12872.45,-13126.3 13636.67,-11846.46 13837.05,-11510.89"/>
<polygon fill="darkseagreen" stroke="darkseagreen" points="13839.91,-11512.92 13842.03,-11502.54 13833.9,-11509.33 13839.91,-11512.92"/>
</g>
<!-- 140026548401920 -->
<g id="node17" class="node">
<title>140026548401920</title>
<polygon fill="white" stroke="black" points="14568.22,-15676 14284.47,-15676 14284.47,-15532 14568.22,-15532 14568.22,-15676"/>
<text text-anchor="middle" x="14426.35" y="-15580.38" font-family="sans" font-size="90.00">udisks</text>
</g>
<!-- 140026548401920&#45;&gt;140026548896256 -->
<g id="edge16" class="edge">
<title>140026548401920&#45;&gt;140026548896256</title>
<path fill="none" stroke="darkseagreen" d="M14430.68,-15531.66C14448.02,-15258.91 14518.66,-14256.61 14666.35,-13444 14794.56,-12738.54 16518.76,-7833.43 16221.35,-7181 15634.48,-5893.6 15098.74,-5695 13818.35,-5093 11517.17,-4011.06 3029.82,-3206.59 1770.08,-3092.04"/>
<polygon fill="darkseagreen" stroke="darkseagreen" points="1770.49,-3088.56 1760.22,-3091.14 1769.86,-3095.53 1770.49,-3088.56"/>
</g>
<!-- 140026548401920&#45;&gt;140026364642400 -->
<g id="edge142" class="edge">
<title>140026548401920&#45;&gt;140026364642400</title>
<path fill="none" stroke="darkseagreen" d="M14431,-15531.52C14456.7,-15132.01 14581.73,-13134.98 14620.35,-11501 14665.2,-9603.38 13968.46,-9207.51 13725.35,-7325 13672.04,-6912.22 13648.78,-5592.7 13643.54,-5248.67"/>
<polygon fill="darkseagreen" stroke="darkseagreen" points="13647.04,-5248.78 13643.39,-5238.84 13640.04,-5248.89 13647.04,-5248.78"/>
</g>
<!-- 140026548401920&#45;&gt;140026340697472 -->
<g id="edge107" class="edge">
<title>140026548401920&#45;&gt;140026340697472</title>
<path fill="none" stroke="darkseagreen" d="M14364.16,-15531.62C14149.82,-15282.04 13433.87,-14418.51 13049.35,-13588 13035.85,-13558.84 12456.74,-11382.62 12437.35,-11357 11535.13,-10165.19 9705.73,-9531.01 9217.44,-9378.51"/>
<polygon fill="darkseagreen" stroke="darkseagreen" points="9218.54,-9375.19 9207.95,-9375.56 9216.46,-9381.87 9218.54,-9375.19"/>
</g>
<!-- 140026548401920&#45;&gt;140026548401760 -->
<g id="edge87" class="edge">
<title>140026548401920&#45;&gt;140026548401760</title>
<path fill="none" stroke="darkseagreen" d="M14417.13,-15531.88C14352.3,-15031.82 13965.49,-12048.14 13896.03,-11512.37"/>
<polygon fill="darkseagreen" stroke="darkseagreen" points="13899.54,-11512.25 13894.78,-11502.78 13892.6,-11513.15 13899.54,-11512.25"/>
</g>
<!-- 140026548401920&#45;&gt;140026548401792 -->
<g id="edge93" class="edge">
<title>140026548401920&#45;&gt;140026548401792</title>
<path fill="none" stroke="darkseagreen" d="M14407.85,-15531.8C14325.62,-15215.33 13993.48,-13937.04 13905.71,-13599.22"/>
<polygon fill="darkseagreen" stroke="darkseagreen" points="13909.16,-13598.57 13903.26,-13589.77 13902.38,-13600.33 13909.16,-13598.57"/>
</g>
<!-- 140026548401952 -->
<g id="node18" class="node">
<title>140026548401952</title>
<polygon fill="white" stroke="black" points="2405.72,-13588 1746.97,-13588 1746.97,-13444 2405.72,-13444 2405.72,-13588"/>
<text text-anchor="middle" x="2076.35" y="-13492.38" font-family="sans" font-size="90.00">wpa&#45;supplicant</text>
</g>
<!-- 140026548401952&#45;&gt;140026548896256 -->
<g id="edge17" class="edge">
<title>140026548401952&#45;&gt;140026548896256</title>
<path fill="none" stroke="darkviolet" d="M2011.5,-13443.54C1792.68,-13197.06 1081.35,-12350.84 831.35,-11501 560.5,-10580.29 791.35,-10301.72 791.35,-9342 791.35,-9342 791.35,-9342 791.35,-7252 791.35,-7012.11 754.14,-5328.4 800.35,-5093 955.75,-4301.31 1418.95,-3426.04 1567.18,-3159.42"/>
<polygon fill="darkviolet" stroke="darkviolet" points="1570.19,-3161.2 1572,-3150.76 1564.08,-3157.79 1570.19,-3161.2"/>
</g>
<!-- 140026548401952&#45;&gt;140026365033536 -->
<g id="edge62" class="edge">
<title>140026548401952&#45;&gt;140026365033536</title>
<path fill="none" stroke="darkviolet" d="M2060.01,-13443.69C1969.85,-13046.11 1532.03,-11061.76 1390.35,-9413 1379.73,-9289.45 1312.84,-7286.28 1378.35,-7181 2234.87,-5804.49 4338.58,-5340.92 5146.81,-5210.45"/>
<polygon fill="darkviolet" stroke="darkviolet" points="5147.21,-5213.93 5156.53,-5208.89 5146.1,-5207.02 5147.21,-5213.93"/>
</g>
<!-- 140026548401952&#45;&gt;140026548401760 -->
<g id="edge88" class="edge">
<title>140026548401952&#45;&gt;140026548401760</title>
<path fill="none" stroke="darkviolet" d="M2405.86,-13444.67C2407.02,-13444.45 2408.19,-13444.22 2409.35,-13444 7426.52,-12479.34 8875.74,-13065.57 13739.35,-11501 13746.73,-11498.62 13754.22,-11495.94 13761.7,-11493.04"/>
<polygon fill="darkviolet" stroke="darkviolet" points="13762.87,-11496.34 13770.85,-11489.36 13760.27,-11489.84 13762.87,-11496.34"/>
</g>
<!-- 140026548401984 -->
<g id="node19" class="node">
<title>140026548401984</title>
<polygon fill="white" stroke="black" points="15509.72,-15676 14730.97,-15676 14730.97,-15532 15509.72,-15532 15509.72,-15676"/>
<text text-anchor="middle" x="15120.35" y="-15580.38" font-family="sans" font-size="90.00">network&#45;manager</text>
</g>
<!-- 140026548401984&#45;&gt;140026548896256 -->
<g id="edge18" class="edge">
<title>140026548401984&#45;&gt;140026548896256</title>
<path fill="none" stroke="#8b7765" d="M15155.2,-15531.77C15279.01,-15275.72 15701.8,-14375.38 15917.35,-13588 16173.75,-12651.38 16259.35,-12401.08 16259.35,-11430 16259.35,-11430 16259.35,-11430 16259.35,-7252 16259.35,-5851.59 15224.17,-5704.55 13964.35,-5093 11648.63,-3968.88 3037.62,-3199.36 1769.69,-3091.12"/>
<polygon fill="#8b7765" stroke="#8b7765" points="1770.02,-3087.64 1759.76,-3090.28 1769.42,-3094.61 1770.02,-3087.64"/>
</g>
<!-- 140026548401984&#45;&gt;140026364642400 -->
<g id="edge143" class="edge">
<title>140026548401984&#45;&gt;140026364642400</title>
<path fill="none" stroke="#8b7765" d="M15154.91,-15531.52C15343.96,-15133.77 16244.35,-13149.12 16244.35,-11430 16244.35,-11430 16244.35,-11430 16244.35,-9340 16244.35,-9100.1 16327.66,-7396.06 16221.35,-7181 15697.73,-6121.75 14323,-5453.77 13825.44,-5240.35"/>
<polygon fill="#8b7765" stroke="#8b7765" points="13826.89,-5237.17 13816.32,-5236.45 13824.14,-5243.6 13826.89,-5237.17"/>
</g>
<!-- 140026548401984&#45;&gt;140026365033536 -->
<g id="edge63" class="edge">
<title>140026548401984&#45;&gt;140026365033536</title>
<path fill="none" stroke="#8b7765" d="M15140.8,-15531.94C15214.14,-15273.74 15465.42,-14359.85 15574.35,-13588 15708.6,-12636.66 15701.35,-12390.77 15701.35,-11430 15701.35,-11430 15701.35,-11430 15701.35,-9340 15701.35,-9280.03 15731.52,-7227.26 15693.35,-7181 14389.35,-5600.86 7389.76,-5239.45 5794.23,-5177.15"/>
<polygon fill="#8b7765" stroke="#8b7765" points="5794.55,-5173.66 5784.42,-5176.77 5794.27,-5180.66 5794.55,-5173.66"/>
</g>
<!-- 140026548401984&#45;&gt;140026548899552 -->
<g id="edge81" class="edge">
<title>140026548401984&#45;&gt;140026548899552</title>
<path fill="none" stroke="#8b7765" d="M15100.11,-15531.79C14987.27,-15133.77 14426.71,-13143.38 14032.35,-11501 14017.06,-11437.34 14034.93,-11413.19 14001.35,-11357 13419.62,-10383.65 12198.39,-9650.39 11779.76,-9419.04"/>
<polygon fill="#8b7765" stroke="#8b7765" points="11781.49,-9415.99 11771.05,-9414.23 11778.11,-9422.12 11781.49,-9415.99"/>
</g>
<!-- 140026548401984&#45;&gt;140026548401760 -->
<g id="edge89" class="edge">
<title>140026548401984&#45;&gt;140026548401760</title>
<path fill="none" stroke="#8b7765" d="M15099.3,-15531.88C14951.27,-15031.69 14067.85,-12046.67 13909.61,-11511.97"/>
<polygon fill="#8b7765" stroke="#8b7765" points="13913.07,-11511.33 13906.87,-11502.73 13906.35,-11513.31 13913.07,-11511.33"/>
</g>
<!-- 140026548401984&#45;&gt;140026548401792 -->
<g id="edge94" class="edge">
<title>140026548401984&#45;&gt;140026548401792</title>
<path fill="none" stroke="#8b7765" d="M15078.16,-15531.8C14890.41,-15214.94 14131.36,-13933.88 13932.32,-13597.97"/>
<polygon fill="#8b7765" stroke="#8b7765" points="13935.48,-13596.43 13927.37,-13589.61 13929.46,-13600 13935.48,-13596.43"/>
</g>
<!-- 140026548896384 -->
<g id="node63" class="node">
<title>140026548896384</title>
<polygon fill="white" stroke="black" points="15571.22,-13588 14669.47,-13588 14669.47,-13444 15571.22,-13444 15571.22,-13588"/>
<text text-anchor="middle" x="15120.35" y="-13492.38" font-family="sans" font-size="90.00">session&#45;environment</text>
</g>
<!-- 140026548401984&#45;&gt;140026548896384 -->
<g id="edge123" class="edge">
<title>140026548401984&#45;&gt;140026548896384</title>
<path fill="none" stroke="#8b7765" d="M15120.35,-15531.8C15120.35,-15215.49 15120.35,-13938.3 15120.35,-13599.72"/>
<polygon fill="#8b7765" stroke="#8b7765" points="15123.85,-13599.82 15120.35,-13589.82 15116.85,-13599.82 15123.85,-13599.82"/>
</g>
<!-- 140026548402688 -->
<g id="node20" class="node">
<title>140026548402688</title>
<polygon fill="white" stroke="black" points="9148.72,-15676 8813.97,-15676 8813.97,-15532 9148.72,-15532 9148.72,-15676"/>
<text text-anchor="middle" x="8981.35" y="-15580.38" font-family="sans" font-size="90.00">elogind</text>
</g>
<!-- 140026548402688&#45;&gt;140026548896256 -->
<g id="edge19" class="edge">
<title>140026548402688&#45;&gt;140026548896256</title>
<path fill="none" stroke="#00cdcd" d="M8813.87,-15584.77C7749.46,-15465.74 1931.98,-14767.22 674.35,-13588 -58.54,-12900.81 1.35,-12434.67 1.35,-11430 1.35,-11430 1.35,-11430 1.35,-7252 1.35,-5488.48 1269.02,-3570.28 1556.05,-3158.57"/>
<polygon fill="#00cdcd" stroke="#00cdcd" points="1558.72,-3160.85 1561.58,-3150.65 1552.98,-3156.85 1558.72,-3160.85"/>
</g>
<!-- 140026548402688&#45;&gt;140026548897376 -->
<g id="edge122" class="edge">
<title>140026548402688&#45;&gt;140026548897376</title>
<path fill="none" stroke="#00cdcd" d="M8980.81,-15531.6C8975.7,-14838.91 8936.52,-9338.18 8981.35,-9269 10131.37,-7494.26 11416.95,-8238.29 13324.35,-7325 13331.08,-7321.78 13337.97,-7318.42 13344.92,-7315.01"/>
<polygon fill="#00cdcd" stroke="#00cdcd" points="13346.34,-7318.21 13353.75,-7310.64 13343.23,-7311.94 13346.34,-7318.21"/>
</g>
<!-- 140026548402688&#45;&gt;140026548466144 -->
<g id="edge23" class="edge">
<title>140026548402688&#45;&gt;140026548466144</title>
<path fill="none" stroke="#00cdcd" d="M8813.68,-15589.02C7740.71,-15495.8 1848.3,-14926.63 799.35,-13588 668.47,-13420.98 992.41,-11887.56 1074.16,-11512.49"/>
<polygon fill="#00cdcd" stroke="#00cdcd" points="1077.53,-11513.47 1076.25,-11502.95 1070.69,-11511.97 1077.53,-11513.47"/>
</g>
<!-- 140026548402688&#45;&gt;140026365033536 -->
<g id="edge64" class="edge">
<title>140026548402688&#45;&gt;140026365033536</title>
<path fill="none" stroke="#00cdcd" d="M8813.51,-15589.16C7737.82,-15496.72 1822.64,-14930.99 769.35,-13588 735.24,-13544.51 379.05,-17422.5 831.35,-11357 833.52,-11327.87 1314.41,-7204.8 1331.35,-7181 2277.55,-5851.27 4347.81,-5360.81 5146.81,-5216.78"/>
<polygon fill="#00cdcd" stroke="#00cdcd" points="5147.18,-5220.27 5156.41,-5215.05 5145.95,-5213.38 5147.18,-5220.27"/>
</g>
<!-- 140026548402688&#45;&gt;140026548863072 -->
<g id="edge102" class="edge">
<title>140026548402688&#45;&gt;140026548863072</title>
<path fill="none" stroke="#00cdcd" d="M9148.97,-15586.98C9824.95,-15512.42 12364.1,-15134.34 13407.35,-13588 13962.43,-12765.24 13419.93,-12345.9 13504.35,-11357 13568.69,-10603.19 13705.67,-9697.76 13748.36,-9424.17"/>
<polygon fill="#00cdcd" stroke="#00cdcd" points="13751.77,-9425.07 13749.85,-9414.65 13744.85,-9423.99 13751.77,-9425.07"/>
</g>
<!-- 140026548402688&#45;&gt;140026340697472 -->
<g id="edge108" class="edge">
<title>140026548402688&#45;&gt;140026340697472</title>
<path fill="none" stroke="#00cdcd" d="M8981.15,-15531.87C8979.9,-15046.71 8973.68,-12218.25 8996.35,-11357 9016.11,-10606.26 9072.22,-9699.53 9089.93,-9424.79"/>
<polygon fill="#00cdcd" stroke="#00cdcd" points="9093.41,-9425.06 9090.57,-9414.85 9086.43,-9424.61 9093.41,-9425.06"/>
</g>
<!-- 140026548402688&#45;&gt;140026548401760 -->
<g id="edge90" class="edge">
<title>140026548402688&#45;&gt;140026548401760</title>
<path fill="none" stroke="#00cdcd" d="M9148.95,-15583.81C9820.05,-15497.47 12333.19,-15081.49 13501.35,-13588 14014.02,-12932.55 13931.03,-11822.29 13895.94,-11512.46"/>
<polygon fill="#00cdcd" stroke="#00cdcd" points="13899.45,-11512.38 13894.83,-11502.84 13892.5,-11513.18 13899.45,-11512.38"/>
</g>
<!-- 140026548402688&#45;&gt;140026548401792 -->
<g id="edge96" class="edge">
<title>140026548402688&#45;&gt;140026548401792</title>
<path fill="none" stroke="#00cdcd" d="M9149.06,-15531.65C9912.23,-15206.95 13049.83,-13872.05 13746.77,-13575.53"/>
<polygon fill="#00cdcd" stroke="#00cdcd" points="13748.13,-13578.76 13755.96,-13571.62 13745.39,-13572.32 13748.13,-13578.76"/>
</g>
<!-- 140026548901280 -->
<g id="node21" class="node">
<title>140026548901280</title>
<polygon fill="white" stroke="black" points="764.85,-7325 475.85,-7325 475.85,-7181 764.85,-7181 764.85,-7325"/>
<text text-anchor="middle" x="620.35" y="-7229.38" font-family="sans" font-size="90.00">mcron</text>
</g>
<!-- 140026548901280&#45;&gt;140026548896256 -->
<g id="edge20" class="edge">
<title>140026548901280&#45;&gt;140026548896256</title>
<path fill="none" stroke="blue" d="M617.04,-7180.85C606.02,-6906.77 581.28,-5894.59 771.35,-5093 958.54,-4303.54 1421.15,-3425.9 1567.91,-3159.17"/>
<polygon fill="blue" stroke="blue" points="1570.92,-3160.96 1572.68,-3150.51 1564.79,-3157.58 1570.92,-3160.96"/>
</g>
<!-- 140026548901280&#45;&gt;140026365033536 -->
<g id="edge65" class="edge">
<title>140026548901280&#45;&gt;140026365033536</title>
<path fill="none" stroke="blue" d="M765.17,-7189.71C1468.43,-6887.24 4524.74,-5572.71 5294.07,-5241.82"/>
<polygon fill="blue" stroke="blue" points="5295.2,-5245.14 5303.01,-5237.97 5292.44,-5238.71 5295.2,-5245.14"/>
</g>
<!-- 140026694303456 -->
<g id="node22" class="node">
<title>140026694303456</title>
<polygon fill="white" stroke="black" points="1740.22,-13588 802.47,-13588 802.47,-13444 1740.22,-13444 1740.22,-13588"/>
<text text-anchor="middle" x="1271.35" y="-13492.38" font-family="sans" font-size="90.00">fontconfig&#45;file&#45;system</text>
</g>
<!-- 140026694303456&#45;&gt;140026548466144 -->
<g id="edge22" class="edge">
<title>140026694303456&#45;&gt;140026548466144</title>
<path fill="none" stroke="dimgrey" d="M1265.21,-13443.53C1238.02,-13126.77 1128.43,-11850.25 1099.42,-11512.38"/>
<polygon fill="dimgrey" stroke="dimgrey" points="1102.94,-11512.41 1098.59,-11502.75 1095.96,-11513.01 1102.94,-11512.41"/>
</g>
<!-- 140026548418624 -->
<g id="node23" class="node">
<title>140026548418624</title>
<polygon fill="white" stroke="black" points="2813.47,-7325 2135.22,-7325 2135.22,-7181 2813.47,-7181 2813.47,-7325"/>
<text text-anchor="middle" x="2474.35" y="-7229.38" font-family="sans" font-size="90.00">root&#45;file&#45;system</text>
</g>
<!-- 140026548418624&#45;&gt;140026365033536 -->
<g id="edge25" class="edge">
<title>140026548418624&#45;&gt;140026365033536</title>
<path fill="none" stroke="darkseagreen" d="M2576.61,-7180.8C3033.16,-6862.92 4883.42,-5574.66 5358.65,-5243.77"/>
<polygon fill="darkseagreen" stroke="darkseagreen" points="5360.48,-5246.76 5366.69,-5238.17 5356.48,-5241.02 5360.48,-5246.76"/>
</g>
<!-- 140026548505792&#45;&gt;140026365033536 -->
<g id="edge26" class="edge">
<title>140026548505792&#45;&gt;140026365033536</title>
<path fill="none" stroke="darkgoldenrod" d="M1869.87,-7180.65C2438.99,-6862.2 4744.73,-5572.02 5333.14,-5242.78"/>
<polygon fill="darkgoldenrod" stroke="darkgoldenrod" points="5334.6,-5245.97 5341.62,-5238.03 5331.18,-5239.86 5334.6,-5245.97"/>
</g>
<!-- 140026548896288 -->
<g id="node25" class="node">
<title>140026548896288</title>
<polygon fill="white" stroke="black" points="3648.47,-7325 2850.22,-7325 2850.22,-7181 3648.47,-7181 3648.47,-7325"/>
<text text-anchor="middle" x="3249.35" y="-7229.38" font-family="sans" font-size="90.00">host&#45;name ulysses</text>
</g>
<!-- 140026548896288&#45;&gt;140026365033536 -->
<g id="edge27" class="edge">
<title>140026548896288&#45;&gt;140026365033536</title>
<path fill="none" stroke="blue" d="M3325.16,-7180.8C3663.19,-6863.31 5031.87,-5577.82 5386.24,-5244.99"/>
<polygon fill="blue" stroke="blue" points="5388.43,-5247.74 5393.32,-5238.35 5383.63,-5242.64 5388.43,-5247.74"/>
</g>
<!-- 140026548899552&#45;&gt;140026548897376 -->
<g id="edge113" class="edge">
<title>140026548899552&#45;&gt;140026548897376</title>
<path fill="none" stroke="darkseagreen" d="M11697.74,-9268.8C11975.82,-8951.47 13101.35,-7667.09 13393.69,-7333.49"/>
<polygon fill="darkseagreen" stroke="darkseagreen" points="13395.9,-7336.28 13399.86,-7326.45 13390.64,-7331.66 13395.9,-7336.28"/>
</g>
<!-- 140026548899552&#45;&gt;140026364642400 -->
<g id="edge128" class="edge">
<title>140026548899552&#45;&gt;140026364642400</title>
<path fill="none" stroke="darkseagreen" d="M11724.56,-9268.58C12015.61,-9029.78 12941.26,-8223.43 13334.35,-7325 13360.2,-7265.91 13343.75,-7244.92 13352.35,-7181 13453.38,-6429.56 13588.73,-5522.52 13629.94,-5248.35"/>
<polygon fill="darkseagreen" stroke="darkseagreen" points="13633.34,-5249.23 13631.37,-5238.82 13626.42,-5248.19 13633.34,-5249.23"/>
</g>
<!-- 140026548899552&#45;&gt;140026365033536 -->
<g id="edge28" class="edge">
<title>140026548899552&#45;&gt;140026365033536</title>
<path fill="none" stroke="darkseagreen" d="M11459.57,-9312.19C10517.76,-9159.32 6082.37,-8389.1 5304.35,-7325 5241.9,-7239.59 5417.72,-5634.26 5460.98,-5248.73"/>
<polygon fill="darkseagreen" stroke="darkseagreen" points="5464.45,-5249.24 5462.09,-5238.91 5457.49,-5248.46 5464.45,-5249.24"/>
</g>
<!-- 140026548899552&#45;&gt;140026548505792 -->
<g id="edge67" class="edge">
<title>140026548899552&#45;&gt;140026548505792</title>
<path fill="none" stroke="darkseagreen" d="M11459.44,-9302.91C10291.77,-9056.7 3658.17,-7657.96 2079.5,-7325.09"/>
<polygon fill="darkseagreen" stroke="darkseagreen" points="2080.28,-7321.68 2069.77,-7323.04 2078.83,-7328.53 2080.28,-7321.68"/>
</g>
<!-- 140026548863072&#45;&gt;140026548897376 -->
<g id="edge114" class="edge">
<title>140026548863072&#45;&gt;140026548897376</title>
<path fill="none" stroke="red" d="M13751.18,-9268.8C13705.98,-8952.41 13523.44,-7674.67 13475.13,-7336.47"/>
<polygon fill="red" stroke="red" points="13478.63,-7336.21 13473.75,-7326.81 13471.7,-7337.2 13478.63,-7336.21"/>
</g>
<!-- 140026548863072&#45;&gt;140026365033536 -->
<g id="edge29" class="edge">
<title>140026548863072&#45;&gt;140026365033536</title>
<path fill="none" stroke="red" d="M13760.98,-9268.56C13758.49,-8912.9 13739.76,-7343.9 13602.35,-7181 12558.04,-5942.93 7175.96,-5333.97 5794.06,-5196.54"/>
<polygon fill="red" stroke="red" points="5794.53,-5193.07 5784.24,-5195.57 5793.84,-5200.04 5794.53,-5193.07"/>
</g>
<!-- 140026548862976 -->
<g id="node69" class="node">
<title>140026548862976</title>
<polygon fill="white" stroke="black" points="15689.97,-7325 14852.72,-7325 14852.72,-7181 15689.97,-7181 15689.97,-7325"/>
<text text-anchor="middle" x="15271.35" y="-7229.38" font-family="sans" font-size="90.00">privileged&#45;program</text>
</g>
<!-- 140026548863072&#45;&gt;140026548862976 -->
<g id="edge144" class="edge">
<title>140026548863072&#45;&gt;140026548862976</title>
<path fill="none" stroke="red" d="M13812.89,-9268.8C14042.37,-8951.78 14970.5,-7669.62 15213.09,-7334.47"/>
<polygon fill="red" stroke="red" points="15215.81,-7336.69 15218.84,-7326.54 15210.14,-7332.58 15215.81,-7336.69"/>
</g>
<!-- 140026340697376 -->
<g id="node28" class="node">
<title>140026340697376</title>
<polygon fill="white" stroke="black" points="3901.47,-7325 3655.22,-7325 3655.22,-7181 3901.47,-7181 3901.47,-7325"/>
<text text-anchor="middle" x="3778.35" y="-7229.38" font-family="sans" font-size="90.00">sysctl</text>
</g>
<!-- 140026340697376&#45;&gt;140026365033536 -->
<g id="edge30" class="edge">
<title>140026340697376&#45;&gt;140026365033536</title>
<path fill="none" stroke="magenta" d="M3836.1,-7180.8C4093.37,-6863.63 5134.26,-5580.35 5405.47,-5245.98"/>
<polygon fill="magenta" stroke="magenta" points="5407.97,-5248.46 5411.55,-5238.49 5402.54,-5244.05 5407.97,-5248.46"/>
</g>
<!-- 140026340697472&#45;&gt;140026548897376 -->
<g id="edge115" class="edge">
<title>140026340697472&#45;&gt;140026548897376</title>
<path fill="none" stroke="blue" d="M9206.23,-9290.23C9696.31,-9069.64 11715.29,-8154.44 13334.35,-7325 13337.81,-7323.23 13341.31,-7321.41 13344.85,-7319.57"/>
<polygon fill="blue" stroke="blue" points="13346.29,-7322.77 13353.51,-7315.02 13343.03,-7316.57 13346.29,-7322.77"/>
</g>
<!-- 140026340697472&#45;&gt;140026365033536 -->
<g id="edge31" class="edge">
<title>140026340697472&#45;&gt;140026365033536</title>
<path fill="none" stroke="blue" d="M8984.48,-9283.66C8973.05,-9278.48 8961.53,-9273.49 8950.35,-9269 6308.66,-8208.19 4527.27,-9623.2 2847.35,-7325 2828.46,-7299.17 2833.2,-7209.7 2847.35,-7181 3372.98,-6114.38 4764.48,-5454.9 5277.15,-5241.79"/>
<polygon fill="blue" stroke="blue" points="5278.32,-5245.09 5286.21,-5238.03 5275.63,-5238.63 5278.32,-5245.09"/>
</g>
<!-- 140026340698272 -->
<g id="node30" class="node">
<title>140026340698272</title>
<polygon fill="white" stroke="black" points="4436.97,-7325 3923.72,-7325 3923.72,-7181 4436.97,-7181 4436.97,-7325"/>
<text text-anchor="middle" x="4180.35" y="-7229.38" font-family="sans" font-size="90.00">log&#45;cleanup</text>
</g>
<!-- 140026340698272&#45;&gt;140026365033536 -->
<g id="edge32" class="edge">
<title>140026340698272&#45;&gt;140026365033536</title>
<path fill="none" stroke="#00cdcd" d="M4224.38,-7180.8C4420.33,-6863.94 5212.55,-5582.88 5420.28,-5246.97"/>
<polygon fill="#00cdcd" stroke="#00cdcd" points="5423.17,-5248.94 5425.45,-5238.6 5417.22,-5245.26 5423.17,-5248.94"/>
</g>
<!-- 140026340698464 -->
<g id="node31" class="node">
<title>140026340698464</title>
<polygon fill="white" stroke="black" points="5284.97,-7325 4459.72,-7325 4459.72,-7181 5284.97,-7181 5284.97,-7325"/>
<text text-anchor="middle" x="4872.35" y="-7229.38" font-family="sans" font-size="90.00">shepherd&#45;transient</text>
</g>
<!-- 140026340698464&#45;&gt;140026365033536 -->
<g id="edge33" class="edge">
<title>140026340698464&#45;&gt;140026365033536</title>
<path fill="none" stroke="darkgoldenrod" d="M4892.76,-7180.8C4983.48,-6864.33 5349.94,-5586.04 5446.78,-5248.22"/>
<polygon fill="darkgoldenrod" stroke="darkgoldenrod" points="5450.1,-5249.34 5449.49,-5238.77 5443.37,-5247.41 5450.1,-5249.34"/>
</g>
<!-- 140026340698560 -->
<g id="node32" class="node">
<title>140026340698560</title>
<polygon fill="white" stroke="black" points="5982.97,-7325 5307.72,-7325 5307.72,-7181 5982.97,-7181 5982.97,-7325"/>
<text text-anchor="middle" x="5645.35" y="-7229.38" font-family="sans" font-size="90.00">shepherd&#45;timer</text>
</g>
<!-- 140026340698560&#45;&gt;140026365033536 -->
<g id="edge34" class="edge">
<title>140026340698560&#45;&gt;140026365033536</title>
<path fill="none" stroke="red" d="M5639.37,-7180.8C5612.84,-6864.49 5505.69,-5587.3 5477.29,-5248.72"/>
<polygon fill="red" stroke="red" points="5480.78,-5248.49 5476.46,-5238.82 5473.81,-5249.08 5480.78,-5248.49"/>
</g>
<!-- 140026340698656 -->
<g id="node33" class="node">
<title>140026340698656</title>
<polygon fill="white" stroke="black" points="6506.85,-7325 5989.85,-7325 5989.85,-7181 6506.85,-7181 6506.85,-7325"/>
<text text-anchor="middle" x="6248.35" y="-7229.38" font-family="sans" font-size="90.00">log&#45;rotation</text>
</g>
<!-- 140026340698656&#45;&gt;140026365033536 -->
<g id="edge35" class="edge">
<title>140026340698656&#45;&gt;140026365033536</title>
<path fill="none" stroke="blue" d="M6221.79,-7180.8C6103.73,-6864.25 5626.77,-5585.4 5500.92,-5247.97"/>
<polygon fill="blue" stroke="blue" points="5504.25,-5246.87 5497.47,-5238.73 5497.69,-5249.32 5504.25,-5246.87"/>
</g>
<!-- 140026340698688 -->
<g id="node34" class="node">
<title>140026340698688</title>
<polygon fill="white" stroke="black" points="13273.35,-7325 13057.35,-7325 13057.35,-7181 13273.35,-7181 13273.35,-7325"/>
<text text-anchor="middle" x="13165.35" y="-7229.38" font-family="sans" font-size="90.00">nscd</text>
</g>
<!-- 140026340698688&#45;&gt;140026364642400 -->
<g id="edge131" class="edge">
<title>140026340698688&#45;&gt;140026364642400</title>
<path fill="none" stroke="darkviolet" d="M13181.63,-7180.8C13253.98,-6864.41 13546.16,-5586.67 13623.49,-5248.47"/>
<polygon fill="darkviolet" stroke="darkviolet" points="13626.89,-5249.31 13625.7,-5238.79 13620.06,-5247.75 13626.89,-5249.31"/>
</g>
<!-- 140026340698688&#45;&gt;140026365033536 -->
<g id="edge36" class="edge">
<title>140026340698688&#45;&gt;140026365033536</title>
<path fill="none" stroke="darkviolet" d="M13057.14,-7183.58C13055.21,-7182.7 13053.27,-7181.83 13051.35,-7181 10372.15,-6021.61 6864.3,-5391.02 5794.11,-5216.56"/>
<polygon fill="darkviolet" stroke="darkviolet" points="5794.73,-5213.12 5784.29,-5214.96 5793.6,-5220.02 5794.73,-5213.12"/>
</g>
<!-- 140026340698752 -->
<g id="node35" class="node">
<title>140026340698752</title>
<polygon fill="white" stroke="black" points="2037.47,-9413 1401.22,-9413 1401.22,-9269 2037.47,-9269 2037.47,-9413"/>
<text text-anchor="middle" x="1719.35" y="-9317.38" font-family="sans" font-size="90.00">urandom&#45;seed</text>
</g>
<!-- 140026340698752&#45;&gt;140026365033536 -->
<g id="edge38" class="edge">
<title>140026340698752&#45;&gt;140026365033536</title>
<path fill="none" stroke="#8b7765" d="M1706.65,-9268.79C1642.22,-8905.52 1356.64,-7272.48 1413.35,-7181 2260.74,-5813.96 4343.46,-5345.13 5146.91,-5211.84"/>
<polygon fill="#8b7765" stroke="#8b7765" points="5147.27,-5215.33 5156.56,-5210.25 5146.12,-5208.42 5147.27,-5215.33"/>
</g>
<!-- 140026340698752&#45;&gt;140026548505792 -->
<g id="edge68" class="edge">
<title>140026340698752&#45;&gt;140026548505792</title>
<path fill="none" stroke="#8b7765" d="M1720.13,-9268.8C1723.62,-8952.49 1737.7,-7675.3 1741.44,-7336.72"/>
<polygon fill="#8b7765" stroke="#8b7765" points="1744.93,-7336.86 1741.55,-7326.82 1737.94,-7336.78 1744.93,-7336.86"/>
</g>
<!-- 140026340698784 -->
<g id="node36" class="node">
<title>140026340698784</title>
<polygon fill="white" stroke="black" points="12586.97,-9413 11833.72,-9413 11833.72,-9269 12586.97,-9269 12586.97,-9413"/>
<text text-anchor="middle" x="12210.35" y="-9317.38" font-family="sans" font-size="90.00">static&#45;networking</text>
</g>
<!-- 140026340698784&#45;&gt;140026548897376 -->
<g id="edge116" class="edge">
<title>140026340698784&#45;&gt;140026548897376</title>
<path fill="none" stroke="red" d="M12253.12,-9268.8C12443.45,-8951.94 13212.94,-7670.88 13414.71,-7334.97"/>
<polygon fill="red" stroke="red" points="13417.59,-7336.98 13419.73,-7326.61 13411.59,-7333.38 13417.59,-7336.98"/>
</g>
<!-- 140026340698784&#45;&gt;140026365033536 -->
<g id="edge39" class="edge">
<title>140026340698784&#45;&gt;140026365033536</title>
<path fill="none" stroke="red" d="M11865.19,-9268.5C10328.88,-8948.7 4176.59,-7650.98 3920.35,-7325 3900.57,-7299.84 3910.04,-7211.3 3920.35,-7181 4222.04,-6293.99 5089.19,-5492.5 5376.57,-5244.62"/>
<polygon fill="red" stroke="red" points="5378.46,-5247.61 5383.75,-5238.44 5373.89,-5242.31 5378.46,-5247.61"/>
</g>
<!-- 140026340698912 -->
<g id="node37" class="node">
<title>140026340698912</title>
<polygon fill="white" stroke="black" points="6909.1,-7325 6513.6,-7325 6513.6,-7181 6909.1,-7181 6909.1,-7325"/>
<text text-anchor="middle" x="6711.35" y="-7229.38" font-family="sans" font-size="90.00">mingetty</text>
</g>
<!-- 140026340698912&#45;&gt;140026365033536 -->
<g id="edge40" class="edge">
<title>140026340698912&#45;&gt;140026365033536</title>
<path fill="none" stroke="#8b7765" d="M6668.99,-7180.8C6480.48,-6863.94 5718.36,-5582.88 5518.52,-5246.97"/>
<polygon fill="#8b7765" stroke="#8b7765" points="5521.67,-5245.42 5513.55,-5238.61 5515.65,-5248.99 5521.67,-5245.42"/>
</g>
<!-- 140026340698944 -->
<g id="node38" class="node">
<title>140026340698944</title>
<polygon fill="white" stroke="black" points="7312.1,-7325 6916.6,-7325 6916.6,-7181 7312.1,-7181 7312.1,-7325"/>
<text text-anchor="middle" x="7114.35" y="-7229.38" font-family="sans" font-size="90.00">mingetty</text>
</g>
<!-- 140026340698944&#45;&gt;140026365033536 -->
<g id="edge41" class="edge">
<title>140026340698944&#45;&gt;140026365033536</title>
<path fill="none" stroke="magenta" d="M7058.23,-7180.8C6808.27,-6863.63 5796.9,-5580.35 5533.38,-5245.98"/>
<polygon fill="magenta" stroke="magenta" points="5536.42,-5244.19 5527.49,-5238.5 5530.93,-5248.52 5536.42,-5244.19"/>
</g>
<!-- 140026340698976 -->
<g id="node39" class="node">
<title>140026340698976</title>
<polygon fill="white" stroke="black" points="7715.1,-7325 7319.6,-7325 7319.6,-7181 7715.1,-7181 7715.1,-7325"/>
<text text-anchor="middle" x="7517.35" y="-7229.38" font-family="sans" font-size="90.00">mingetty</text>
</g>
<!-- 140026340698976&#45;&gt;140026365033536 -->
<g id="edge42" class="edge">
<title>140026340698976&#45;&gt;140026365033536</title>
<path fill="none" stroke="magenta" d="M7447.48,-7180.8C7136.08,-6863.47 5875.71,-5579.09 5548.35,-5245.49"/>
<polygon fill="magenta" stroke="magenta" points="5550.89,-5243.08 5541.39,-5238.39 5545.89,-5247.98 5550.89,-5243.08"/>
</g>
<!-- 140026340699008 -->
<g id="node40" class="node">
<title>140026340699008</title>
<polygon fill="white" stroke="black" points="8118.1,-7325 7722.6,-7325 7722.6,-7181 8118.1,-7181 8118.1,-7325"/>
<text text-anchor="middle" x="7920.35" y="-7229.38" font-family="sans" font-size="90.00">mingetty</text>
</g>
<!-- 140026340699008&#45;&gt;140026365033536 -->
<g id="edge43" class="edge">
<title>140026340699008&#45;&gt;140026365033536</title>
<path fill="none" stroke="dimgrey" d="M7836.72,-7180.8C7463.75,-6863.24 5953.29,-5577.19 5562.84,-5244.75"/>
<polygon fill="dimgrey" stroke="dimgrey" points="5565.14,-5242.11 5555.25,-5238.29 5560.6,-5247.44 5565.14,-5242.11"/>
</g>
<!-- 140026340699040 -->
<g id="node41" class="node">
<title>140026340699040</title>
<polygon fill="white" stroke="black" points="8521.1,-7325 8125.6,-7325 8125.6,-7181 8521.1,-7181 8521.1,-7325"/>
<text text-anchor="middle" x="8323.35" y="-7229.38" font-family="sans" font-size="90.00">mingetty</text>
</g>
<!-- 140026340699040&#45;&gt;140026365033536 -->
<g id="edge44" class="edge">
<title>140026340699040&#45;&gt;140026365033536</title>
<path fill="none" stroke="#00cdcd" d="M8225.97,-7180.8C7791.32,-6863 6030.13,-5575.29 5577.05,-5244.01"/>
<polygon fill="#00cdcd" stroke="#00cdcd" points="5579.24,-5241.28 5569.1,-5238.2 5575.11,-5246.93 5579.24,-5241.28"/>
</g>
<!-- 140026340699072 -->
<g id="node42" class="node">
<title>140026340699072</title>
<polygon fill="white" stroke="black" points="8924.1,-7325 8528.6,-7325 8528.6,-7181 8924.1,-7181 8924.1,-7325"/>
<text text-anchor="middle" x="8726.35" y="-7229.38" font-family="sans" font-size="90.00">mingetty</text>
</g>
<!-- 140026340699072&#45;&gt;140026365033536 -->
<g id="edge45" class="edge">
<title>140026340699072&#45;&gt;140026365033536</title>
<path fill="none" stroke="magenta" d="M8615.21,-7180.8C8118.8,-6862.77 6106.24,-5573.39 5590.98,-5243.28"/>
<polygon fill="magenta" stroke="magenta" points="5593.24,-5240.57 5582.93,-5238.13 5589.46,-5246.47 5593.24,-5240.57"/>
</g>
<!-- 140026340699168 -->
<g id="node43" class="node">
<title>140026340699168</title>
<polygon fill="white" stroke="black" points="9213.85,-7325 8930.85,-7325 8930.85,-7181 9213.85,-7181 9213.85,-7325"/>
<text text-anchor="middle" x="9072.35" y="-7229.38" font-family="sans" font-size="90.00">agetty</text>
</g>
<!-- 140026340699168&#45;&gt;140026365033536 -->
<g id="edge46" class="edge">
<title>140026340699168&#45;&gt;140026365033536</title>
<path fill="none" stroke="red" d="M8949.14,-7180.65C8399.39,-6862.28 6172.53,-5572.65 5603.34,-5243.02"/>
<polygon fill="red" stroke="red" points="5605.17,-5240.03 5594.76,-5238.05 5601.66,-5246.09 5605.17,-5240.03"/>
</g>
<!-- 140026340699424 -->
<g id="node44" class="node">
<title>140026340699424</title>
<polygon fill="white" stroke="black" points="10129.6,-7325 9221.1,-7325 9221.1,-7181 10129.6,-7181 10129.6,-7325"/>
<text text-anchor="middle" x="9675.35" y="-7229.38" font-family="sans" font-size="90.00">shepherd&#45;system&#45;log</text>
</g>
<!-- 140026340699424&#45;&gt;140026365033536 -->
<g id="edge47" class="edge">
<title>140026340699424&#45;&gt;140026365033536</title>
<path fill="none" stroke="darkgoldenrod" d="M9531.52,-7180.65C8889.35,-6862.09 6286.98,-5571.11 5624.42,-5242.43"/>
<polygon fill="darkgoldenrod" stroke="darkgoldenrod" points="5626.2,-5239.41 5615.68,-5238.1 5623.09,-5245.68 5626.2,-5239.41"/>
</g>
<!-- 140026340699520 -->
<g id="node45" class="node">
<title>140026340699520</title>
<polygon fill="white" stroke="black" points="10723.72,-7325 10136.97,-7325 10136.97,-7181 10723.72,-7181 10723.72,-7325"/>
<text text-anchor="middle" x="10430.35" y="-7229.38" font-family="sans" font-size="90.00">console&#45;fonts</text>
</g>
<!-- 140026340699520&#45;&gt;140026365033536 -->
<g id="edge48" class="edge">
<title>140026340699520&#45;&gt;140026365033536</title>
<path fill="none" stroke="darkseagreen" d="M10260.69,-7180.65C9502.76,-6861.89 6429.84,-5569.53 5650.64,-5241.83"/>
<polygon fill="darkseagreen" stroke="darkseagreen" points="5652.15,-5238.66 5641.58,-5238.01 5649.44,-5245.12 5652.15,-5238.66"/>
</g>
<!-- 140026340699808 -->
<g id="node46" class="node">
<title>140026340699808</title>
<polygon fill="white" stroke="black" points="11400.35,-7325 10730.35,-7325 10730.35,-7181 11400.35,-7181 11400.35,-7325"/>
<text text-anchor="middle" x="11065.35" y="-7229.38" font-family="sans" font-size="90.00">virtual&#45;terminal</text>
</g>
<!-- 140026340699808&#45;&gt;140026365033536 -->
<g id="edge49" class="edge">
<title>140026340699808&#45;&gt;140026365033536</title>
<path fill="none" stroke="red" d="M10873.97,-7180.65C10018.59,-6861.73 6549.27,-5568.26 5672.43,-5241.34"/>
<polygon fill="red" stroke="red" points="5673.93,-5238.17 5663.34,-5237.95 5671.49,-5244.73 5673.93,-5238.17"/>
</g>
<!-- 140026548412832 -->
<g id="node47" class="node">
<title>140026548412832</title>
<polygon fill="white" stroke="black" points="12747.35,-11501 12531.35,-11501 12531.35,-11357 12747.35,-11357 12747.35,-11501"/>
<text text-anchor="middle" x="12639.35" y="-11405.38" font-family="sans" font-size="90.00">ntp</text>
</g>
<!-- 140026548412832&#45;&gt;140026364642400 -->
<g id="edge134" class="edge">
<title>140026548412832&#45;&gt;140026364642400</title>
<path fill="none" stroke="#8b7765" d="M12686.96,-11356.71C12851.99,-11104.85 13399.61,-10228.19 13587.35,-9413 13635.79,-9202.64 13641.63,-5822.68 13642.27,-5248.57"/>
<polygon fill="#8b7765" stroke="#8b7765" points="13645.77,-5248.63 13642.28,-5238.63 13638.77,-5248.62 13645.77,-5248.63"/>
</g>
<!-- 140026548412832&#45;&gt;140026365033536 -->
<g id="edge51" class="edge">
<title>140026548412832&#45;&gt;140026365033536</title>
<path fill="none" stroke="#8b7765" d="M12637.76,-11356.62C12632.04,-11096.38 12612.58,-10173.95 12606.35,-9413 12605.82,-9349 12599.36,-9332.62 12606.35,-9269 12702.92,-8389.21 12941.77,-8204.79 13038.35,-7325 13041.84,-7293.19 13057.85,-7206.37 13038.35,-7181 12120.32,-5986.56 7121.1,-5350.16 5793.94,-5200.68"/>
<polygon fill="#8b7765" stroke="#8b7765" points="5794.65,-5197.24 5784.32,-5199.6 5793.87,-5204.19 5794.65,-5197.24"/>
</g>
<!-- 140026548412832&#45;&gt;140026548899552 -->
<g id="edge73" class="edge">
<title>140026548412832&#45;&gt;140026548899552</title>
<path fill="none" stroke="#8b7765" d="M12605.08,-11356.8C12452.65,-11040.09 11836.6,-9760.14 11674.56,-9423.47"/>
<polygon fill="#8b7765" stroke="#8b7765" points="11677.82,-9422.17 11670.33,-9414.67 11671.51,-9425.2 11677.82,-9422.17"/>
</g>
<!-- 140026548412864 -->
<g id="node48" class="node">
<title>140026548412864</title>
<polygon fill="white" stroke="black" points="12607.47,-7325 11407.22,-7325 11407.22,-7181 12607.47,-7181 12607.47,-7325"/>
<text text-anchor="middle" x="12007.35" y="-7229.38" font-family="sans" font-size="90.00">x11&#45;socket&#45;directory&#45;service</text>
</g>
<!-- 140026548412864&#45;&gt;140026365033536 -->
<g id="edge52" class="edge">
<title>140026548412864&#45;&gt;140026365033536</title>
<path fill="none" stroke="red" d="M11783.75,-7180.65C10783.86,-6861.58 6726.95,-5566.99 5704.95,-5240.86"/>
<polygon fill="red" stroke="red" points="5706.21,-5237.59 5695.62,-5237.89 5704.08,-5244.26 5706.21,-5237.59"/>
</g>
<!-- 140026548376736 -->
<g id="node49" class="node">
<title>140026548376736</title>
<polygon fill="white" stroke="black" points="13470.35,-11501 13254.35,-11501 13254.35,-11357 13470.35,-11357 13470.35,-11501"/>
<text text-anchor="middle" x="13362.35" y="-11405.38" font-family="sans" font-size="90.00">cups</text>
</g>
<!-- 140026548376736&#45;&gt;140026364642400 -->
<g id="edge135" class="edge">
<title>140026548376736&#45;&gt;140026364642400</title>
<path fill="none" stroke="magenta" d="M13374.46,-11356.91C13417.94,-11097.67 13566.36,-10178.24 13617.35,-9413 13645.96,-8983.6 13643.18,-5805.32 13642.47,-5248.99"/>
<polygon fill="magenta" stroke="magenta" points="13645.97,-5249 13642.45,-5239 13638.97,-5249 13645.97,-5249"/>
</g>
<!-- 140026548376736&#45;&gt;140026365033536 -->
<g id="edge53" class="edge">
<title>140026548376736&#45;&gt;140026365033536</title>
<path fill="none" stroke="magenta" d="M13372.62,-11356.83C13409.48,-11097.31 13535.08,-10177.05 13575.35,-9413 13581.87,-9289.17 13651.72,-7278.69 13575.35,-7181 12580.58,-5908.64 7179.33,-5324.82 5794.17,-5194.71"/>
<polygon fill="magenta" stroke="magenta" points="5794.61,-5191.24 5784.32,-5193.79 5793.95,-5198.21 5794.61,-5191.24"/>
</g>
<!-- 140026548376736&#45;&gt;140026548899552 -->
<g id="edge74" class="edge">
<title>140026548376736&#45;&gt;140026548899552</title>
<path fill="none" stroke="magenta" d="M13303.4,-11356.8C13040.81,-11039.63 11978.39,-9756.35 11701.56,-9421.98"/>
<polygon fill="magenta" stroke="magenta" points="11704.42,-9419.95 11695.35,-9414.48 11699.03,-9424.41 11704.42,-9419.95"/>
</g>
<!-- 140026548376736&#45;&gt;140026548863072 -->
<g id="edge98" class="edge">
<title>140026548376736&#45;&gt;140026548863072</title>
<path fill="none" stroke="magenta" d="M13375.97,-11356.8C13436.48,-11040.41 13680.89,-9762.67 13745.57,-9424.47"/>
<polygon fill="magenta" stroke="magenta" points="13748.98,-9425.28 13747.42,-9414.8 13742.11,-9423.96 13748.98,-9425.28"/>
</g>
<!-- 140026548377408 -->
<g id="node50" class="node">
<title>140026548377408</title>
<polygon fill="white" stroke="black" points="8801.35,-11501 8585.35,-11501 8585.35,-11357 8801.35,-11357 8801.35,-11501"/>
<text text-anchor="middle" x="8693.35" y="-11405.38" font-family="sans" font-size="90.00">tlp</text>
</g>
<!-- 140026548377408&#45;&gt;140026364642400 -->
<g id="edge139" class="edge">
<title>140026548377408&#45;&gt;140026364642400</title>
<path fill="none" stroke="#8b7765" d="M8668.66,-11356.56C8573.12,-11066.19 8255.22,-9957.21 8716.35,-9269 9949.08,-7429.21 11941.9,-9070.91 13304.35,-7325 13320.81,-7303.9 13570.99,-5641.67 13629.96,-5248.63"/>
<polygon fill="#8b7765" stroke="#8b7765" points="13633.41,-5249.28 13631.43,-5238.87 13626.48,-5248.24 13633.41,-5249.28"/>
</g>
<!-- 140026548377408&#45;&gt;140026365033536 -->
<g id="edge58" class="edge">
<title>140026548377408&#45;&gt;140026365033536</title>
<path fill="none" stroke="#8b7765" d="M8584.86,-11401.93C7855.73,-11220.18 3652.29,-10068.19 2132.35,-7325 2116.84,-7297.01 2116.62,-7208.87 2132.35,-7181 2801.77,-5994.96 4480.74,-5428.58 5168.94,-5240.44"/>
<polygon fill="#8b7765" stroke="#8b7765" points="5169.81,-5243.83 5178.54,-5237.82 5167.97,-5237.07 5169.81,-5243.83"/>
</g>
<!-- 140026548377408&#45;&gt;140026340697472 -->
<g id="edge105" class="edge">
<title>140026548377408&#45;&gt;140026340697472</title>
<path fill="none" stroke="#8b7765" d="M8707.07,-11356.8C8768.04,-11040.41 9014.28,-9762.67 9079.46,-9424.47"/>
<polygon fill="#8b7765" stroke="#8b7765" points="9082.86,-9425.28 9081.32,-9414.8 9075.99,-9423.95 9082.86,-9425.28"/>
</g>
<!-- 140026548401728 -->
<g id="node51" class="node">
<title>140026548401728</title>
<polygon fill="white" stroke="black" points="13034.97,-7325 12629.72,-7325 12629.72,-7181 13034.97,-7181 13034.97,-7325"/>
<text text-anchor="middle" x="12832.35" y="-7229.38" font-family="sans" font-size="90.00">thermald</text>
</g>
<!-- 140026548401728&#45;&gt;140026365033536 -->
<g id="edge59" class="edge">
<title>140026548401728&#45;&gt;140026365033536</title>
<path fill="none" stroke="darkgoldenrod" d="M12629.42,-7182.89C12627.38,-7182.26 12625.36,-7181.62 12623.35,-7181 9971.2,-6357.59 6722.13,-5494.33 5754.84,-5240.34"/>
<polygon fill="darkgoldenrod" stroke="darkgoldenrod" points="5755.94,-5237.01 5745.38,-5237.86 5754.16,-5243.78 5755.94,-5237.01"/>
</g>
<!-- 140026548401760&#45;&gt;140026548897376 -->
<g id="edge120" class="edge">
<title>140026548401760&#45;&gt;140026548897376</title>
<path fill="none" stroke="darkviolet" d="M13889.91,-11356.91C13906.29,-11085.04 13956.86,-10085.52 13872.35,-9269 13793.55,-8507.73 13559.86,-7608.23 13485.99,-7336.02"/>
<polygon fill="darkviolet" stroke="darkviolet" points="13489.41,-7335.25 13483.41,-7326.52 13482.66,-7337.09 13489.41,-7335.25"/>
</g>
<!-- 140026548401760&#45;&gt;140026364642400 -->
<g id="edge140" class="edge">
<title>140026548401760&#45;&gt;140026364642400</title>
<path fill="none" stroke="darkviolet" d="M13887.52,-11356.62C13895.31,-11096.4 13921.85,-10174.01 13930.35,-9413 13940.76,-8480.01 13779.51,-8255.62 13712.35,-7325 13654.04,-6517.09 13644.29,-5535.59 13642.67,-5248.52"/>
<polygon fill="darkviolet" stroke="darkviolet" points="13646.17,-5248.89 13642.62,-5238.91 13639.17,-5248.93 13646.17,-5248.89"/>
</g>
<!-- 140026548401760&#45;&gt;140026365033536 -->
<g id="edge60" class="edge">
<title>140026548401760&#45;&gt;140026365033536</title>
<path fill="none" stroke="darkviolet" d="M13888.3,-11356.62C13898.88,-11084.73 13931.77,-10087.91 13882.35,-9269 13868.27,-9035.77 13787.11,-7356.05 13632.35,-7181 12555.88,-5963.41 7175.63,-5339.36 5794.1,-5197.61"/>
<polygon fill="darkviolet" stroke="darkviolet" points="5794.59,-5194.14 5784.29,-5196.6 5793.88,-5201.1 5794.59,-5194.14"/>
</g>
<!-- 140026548401760&#45;&gt;140026548899552 -->
<g id="edge78" class="edge">
<title>140026548401760&#45;&gt;140026548899552</title>
<path fill="none" stroke="darkviolet" d="M13808.55,-11356.8C13466.1,-11039.31 12079.55,-9753.82 11720.55,-9420.99"/>
<polygon fill="darkviolet" stroke="darkviolet" points="11723.09,-9418.57 11713.37,-9414.34 11718.33,-9423.7 11723.09,-9418.57"/>
</g>
<!-- 140026548401760&#45;&gt;140026548862976 -->
<g id="edge145" class="edge">
<title>140026548401760&#45;&gt;140026548862976</title>
<path fill="none" stroke="darkviolet" d="M13908.97,-11356.87C14075.1,-10856.56 15066.53,-7870.82 15244.12,-7335.99"/>
<polygon fill="darkviolet" stroke="darkviolet" points="15247.37,-7337.33 15247.2,-7326.73 15240.72,-7335.12 15247.37,-7337.33"/>
</g>
<!-- 140026548420448 -->
<g id="node53" class="node">
<title>140026548420448</title>
<polygon fill="white" stroke="black" points="12053.6,-11501 10539.1,-11501 10539.1,-11357 12053.6,-11357 12053.6,-11501"/>
<text text-anchor="middle" x="11296.35" y="-11405.38" font-family="sans" font-size="90.00">brightnessctl&#45;udev&#45;rules&#45;udev&#45;rules</text>
</g>
<!-- 140026548420448&#45;&gt;140026548899552 -->
<g id="edge71" class="edge">
<title>140026548420448&#45;&gt;140026548899552</title>
<path fill="none" stroke="dimgrey" d="M11307.92,-11356.8C11359.34,-11040.41 11566.98,-9762.67 11621.95,-9424.47"/>
<polygon fill="dimgrey" stroke="dimgrey" points="11625.37,-9425.24 11623.52,-9414.8 11618.46,-9424.11 11625.37,-9425.24"/>
</g>
<!-- 140026548420448&#45;&gt;140026340697472 -->
<g id="edge103" class="edge">
<title>140026548420448&#45;&gt;140026340697472</title>
<path fill="none" stroke="dimgrey" d="M11221.22,-11356.8C10886.23,-11039.31 9529.87,-9753.82 9178.7,-9420.99"/>
<polygon fill="dimgrey" stroke="dimgrey" points="9181.35,-9418.69 9171.69,-9414.35 9176.54,-9423.77 9181.35,-9418.69"/>
</g>
<!-- 140026548412512 -->
<g id="node54" class="node">
<title>140026548412512</title>
<polygon fill="white" stroke="black" points="10532.1,-11501 9014.6,-11501 9014.6,-11357 10532.1,-11357 10532.1,-11501"/>
<text text-anchor="middle" x="9773.35" y="-11405.38" font-family="sans" font-size="90.00">pipewire&#45;add&#45;udev&#45;rules&#45;udev&#45;rules</text>
</g>
<!-- 140026548412512&#45;&gt;140026548899552 -->
<g id="edge72" class="edge">
<title>140026548412512&#45;&gt;140026548899552</title>
<path fill="none" stroke="#00cdcd" d="M9836.9,-11356.8C10120.16,-11039.47 11266.62,-9755.09 11564.4,-9421.49"/>
<polygon fill="#00cdcd" stroke="#00cdcd" points="11566.64,-9424.23 11570.69,-9414.44 11561.42,-9419.57 11566.64,-9424.23"/>
</g>
<!-- 140026548412512&#45;&gt;140026340697472 -->
<g id="edge104" class="edge">
<title>140026548412512&#45;&gt;140026340697472</title>
<path fill="none" stroke="#00cdcd" d="M9750.21,-11356.8C9647.35,-11040.33 9231.87,-9762.04 9122.07,-9424.22"/>
<polygon fill="#00cdcd" stroke="#00cdcd" points="9125.41,-9423.18 9118.99,-9414.75 9118.76,-9425.34 9125.41,-9423.18"/>
</g>
<!-- 140026548401792&#45;&gt;140026548897376 -->
<g id="edge121" class="edge">
<title>140026548401792&#45;&gt;140026548897376</title>
<path fill="none" stroke="darkseagreen" d="M13889.99,-13443.71C13910.25,-13183.81 13979.25,-12262.46 14001.35,-11501 14030.17,-10508.01 14012.09,-10253.9 13882.35,-9269 13782.3,-8509.48 13555.94,-7608.8 13485.02,-7336.15"/>
<polygon fill="darkseagreen" stroke="darkseagreen" points="13488.45,-7335.44 13482.54,-7326.64 13481.67,-7337.2 13488.45,-7335.44"/>
</g>
<!-- 140026548401792&#45;&gt;140026548899552 -->
<g id="edge79" class="edge">
<title>140026548401792&#45;&gt;140026548899552</title>
<path fill="none" stroke="darkseagreen" d="M13821.27,-13443.71C13604.92,-13195.28 12886.63,-12337.25 12527.35,-11501 12501.47,-11440.76 12515.41,-11419.42 12495.35,-11357 12245.96,-10581.21 11811.66,-9692.64 11676.62,-9423.41"/>
<polygon fill="darkseagreen" stroke="darkseagreen" points="11679.85,-9422.06 11672.24,-9414.69 11673.6,-9425.2 11679.85,-9422.06"/>
</g>
<!-- 140026548401792&#45;&gt;140026548863072 -->
<g id="edge100" class="edge">
<title>140026548401792&#45;&gt;140026548863072</title>
<path fill="none" stroke="darkseagreen" d="M13878.9,-13443.71C13859.32,-13183.79 13792.48,-12262.38 13769.35,-11501 13744.76,-10691.78 13755.97,-9711.18 13760.07,-9424.43"/>
<polygon fill="darkseagreen" stroke="darkseagreen" points="13763.57,-9424.87 13760.21,-9414.82 13756.57,-9424.77 13763.57,-9424.87"/>
</g>
<!-- 140026548401792&#45;&gt;140026548401760 -->
<g id="edge83" class="edge">
<title>140026548401792&#45;&gt;140026548401760</title>
<path fill="none" stroke="darkseagreen" d="M13884.38,-13443.53C13884.53,-13126.77 13885.15,-11850.25 13885.31,-11512.38"/>
<polygon fill="darkseagreen" stroke="darkseagreen" points="13888.81,-11512.75 13885.31,-11502.75 13881.81,-11512.75 13888.81,-11512.75"/>
</g>
<!-- 140026548401792&#45;&gt;140026548862976 -->
<g id="edge146" class="edge">
<title>140026548401792&#45;&gt;140026548862976</title>
<path fill="none" stroke="darkseagreen" d="M13916.46,-13443.5C14030.58,-13186.54 14420.41,-12283.57 14621.35,-11501 15044.15,-9854.36 15229.32,-7773.41 15264.86,-7336.67"/>
<polygon fill="darkseagreen" stroke="darkseagreen" points="15268.33,-7337.2 15265.65,-7326.95 15261.35,-7336.63 15268.33,-7337.2"/>
</g>
<!-- 140026548401824 -->
<g id="node56" class="node">
<title>140026548401824</title>
<polygon fill="white" stroke="black" points="13403.6,-13588 13053.1,-13588 13053.1,-13444 13403.6,-13444 13403.6,-13588"/>
<text text-anchor="middle" x="13228.35" y="-13492.38" font-family="sans" font-size="90.00">geoclue</text>
</g>
<!-- 140026548401824&#45;&gt;140026548899552 -->
<g id="edge80" class="edge">
<title>140026548401824&#45;&gt;140026548899552</title>
<path fill="none" stroke="#00cdcd" d="M13196.29,-13443.55C13082.44,-13186.73 12694.03,-12284.2 12500.35,-11501 12484.84,-11438.28 12497.43,-11419.32 12480.35,-11357 12265.62,-10573.65 11818.94,-9691.04 11678.55,-9423.24"/>
<polygon fill="#00cdcd" stroke="#00cdcd" points="11681.74,-9421.78 11673.99,-9414.55 11675.54,-9425.03 11681.74,-9421.78"/>
</g>
<!-- 140026548401824&#45;&gt;140026548401760 -->
<g id="edge84" class="edge">
<title>140026548401824&#45;&gt;140026548401760</title>
<path fill="none" stroke="#00cdcd" d="M13250.87,-13443.53C13350.73,-13126.61 13753.32,-11848.99 13859.55,-11511.88"/>
<polygon fill="#00cdcd" stroke="#00cdcd" points="13862.78,-11513.27 13862.45,-11502.68 13856.1,-11511.17 13862.78,-11513.27"/>
</g>
<!-- 140026548402016 -->
<g id="node57" class="node">
<title>140026548402016</title>
<polygon fill="white" stroke="black" points="3461.72,-13588 2412.97,-13588 2412.97,-13444 3461.72,-13444 3461.72,-13588"/>
<text text-anchor="middle" x="2937.35" y="-13492.38" font-family="sans" font-size="90.00">add&#45;nonguix&#45;substitutes</text>
</g>
<!-- 140026548402016&#45;&gt;140026340698720 -->
<g id="edge82" class="edge">
<title>140026548402016&#45;&gt;140026340698720</title>
<path fill="none" stroke="red" d="M2904.37,-13443.53C2758.08,-13126.46 2168.08,-11847.73 2012.9,-11511.39"/>
<polygon fill="red" stroke="red" points="2016.22,-11510.23 2008.85,-11502.61 2009.86,-11513.16 2016.22,-11510.23"/>
</g>
<!-- 140026548401856 -->
<g id="node58" class="node">
<title>140026548401856</title>
<polygon fill="white" stroke="black" points="14277.85,-15676 13628.85,-15676 13628.85,-15532 14277.85,-15532 14277.85,-15676"/>
<text text-anchor="middle" x="13953.35" y="-15580.38" font-family="sans" font-size="90.00">cups&#45;pk&#45;helper</text>
</g>
<!-- 140026548401856&#45;&gt;140026548401760 -->
<g id="edge85" class="edge">
<title>140026548401856&#45;&gt;140026548401760</title>
<path fill="none" stroke="magenta" d="M13958.48,-15531.71C13977.37,-15260.13 14040.59,-14264.31 14014.35,-13444 13990.33,-12693.12 13916.05,-11787.18 13892.55,-11512.71"/>
<polygon fill="magenta" stroke="magenta" points="13896.04,-11512.44 13891.7,-11502.78 13889.07,-11513.04 13896.04,-11512.44"/>
</g>
<!-- 140026548401856&#45;&gt;140026548401792 -->
<g id="edge92" class="edge">
<title>140026548401856&#45;&gt;140026548401792</title>
<path fill="none" stroke="magenta" d="M13950.99,-15531.8C13940.53,-15215.49 13898.28,-13938.3 13887.08,-13599.72"/>
<polygon fill="magenta" stroke="magenta" points="13890.59,-13599.7 13886.76,-13589.82 13883.59,-13599.93 13890.59,-13599.7"/>
</g>
<!-- 140026694328192 -->
<g id="node59" class="node">
<title>140026694328192</title>
<polygon fill="white" stroke="black" points="13622.1,-15676 13088.6,-15676 13088.6,-15532 13622.1,-15532 13622.1,-15676"/>
<text text-anchor="middle" x="13355.35" y="-15580.38" font-family="sans" font-size="90.00">polkit&#45;wheel</text>
</g>
<!-- 140026694328192&#45;&gt;140026548401792 -->
<g id="edge95" class="edge">
<title>140026694328192&#45;&gt;140026548401792</title>
<path fill="none" stroke="dimgrey" d="M13373.4,-15531.8C13453.64,-15215.41 13777.67,-13937.67 13863.43,-13599.47"/>
<polygon fill="dimgrey" stroke="dimgrey" points="13866.83,-13600.33 13865.89,-13589.78 13860.04,-13598.61 13866.83,-13600.33"/>
</g>
<!-- 140026340699840 -->
<g id="node60" class="node">
<title>140026340699840</title>
<polygon fill="white" stroke="black" points="13735.47,-11501 13507.22,-11501 13507.22,-11357 13735.47,-11357 13735.47,-11501"/>
<text text-anchor="middle" x="13621.35" y="-11405.38" font-family="sans" font-size="90.00">login</text>
</g>
<!-- 140026340699840&#45;&gt;140026548863072 -->
<g id="edge97" class="edge">
<title>140026340699840&#45;&gt;140026548863072</title>
<path fill="none" stroke="blue" d="M13626.13,-11356.8C13647.36,-11040.49 13733.07,-9763.3 13755.8,-9424.72"/>
<polygon fill="blue" stroke="blue" points="13759.28,-9425.03 13756.46,-9414.82 13752.3,-9424.56 13759.28,-9425.03"/>
</g>
<!-- 140026548377440 -->
<g id="node61" class="node">
<title>140026548377440</title>
<polygon fill="white" stroke="black" points="14617.47,-11501 14035.22,-11501 14035.22,-11357 14617.47,-11357 14617.47,-11501"/>
<text text-anchor="middle" x="14326.35" y="-11405.38" font-family="sans" font-size="90.00">screen&#45;locker</text>
</g>
<!-- 140026548377440&#45;&gt;140026548863072 -->
<g id="edge101" class="edge">
<title>140026548377440&#45;&gt;140026548863072</title>
<path fill="none" stroke="darkseagreen" d="M14307.06,-11356.8C14221.35,-11040.33 13875.12,-9762.04 13783.62,-9424.22"/>
<polygon fill="darkseagreen" stroke="darkseagreen" points="13787.05,-9423.51 13781.06,-9414.77 13780.29,-9425.34 13787.05,-9423.51"/>
</g>
<!-- 140026548377440&#45;&gt;140026548862976 -->
<g id="edge147" class="edge">
<title>140026548377440&#45;&gt;140026548862976</title>
<path fill="none" stroke="darkseagreen" d="M14335.6,-11356.62C14371.6,-11083.71 14509.49,-10080.93 14694.35,-9269 14867.63,-8507.91 15155.64,-7607.52 15244.45,-7335.66"/>
<polygon fill="darkseagreen" stroke="darkseagreen" points="15247.65,-7337.13 15247.43,-7326.54 15240.99,-7334.95 15247.65,-7337.13"/>
</g>
<!-- 140026548420288 -->
<g id="node62" class="node">
<title>140026548420288</title>
<polygon fill="white" stroke="black" points="765.47,-9413 27.22,-9413 27.22,-9269 765.47,-9269 765.47,-9413"/>
<text text-anchor="middle" x="396.35" y="-9317.38" font-family="sans" font-size="90.00">system&#45;cron&#45;jobs</text>
</g>
<!-- 140026548420288&#45;&gt;140026548901280 -->
<g id="edge109" class="edge">
<title>140026548420288&#45;&gt;140026548901280</title>
<path fill="none" stroke="darkseagreen" d="M403.99,-9268.8C437.96,-8952.49 575.11,-7675.3 611.47,-7336.72"/>
<polygon fill="darkseagreen" stroke="darkseagreen" points="614.94,-7337.13 612.53,-7326.81 607.98,-7336.38 614.94,-7337.13"/>
</g>
<!-- 140026548896384&#45;&gt;140026548897376 -->
<g id="edge110" class="edge">
<title>140026548896384&#45;&gt;140026548897376</title>
<path fill="none" stroke="darkgoldenrod" d="M15105.21,-13443.91C15047.03,-13172.08 14830.64,-12172.72 14621.35,-11357 14203.36,-9727.88 13615.03,-7758.14 13488.09,-7336.06"/>
<polygon fill="darkgoldenrod" stroke="darkgoldenrod" points="13491.49,-7335.22 13485.26,-7326.65 13484.79,-7337.23 13491.49,-7335.22"/>
</g>
<!-- 140026548896512&#45;&gt;140026548897376 -->
<g id="edge111" class="edge">
<title>140026548896512&#45;&gt;140026548897376</title>
<path fill="none" stroke="darkgoldenrod" d="M8947.51,-9272.04C8949.46,-9271.01 8951.41,-9270 8953.35,-9269 10846.79,-8292.98 11425.95,-8271.43 13334.35,-7325 13337.83,-7323.27 13341.36,-7321.5 13344.91,-7319.69"/>
<polygon fill="darkgoldenrod" stroke="darkgoldenrod" points="13346.32,-7322.9 13353.61,-7315.21 13343.12,-7316.68 13346.32,-7322.9"/>
</g>
<!-- 140026548896992 -->
<g id="node65" class="node">
<title>140026548896992</title>
<polygon fill="white" stroke="black" points="13571.35,-9413 13171.35,-9413 13171.35,-9269 13571.35,-9269 13571.35,-9413"/>
<text text-anchor="middle" x="13371.35" y="-9317.38" font-family="sans" font-size="90.00">etc&#45;hosts</text>
</g>
<!-- 140026548896992&#45;&gt;140026548897376 -->
<g id="edge112" class="edge">
<title>140026548896992&#45;&gt;140026548897376</title>
<path fill="none" stroke="darkseagreen" d="M13374.49,-9268.8C13388.44,-8952.49 13444.77,-7675.3 13459.7,-7336.72"/>
<polygon fill="darkseagreen" stroke="darkseagreen" points="13463.19,-7336.97 13460.14,-7326.82 13456.2,-7336.66 13463.19,-7336.97"/>
</g>
<!-- 140026340698816 -->
<g id="node66" class="node">
<title>140026340698816</title>
<polygon fill="white" stroke="black" points="13149.1,-9413 12609.6,-9413 12609.6,-9269 13149.1,-9269 13149.1,-9413"/>
<text text-anchor="middle" x="12879.35" y="-9317.38" font-family="sans" font-size="90.00">etc&#45;bashrc&#45;d</text>
</g>
<!-- 140026340698816&#45;&gt;140026548897376 -->
<g id="edge117" class="edge">
<title>140026340698816&#45;&gt;140026548897376</title>
<path fill="none" stroke="dimgrey" d="M12899.28,-9268.8C12987.88,-8952.33 13345.75,-7674.04 13440.33,-7336.22"/>
<polygon fill="dimgrey" stroke="dimgrey" points="13443.65,-7337.34 13442.98,-7326.77 13436.91,-7335.45 13443.65,-7337.34"/>
</g>
<!-- 140026548896096 -->
<g id="node67" class="node">
<title>140026548896096</title>
<polygon fill="white" stroke="black" points="14126.6,-7325 13728.1,-7325 13728.1,-7181 14126.6,-7181 14126.6,-7325"/>
<text text-anchor="middle" x="13927.35" y="-7229.38" font-family="sans" font-size="90.00">firmware</text>
</g>
<!-- 140026548896096&#45;&gt;140026364642400 -->
<g id="edge125" class="edge">
<title>140026548896096&#45;&gt;140026364642400</title>
<path fill="none" stroke="darkgoldenrod" d="M13917.62,-7180.8C13874.39,-6864.41 13699.82,-5586.67 13653.62,-5248.47"/>
<polygon fill="darkgoldenrod" stroke="darkgoldenrod" points="13657.12,-5248.24 13652.3,-5238.81 13650.18,-5249.19 13657.12,-5248.24"/>
</g>
<!-- 140026364641984 -->
<g id="node68" class="node">
<title>140026364641984</title>
<polygon fill="white" stroke="black" points="14845.35,-7325 14133.35,-7325 14133.35,-7181 14845.35,-7181 14845.35,-7325"/>
<text text-anchor="middle" x="14489.35" y="-7229.38" font-family="sans" font-size="90.00">linux&#45;bare&#45;metal</text>
</g>
<!-- 140026364641984&#45;&gt;140026364642400 -->
<g id="edge126" class="edge">
<title>140026364641984&#45;&gt;140026364642400</title>
<path fill="none" stroke="#8b7765" d="M14460.44,-7180.8C14331.91,-6864.25 13812.64,-5585.4 13675.63,-5247.97"/>
<polygon fill="#8b7765" stroke="#8b7765" points="13678.88,-5246.66 13671.87,-5238.71 13672.39,-5249.29 13678.88,-5246.66"/>
</g>
<!-- 140026548862976&#45;&gt;140026364642400 -->
<g id="edge129" class="edge">
<title>140026548862976&#45;&gt;140026364642400</title>
<path fill="none" stroke="#00cdcd" d="M15215.75,-7180.8C14968.06,-6863.63 13965.92,-5580.35 13704.81,-5245.98"/>
<polygon fill="#00cdcd" stroke="#00cdcd" points="13707.88,-5244.23 13698.97,-5238.5 13702.36,-5248.54 13707.88,-5244.23"/>
</g>
<!-- 140026340696960 -->
<g id="node70" class="node">
<title>140026340696960</title>
<polygon fill="white" stroke="black" points="16218.22,-7325 15712.47,-7325 15712.47,-7181 16218.22,-7181 16218.22,-7325"/>
<text text-anchor="middle" x="15965.35" y="-7229.38" font-family="sans" font-size="90.00">special&#45;files</text>
</g>
<!-- 140026340696960&#45;&gt;140026364642400 -->
<g id="edge130" class="edge">
<title>140026340696960&#45;&gt;140026364642400</title>
<path fill="none" stroke="blue" d="M15886.06,-7180.8C15532.5,-6863.31 14100.96,-5577.82 13730.32,-5244.99"/>
<polygon fill="blue" stroke="blue" points="13732.67,-5242.4 13722.89,-5238.32 13727.99,-5247.61 13732.67,-5242.4"/>
</g>
<!-- 140026548863392 -->
<g id="node71" class="node">
<title>140026548863392</title>
<polygon fill="white" stroke="black" points="16620.6,-5237 16270.1,-5237 16270.1,-5093 16620.6,-5093 16620.6,-5237"/>
<text text-anchor="middle" x="16445.35" y="-5141.38" font-family="sans" font-size="90.00">cleanup</text>
</g>
<!-- 140026548863392&#45;&gt;140026364642688 -->
<g id="edge150" class="edge">
<title>140026548863392&#45;&gt;140026364642688</title>
<path fill="none" stroke="red" d="M16348.82,-5092.8C15917.98,-4775 14172.22,-3487.29 13723.11,-3156.01"/>
<polygon fill="red" stroke="red" points="13725.37,-3153.33 13715.24,-3150.21 13721.21,-3158.96 13725.37,-3153.33"/>
</g>
</g>
</svg>
