<?xml version="1.0" encoding="UTF-8" standalone="no"?>
<!DOCTYPE svg PUBLIC "-//W3C//DTD SVG 1.1//EN"
 "http://www.w3.org/Graphics/SVG/1.1/DTD/svg11.dtd">
<!-- Generated by graphviz version 12.2.1 (0)
 -->
<!-- Title: Guix service Pages: 1 -->
<svg width="21082pt" height="10512pt"
 viewBox="0.00 0.00 21082.00 10512.00" xmlns="http://www.w3.org/2000/svg" xmlns:xlink="http://www.w3.org/1999/xlink">
<g id="graph0" class="graph" transform="scale(1 1) rotate(0) translate(4 10508)">
<title>Guix service</title>
<polygon fill="white" stroke="none" points="-4,4 -4,-10508 21078,-10508 21078,4 -4,4"/>
<!-- 139726316338944 -->
<g id="node1" class="node">
<title>139726316338944</title>
<polygon fill="none" stroke="black" points="17307,-828 16659,-828 16659,-396 17307,-396 17307,-828"/>
<text text-anchor="middle" x="16983" y="-596.25" font-family="sans" font-size="60.00">system</text>
</g>
<!-- 139726316341120 -->
<g id="node2" class="node">
<title>139726316341120</title>
<polygon fill="none" stroke="black" points="1744,-2154 1096,-2154 1096,-1722 1744,-1722 1744,-2154"/>
<text text-anchor="middle" x="1420" y="-1922.25" font-family="sans" font-size="60.00">profile</text>
</g>
<!-- 139726316341120&#45;&gt;139726316338944 -->
<g id="edge1" class="edge">
<title>139726316341120&#45;&gt;139726316338944</title>
<path fill="none" stroke="#8b7765" d="M1744.16,-1909.42C3763.22,-1737.65 14596.27,-816.05 16647.63,-641.53"/>
<polygon fill="#8b7765" stroke="#8b7765" points="16647.66,-645.04 16657.32,-640.71 16647.06,-638.07 16647.66,-645.04"/>
</g>
<!-- 139726316342528 -->
<g id="node3" class="node">
<title>139726316342528</title>
<polygon fill="none" stroke="black" points="17212,-4805 16564,-4805 16564,-4373 17212,-4373 17212,-4805"/>
<text text-anchor="middle" x="16888" y="-4573.25" font-family="sans" font-size="60.00">etc</text>
</g>
<!-- 139726316342528&#45;&gt;139726316338944 -->
<g id="edge2" class="edge">
<title>139726316342528&#45;&gt;139726316338944</title>
<path fill="none" stroke="darkviolet" d="M16892.73,-4372.73C16903.26,-3895.48 16929.65,-2712.44 16954,-1722 16961.51,-1416.56 16970.85,-1063.82 16976.87,-839.69"/>
<polygon fill="darkviolet" stroke="darkviolet" points="16980.36,-840.05 16977.13,-829.96 16973.36,-839.86 16980.36,-840.05"/>
</g>
<!-- 139726132976448 -->
<g id="node4" class="node">
<title>139726132976448</title>
<polygon fill="none" stroke="black" points="17678,-3479 17030,-3479 17030,-3047 17678,-3047 17678,-3479"/>
<text text-anchor="middle" x="17354" y="-3247.25" font-family="sans" font-size="60.00">activate</text>
</g>
<!-- 139726316342528&#45;&gt;139726132976448 -->
<g id="edge127" class="edge">
<title>139726316342528&#45;&gt;139726132976448</title>
<path fill="none" stroke="darkviolet" d="M16963.78,-4372.7C17049.21,-4129.96 17187.51,-3737.03 17274.46,-3489.98"/>
<polygon fill="darkviolet" stroke="darkviolet" points="17277.66,-3491.45 17277.67,-3480.86 17271.05,-3489.13 17277.66,-3491.45"/>
</g>
<!-- 139726132976448&#45;&gt;139726316338944 -->
<g id="edge3" class="edge">
<title>139726132976448&#45;&gt;139726316338944</title>
<path fill="none" stroke="darkgoldenrod" d="M17264.63,-3046.69C17178.37,-2826.75 17053.5,-2473.19 17002,-2154 16927.43,-1691.85 16945.92,-1141.61 16965.09,-839.56"/>
<polygon fill="darkgoldenrod" stroke="darkgoldenrod" points="16968.56,-840.19 16965.7,-829.98 16961.57,-839.74 16968.56,-840.19"/>
</g>
<!-- 139726132976736 -->
<g id="node5" class="node">
<title>139726132976736</title>
<polygon fill="none" stroke="black" points="17659,-2154 17011,-2154 17011,-1722 17659,-1722 17659,-2154"/>
<text text-anchor="middle" x="17335" y="-1922.25" font-family="sans" font-size="60.00">boot</text>
</g>
<!-- 139726132976448&#45;&gt;139726132976736 -->
<g id="edge149" class="edge">
<title>139726132976448&#45;&gt;139726132976736</title>
<path fill="none" stroke="darkgoldenrod" d="M17350.91,-3046.86C17347.43,-2804.55 17341.8,-2412.45 17338.25,-2165.55"/>
<polygon fill="darkgoldenrod" stroke="darkgoldenrod" points="17341.76,-2165.73 17338.11,-2155.78 17334.76,-2165.83 17341.76,-2165.73"/>
</g>
<!-- 139726132976736&#45;&gt;139726316338944 -->
<g id="edge4" class="edge">
<title>139726132976736&#45;&gt;139726316338944</title>
<path fill="none" stroke="darkseagreen" d="M17277.76,-1721.7C17213.26,-1479.08 17108.86,-1086.42 17043.18,-839.35"/>
<polygon fill="darkseagreen" stroke="darkseagreen" points="17046.62,-838.66 17040.66,-829.89 17039.85,-840.46 17046.62,-838.66"/>
</g>
<!-- 139726316338752 -->
<g id="node6" class="node">
<title>139726316338752</title>
<polygon fill="none" stroke="black" points="18325,-2154 17677,-2154 17677,-1722 18325,-1722 18325,-2154"/>
<text text-anchor="middle" x="18001" y="-1922.25" font-family="sans" font-size="60.00">linux&#45;builder</text>
</g>
<!-- 139726316338752&#45;&gt;139726316338944 -->
<g id="edge5" class="edge">
<title>139726316338752&#45;&gt;139726316338944</title>
<path fill="none" stroke="#00cdcd" d="M17835.46,-1721.7C17648.45,-1478.48 17345.5,-1084.47 17155.63,-837.52"/>
<polygon fill="#00cdcd" stroke="#00cdcd" points="17158.43,-835.42 17149.56,-829.63 17152.88,-839.69 17158.43,-835.42"/>
</g>
<!-- 139726315992864 -->
<g id="node7" class="node">
<title>139726315992864</title>
<polygon fill="none" stroke="black" points="1646,-7457 998,-7457 998,-7025 1646,-7025 1646,-7457"/>
<text text-anchor="middle" x="1322" y="-7225.25" font-family="sans" font-size="60.00">file&#45;systems</text>
</g>
<!-- 139726315992864&#45;&gt;139726316341120 -->
<g id="edge6" class="edge">
<title>139726315992864&#45;&gt;139726316341120</title>
<path fill="none" stroke="darkgoldenrod" d="M997.71,-7065.4C690.6,-6879.6 248.76,-6554.14 57,-6131 -23.63,-5953.08 20.09,-4564.81 57,-4373 176.94,-3749.77 275.81,-3600.14 587,-3047 771.49,-2719.06 1041.34,-2378.41 1223.47,-2162.89"/>
<polygon fill="darkgoldenrod" stroke="darkgoldenrod" points="1225.96,-2165.37 1229.74,-2155.48 1220.61,-2160.85 1225.96,-2165.37"/>
</g>
<!-- 139726133354144 -->
<g id="node9" class="node">
<title>139726133354144</title>
<polygon fill="none" stroke="black" points="6626,-3479 5978,-3479 5978,-3047 6626,-3047 6626,-3479"/>
<text text-anchor="middle" x="6302" y="-3247.25" font-family="sans" font-size="60.00">shepherd&#45;root</text>
</g>
<!-- 139726315992864&#45;&gt;139726133354144 -->
<g id="edge24" class="edge">
<title>139726315992864&#45;&gt;139726133354144</title>
<path fill="none" stroke="darkgoldenrod" d="M1344.07,-7024.68C1411.96,-6366.5 1615.76,-4422.76 1660,-4373 2238.95,-3721.92 4999.3,-3392.15 5966.38,-3295.16"/>
<polygon fill="darkgoldenrod" stroke="darkgoldenrod" points="5966.56,-3298.66 5976.17,-3294.18 5965.87,-3291.69 5966.56,-3298.66"/>
</g>
<!-- 139726315991552 -->
<g id="node24" class="node">
<title>139726315991552</title>
<polygon fill="none" stroke="black" points="2464,-4805 1816,-4805 1816,-4373 2464,-4373 2464,-4805"/>
<text text-anchor="middle" x="2140" y="-4573.25" font-family="sans" font-size="60.00">user&#45;processes</text>
</g>
<!-- 139726315992864&#45;&gt;139726315991552 -->
<g id="edge66" class="edge">
<title>139726315992864&#45;&gt;139726315991552</title>
<path fill="none" stroke="darkgoldenrod" d="M1646.41,-7028.25C1914.62,-6832.04 2276.25,-6513.29 2435,-6131 2532.5,-5896.22 2330.98,-5184.55 2214.66,-4816.25"/>
<polygon fill="darkgoldenrod" stroke="darkgoldenrod" points="2218.06,-4815.38 2211.7,-4806.9 2211.38,-4817.49 2218.06,-4815.38"/>
</g>
<!-- 139726316341376 -->
<g id="node64" class="node">
<title>139726316341376</title>
<polygon fill="none" stroke="black" points="12245,-6131 11597,-6131 11597,-5699 12245,-5699 12245,-6131"/>
<text text-anchor="middle" x="11921" y="-5899.25" font-family="sans" font-size="60.00">fstab</text>
</g>
<!-- 139726315992864&#45;&gt;139726316341376 -->
<g id="edge124" class="edge">
<title>139726315992864&#45;&gt;139726316341376</title>
<path fill="none" stroke="darkgoldenrod" d="M1646.43,-7090.25C1711.12,-7065.09 1779.36,-7041.75 1845,-7025 5580.48,-6071.87 10300.94,-5937.89 11585.48,-5919.07"/>
<polygon fill="darkgoldenrod" stroke="darkgoldenrod" points="11585.25,-5922.58 11595.2,-5918.93 11585.15,-5915.58 11585.25,-5922.58"/>
</g>
<!-- 139726315994624 -->
<g id="node8" class="node">
<title>139726315994624</title>
<polygon fill="none" stroke="black" points="1579.75,-3479 884.25,-3479 884.25,-3047 1579.75,-3047 1579.75,-3479"/>
<text text-anchor="middle" x="1232" y="-3247.25" font-family="sans" font-size="60.00">boot&#45;file&#45;system&#45;utilities</text>
</g>
<!-- 139726315994624&#45;&gt;139726316341120 -->
<g id="edge7" class="edge">
<title>139726315994624&#45;&gt;139726316341120</title>
<path fill="none" stroke="darkgoldenrod" d="M1262.57,-3046.86C1297,-2804.55 1352.72,-2412.45 1387.81,-2165.55"/>
<polygon fill="darkgoldenrod" stroke="darkgoldenrod" points="1391.26,-2166.16 1389.2,-2155.77 1384.33,-2165.17 1391.26,-2166.16"/>
</g>
<!-- 139726133354144&#45;&gt;139726316341120 -->
<g id="edge8" class="edge">
<title>139726133354144&#45;&gt;139726316341120</title>
<path fill="none" stroke="red" d="M5977.9,-3174.17C5094.61,-2934.8 2651.37,-2272.7 1755.19,-2029.83"/>
<polygon fill="red" stroke="red" points="1756.42,-2026.54 1745.85,-2027.3 1754.58,-2033.3 1756.42,-2026.54"/>
</g>
<!-- 139726133354144&#45;&gt;139726132976736 -->
<g id="edge148" class="edge">
<title>139726133354144&#45;&gt;139726132976736</title>
<path fill="none" stroke="red" d="M6626.22,-3223.12C8236.66,-3030.01 15363.38,-2175.42 16999.44,-1979.24"/>
<polygon fill="red" stroke="red" points="16999.75,-1982.73 17009.26,-1978.06 16998.91,-1975.78 16999.75,-1982.73"/>
</g>
<!-- 139726109126464 -->
<g id="node10" class="node">
<title>139726109126464</title>
<polygon fill="none" stroke="black" points="2502,-7457 1854,-7457 1854,-7025 2502,-7025 2502,-7457"/>
<text text-anchor="middle" x="2178" y="-7225.25" font-family="sans" font-size="60.00">guix</text>
</g>
<!-- 139726109126464&#45;&gt;139726316341120 -->
<g id="edge9" class="edge">
<title>139726109126464&#45;&gt;139726316341120</title>
<path fill="none" stroke="darkviolet" d="M2017.51,-7024.78C1724.33,-6617.18 1110.68,-5693.65 875,-4805 824.92,-4616.15 792.28,-3236.71 839,-3047 919.99,-2718.14 1117.88,-2378.82 1260.21,-2163.79"/>
<polygon fill="darkviolet" stroke="darkviolet" points="1263.06,-2165.81 1265.68,-2155.55 1257.23,-2161.94 1263.06,-2165.81"/>
</g>
<!-- 139726109126464&#45;&gt;139726132976448 -->
<g id="edge132" class="edge">
<title>139726109126464&#45;&gt;139726132976448</title>
<path fill="none" stroke="darkviolet" d="M2234.14,-7024.86C2343.06,-6611.12 2577.02,-5741.43 2630,-5699 5017.47,-3787.07 14165.51,-6930.5 16365,-4805 16434.37,-4737.96 16370.19,-4461.76 16408,-4373 16559.31,-4017.83 16866.21,-3692.14 17089.55,-3486.93"/>
<polygon fill="darkviolet" stroke="darkviolet" points="17091.66,-3489.73 17096.67,-3480.39 17086.93,-3484.57 17091.66,-3489.73"/>
</g>
<!-- 139726109126464&#45;&gt;139726133354144 -->
<g id="edge37" class="edge">
<title>139726109126464&#45;&gt;139726133354144</title>
<path fill="none" stroke="darkviolet" d="M2072.58,-7024.7C1971.7,-6805.8 1826.64,-6453.85 1769,-6131 1730.44,-5915.03 1659.35,-4518.56 1774,-4373 2299.82,-3705.45 5009.64,-3386.86 5966.73,-3293.9"/>
<polygon fill="darkviolet" stroke="darkviolet" points="5966.79,-3297.41 5976.4,-3292.97 5966.11,-3290.45 5966.79,-3297.41"/>
</g>
<!-- 139726316335744 -->
<g id="node26" class="node">
<title>139726316335744</title>
<polygon fill="none" stroke="black" points="14948,-6131 14300,-6131 14300,-5699 14948,-5699 14948,-6131"/>
<text text-anchor="middle" x="14624" y="-5899.25" font-family="sans" font-size="60.00">account</text>
</g>
<!-- 139726109126464&#45;&gt;139726316335744 -->
<g id="edge69" class="edge">
<title>139726109126464&#45;&gt;139726316335744</title>
<path fill="none" stroke="darkviolet" d="M2502.23,-7210.24C3814.28,-7089.09 8857.55,-6616.29 12996,-6131 13443.78,-6078.49 13959.59,-6008.81 14288.5,-5963.21"/>
<polygon fill="darkviolet" stroke="darkviolet" points="14288.71,-5966.72 14298.13,-5961.88 14287.75,-5959.78 14288.71,-5966.72"/>
</g>
<!-- 139726315957792 -->
<g id="node11" class="node">
<title>139726315957792</title>
<polygon fill="none" stroke="black" points="3510,-8782 2862,-8782 2862,-8350 3510,-8350 3510,-8782"/>
<text text-anchor="middle" x="3186" y="-8550.25" font-family="sans" font-size="60.00">nix</text>
</g>
<!-- 139726315957792&#45;&gt;139726316341120 -->
<g id="edge10" class="edge">
<title>139726315957792&#45;&gt;139726316341120</title>
<path fill="none" stroke="magenta" d="M2890.34,-8349.67C2542.72,-8091.69 1994.13,-7667.91 1845,-7457 1754.43,-7328.91 902.36,-4959.47 875,-4805 841.51,-4615.94 811.52,-4554.2 875,-4373 1043.12,-3893.09 1420.88,-3958.91 1589,-3479 1671.95,-3242.23 1544.26,-2532.75 1468.88,-2165.24"/>
<polygon fill="magenta" stroke="magenta" points="1472.35,-2164.77 1466.91,-2155.68 1465.5,-2166.18 1472.35,-2164.77"/>
</g>
<!-- 139726315957792&#45;&gt;139726316342528 -->
<g id="edge118" class="edge">
<title>139726315957792&#45;&gt;139726316342528</title>
<path fill="none" stroke="magenta" d="M3510.2,-8544.45C5008.16,-8446.76 11214.08,-8010.98 11864,-7457 12331.51,-7058.51 12136.4,-6733.93 12254,-6131 12272.47,-6036.31 12232.67,-5770.9 12297,-5699 13566.99,-4279.66 14700,-5461.08 16488,-4805 16509.56,-4797.09 16531.4,-4788.19 16553.17,-4778.64"/>
<polygon fill="magenta" stroke="magenta" points="16554.4,-4781.92 16562.12,-4774.66 16551.56,-4775.52 16554.4,-4781.92"/>
</g>
<!-- 139726315957792&#45;&gt;139726132976448 -->
<g id="edge133" class="edge">
<title>139726315957792&#45;&gt;139726132976448</title>
<path fill="none" stroke="magenta" d="M3510.49,-8357.01C3515.01,-8354.63 3519.51,-8352.3 3524,-8350 4940.63,-7625.36 5345.44,-7542.9 6850,-7025 8839.23,-6340.26 9345.77,-6179.28 11394,-5699 13594.41,-5183.03 14878.37,-6476.13 16400,-4805 16464.86,-4733.77 16399.62,-4462.2 16436,-4373 16580.17,-4019.55 16879.04,-3693.13 17096.72,-3487.27"/>
<polygon fill="magenta" stroke="magenta" points="17099.1,-3489.84 17103.98,-3480.43 17094.3,-3484.74 17099.1,-3489.84"/>
</g>
<!-- 139726315957792&#45;&gt;139726315992864 -->
<g id="edge21" class="edge">
<title>139726315957792&#45;&gt;139726315992864</title>
<path fill="none" stroke="magenta" d="M2882.63,-8349.68C2539.1,-8105.86 1982.15,-7710.55 1634.78,-7464"/>
<polygon fill="magenta" stroke="magenta" points="1637.01,-7461.29 1626.83,-7458.35 1632.95,-7467 1637.01,-7461.29"/>
</g>
<!-- 139726315957792&#45;&gt;139726133354144 -->
<g id="edge50" class="edge">
<title>139726315957792&#45;&gt;139726133354144</title>
<path fill="none" stroke="magenta" d="M3042.08,-8349.72C2906.94,-8134.25 2713.43,-7788.05 2630,-7457 2588.12,-7290.81 2451.44,-4510.31 2554,-4373 2970.51,-3815.39 5126.02,-3439.34 5966.2,-3311.91"/>
<polygon fill="magenta" stroke="magenta" points="5966.69,-3315.38 5976.05,-3310.42 5965.64,-3308.46 5966.69,-3315.38"/>
</g>
<!-- 139726315957792&#45;&gt;139726316335744 -->
<g id="edge70" class="edge">
<title>139726315957792&#45;&gt;139726316335744</title>
<path fill="none" stroke="magenta" d="M3510.3,-8560.37C5341.17,-8530.93 14331.43,-8341.81 15138,-7457 15202.67,-7386.05 15158.67,-7118.75 15138,-7025 15066.48,-6700.62 14890.25,-6358.3 14764.1,-6141.25"/>
<polygon fill="magenta" stroke="magenta" points="14767.14,-6139.52 14759.08,-6132.64 14761.1,-6143.05 14767.14,-6139.52"/>
</g>
<!-- 139726315949056 -->
<g id="node12" class="node">
<title>139726315949056</title>
<polygon fill="none" stroke="black" points="15129,-7457 14481,-7457 14481,-7025 15129,-7025 15129,-7457"/>
<text text-anchor="middle" x="14805" y="-7225.25" font-family="sans" font-size="60.00">openssh</text>
</g>
<!-- 139726315949056&#45;&gt;139726316341120 -->
<g id="edge11" class="edge">
<title>139726315949056&#45;&gt;139726316341120</title>
<path fill="none" stroke="magenta" d="M14480.76,-7030.55C14477.83,-7028.69 14474.91,-7026.84 14472,-7025 13834.4,-6621.71 13420.88,-6775.68 13029,-6131 12978.99,-6048.73 13063.75,-5767.41 12996,-5699 11368.3,-4055.36 4453.51,-6221.86 2625,-4805 2464.11,-4680.33 2547.23,-4562.52 2473,-4373 2150.49,-3549.6 1719.2,-2591.67 1523.88,-2164.54"/>
<polygon fill="magenta" stroke="magenta" points="1527.14,-2163.26 1519.8,-2155.62 1520.78,-2166.17 1527.14,-2163.26"/>
</g>
<!-- 139726315949056&#45;&gt;139726132976448 -->
<g id="edge136" class="edge">
<title>139726315949056&#45;&gt;139726132976448</title>
<path fill="none" stroke="magenta" d="M15129.35,-7102.45C15726.65,-6846.13 16950.63,-6305.6 17069,-6131 17096.01,-6091.15 17096.99,-5746.88 17102,-5699 17143.73,-5300.34 17179.27,-5203.66 17221,-4805 17241.04,-4613.49 17238.02,-4564.9 17254,-4373 17279.45,-4067.39 17311.76,-3714.69 17332.65,-3490.61"/>
<polygon fill="magenta" stroke="magenta" points="17336.12,-3491.17 17333.56,-3480.88 17329.15,-3490.52 17336.12,-3491.17"/>
</g>
<!-- 139726315949056&#45;&gt;139726133354144 -->
<g id="edge54" class="edge">
<title>139726315949056&#45;&gt;139726133354144</title>
<path fill="none" stroke="magenta" d="M14633.88,-7024.78C14344.69,-6678.46 13722.61,-6005.4 13029,-5699 11475.9,-5012.92 6569.16,-6073.88 5441,-4805 5377.21,-4733.26 5409.88,-4463.82 5441,-4373 5561.81,-4020.41 5845.47,-3693.37 6054.35,-3487.15"/>
<polygon fill="magenta" stroke="magenta" points="6056.62,-3489.82 6061.29,-3480.31 6051.71,-3484.84 6056.62,-3489.82"/>
</g>
<!-- 139726315949056&#45;&gt;139726316335744 -->
<g id="edge75" class="edge">
<title>139726315949056&#45;&gt;139726316335744</title>
<path fill="none" stroke="magenta" d="M14775.57,-7024.7C14742.42,-6782.2 14688.77,-6389.81 14654.99,-6142.72"/>
<polygon fill="magenta" stroke="magenta" points="14658.48,-6142.36 14653.66,-6132.93 14651.54,-6143.31 14658.48,-6142.36"/>
</g>
<!-- 139726316336128 -->
<g id="node27" class="node">
<title>139726316336128</title>
<polygon fill="none" stroke="black" points="17916,-6131 17268,-6131 17268,-5699 17916,-5699 17916,-6131"/>
<text text-anchor="middle" x="17592" y="-5899.25" font-family="sans" font-size="60.00">pam</text>
</g>
<!-- 139726315949056&#45;&gt;139726316336128 -->
<g id="edge99" class="edge">
<title>139726315949056&#45;&gt;139726316336128</title>
<path fill="none" stroke="magenta" d="M15129.47,-7085.85C15662.45,-6832.66 16717.85,-6331.28 17257.38,-6074.97"/>
<polygon fill="magenta" stroke="magenta" points="17258.76,-6078.19 17266.29,-6070.73 17255.75,-6071.86 17258.76,-6078.19"/>
</g>
<!-- 139726315924352 -->
<g id="node13" class="node">
<title>139726315924352</title>
<polygon fill="none" stroke="black" points="15928,-10108 15280,-10108 15280,-9676 15928,-9676 15928,-10108"/>
<text text-anchor="middle" x="15604" y="-9876.25" font-family="sans" font-size="60.00">libvirt</text>
</g>
<!-- 139726315924352&#45;&gt;139726316341120 -->
<g id="edge12" class="edge">
<title>139726315924352&#45;&gt;139726316341120</title>
<path fill="none" stroke="magenta" d="M15279.65,-9867.07C13112.2,-9707.12 815.3,-8798.93 799,-8782 323.93,-8288.63 742,-7926.91 742,-7242 742,-7242 742,-7242 742,-4588 742,-3903.05 577.38,-3706.32 763,-3047 857.1,-2712.75 1078.74,-2376.36 1238.6,-2163.39"/>
<polygon fill="magenta" stroke="magenta" points="1241.32,-2165.59 1244.54,-2155.5 1235.73,-2161.38 1241.32,-2165.59"/>
</g>
<!-- 139726315924352&#45;&gt;139726316342528 -->
<g id="edge119" class="edge">
<title>139726315924352&#45;&gt;139726316342528</title>
<path fill="none" stroke="magenta" d="M15664.66,-9675.73C15725.64,-9453.37 15819.11,-9095.58 15880,-8782 16030.31,-8007.89 15970.39,-7797.86 16127,-7025 16208.66,-6622.02 16293.83,-6535.97 16365,-6131 16398.36,-5941.17 16355.31,-5885.75 16403,-5699 16484.7,-5379.03 16648.85,-5034 16763.45,-4815.25"/>
<polygon fill="magenta" stroke="magenta" points="16766.44,-4817.07 16767.99,-4806.59 16760.24,-4813.82 16766.44,-4817.07"/>
</g>
<!-- 139726315924352&#45;&gt;139726132976448 -->
<g id="edge137" class="edge">
<title>139726315924352&#45;&gt;139726132976448</title>
<path fill="none" stroke="magenta" d="M15891.03,-9675.59C16155.04,-9467.44 16545.95,-9132.85 16820,-8782 17231.92,-8254.65 17315.32,-8089.07 17535,-7457 17599,-7272.86 17561.64,-7213.6 17611,-7025 17717.62,-6617.59 17854.22,-6546.14 17925,-6131 17957.27,-5941.73 17965.53,-5886.67 17925,-5699 17832.93,-5272.62 17634.81,-5225.82 17520,-4805 17395.74,-4349.52 17363.83,-3794.52 17356.05,-3490.37"/>
<polygon fill="magenta" stroke="magenta" points="17359.56,-3490.64 17355.82,-3480.73 17352.56,-3490.81 17359.56,-3490.64"/>
</g>
<!-- 139726315924352&#45;&gt;139726133354144 -->
<g id="edge55" class="edge">
<title>139726315924352&#45;&gt;139726133354144</title>
<path fill="none" stroke="magenta" d="M15279.53,-9825.5C13382.98,-9434.58 3775.35,-7340.38 2599,-4805 2558.6,-4717.92 2541.68,-4450.01 2599,-4373 3009.38,-3821.71 5133.49,-3442.67 5966.38,-3313.15"/>
<polygon fill="magenta" stroke="magenta" points="5966.8,-3316.63 5976.14,-3311.63 5965.72,-3309.71 5966.8,-3316.63"/>
</g>
<!-- 139726315924352&#45;&gt;139726316335744 -->
<g id="edge76" class="edge">
<title>139726315924352&#45;&gt;139726316335744</title>
<path fill="none" stroke="magenta" d="M15505.52,-9675.6C15410.64,-9456.08 15273.07,-9103.16 15214,-8782 15072.7,-8013.74 15355.58,-7783.53 15169,-7025 15088.85,-6699.14 14903.16,-6357.44 14770.84,-6140.93"/>
<polygon fill="magenta" stroke="magenta" points="14773.98,-6139.34 14765.77,-6132.65 14768.01,-6143 14773.98,-6139.34"/>
</g>
<!-- 139726315945312 -->
<g id="node55" class="node">
<title>139726315945312</title>
<polygon fill="none" stroke="black" points="18230,-8782 17582,-8782 17582,-8350 18230,-8350 18230,-8782"/>
<text text-anchor="middle" x="17906" y="-8550.25" font-family="sans" font-size="60.00">polkit</text>
</g>
<!-- 139726315924352&#45;&gt;139726315945312 -->
<g id="edge91" class="edge">
<title>139726315924352&#45;&gt;139726315945312</title>
<path fill="none" stroke="magenta" d="M15928.48,-9714.6C16320.37,-9500 16997.98,-9123.91 17568,-8782 17569.44,-8781.13 17570.89,-8780.26 17572.34,-8779.39"/>
<polygon fill="magenta" stroke="magenta" points="17573.9,-8782.54 17580.65,-8774.38 17570.28,-8776.55 17573.9,-8782.54"/>
</g>
<!-- 139726315949984 -->
<g id="node14" class="node">
<title>139726315949984</title>
<polygon fill="none" stroke="black" points="7507,-7457 6859,-7457 6859,-7025 7507,-7025 7507,-7457"/>
<text text-anchor="middle" x="7183" y="-7225.25" font-family="sans" font-size="60.00">docker</text>
</g>
<!-- 139726315949984&#45;&gt;139726316341120 -->
<g id="edge13" class="edge">
<title>139726315949984&#45;&gt;139726316341120</title>
<path fill="none" stroke="darkgoldenrod" d="M6858.78,-7210.16C5884.59,-7100.98 2978.69,-6628.35 1807,-4805 1595.07,-4475.19 1717.95,-3434.72 1660,-3047 1613.95,-2738.92 1533.11,-2388.29 1478.1,-2165.46"/>
<polygon fill="darkgoldenrod" stroke="darkgoldenrod" points="1481.5,-2164.62 1475.7,-2155.76 1474.7,-2166.3 1481.5,-2164.62"/>
</g>
<!-- 139726315949984&#45;&gt;139726132976448 -->
<g id="edge138" class="edge">
<title>139726315949984&#45;&gt;139726132976448</title>
<path fill="none" stroke="darkgoldenrod" d="M7507.43,-7107.03C8229.45,-6815.46 10028.43,-6112.94 11588,-5699 13705.67,-5136.92 14893.11,-6360.62 16436,-4805 16573.28,-4666.59 16433.98,-4551.65 16512,-4373 16661.36,-4031.01 16936.77,-3698.2 17131.89,-3487.86"/>
<polygon fill="darkgoldenrod" stroke="darkgoldenrod" points="17134.39,-3490.31 17138.64,-3480.6 17129.27,-3485.54 17134.39,-3490.31"/>
</g>
<!-- 139726315949984&#45;&gt;139726133354144 -->
<g id="edge56" class="edge">
<title>139726315949984&#45;&gt;139726133354144</title>
<path fill="none" stroke="darkgoldenrod" d="M6858.68,-7151.36C6080.42,-6919.01 4114.42,-6210.86 3341,-4805 3294.73,-4720.89 3286.3,-4451.89 3341,-4373 3946.05,-3500.29 5327.53,-3313.26 5966.47,-3273.97"/>
<polygon fill="darkgoldenrod" stroke="darkgoldenrod" points="5966.4,-3277.48 5976.17,-3273.38 5965.98,-3270.49 5966.4,-3277.48"/>
</g>
<!-- 139726315949984&#45;&gt;139726316335744 -->
<g id="edge77" class="edge">
<title>139726315949984&#45;&gt;139726316335744</title>
<path fill="none" stroke="darkgoldenrod" d="M7507.22,-7182.31C8728.85,-6964.94 13047.37,-6196.54 14288.26,-5975.74"/>
<polygon fill="darkgoldenrod" stroke="darkgoldenrod" points="14288.85,-5979.19 14298.08,-5973.99 14287.62,-5972.3 14288.85,-5979.19"/>
</g>
<!-- 139726315950048 -->
<g id="node15" class="node">
<title>139726315950048</title>
<polygon fill="none" stroke="black" points="1532,-4805 884,-4805 884,-4373 1532,-4373 1532,-4805"/>
<text text-anchor="middle" x="1208" y="-4573.25" font-family="sans" font-size="60.00">containerd</text>
</g>
<!-- 139726315950048&#45;&gt;139726316341120 -->
<g id="edge14" class="edge">
<title>139726315950048&#45;&gt;139726316341120</title>
<path fill="none" stroke="darkgoldenrod" d="M1100.93,-4372.82C966.3,-4074.5 765.27,-3518.7 875,-3047 950.89,-2720.78 1137.15,-2380.04 1270.79,-2164.02"/>
<polygon fill="darkgoldenrod" stroke="darkgoldenrod" points="1273.62,-2166.1 1275.92,-2155.75 1267.67,-2162.41 1273.62,-2166.1"/>
</g>
<!-- 139726315950048&#45;&gt;139726133354144 -->
<g id="edge57" class="edge">
<title>139726315950048&#45;&gt;139726133354144</title>
<path fill="none" stroke="darkgoldenrod" d="M1532.04,-4379.04C1536.7,-4376.97 1541.35,-4374.95 1546,-4373 3124.44,-3709.71 5172.07,-3402.79 5966.48,-3302.74"/>
<polygon fill="darkgoldenrod" stroke="darkgoldenrod" points="5966.81,-3306.23 5976.29,-3301.51 5965.93,-3299.28 5966.81,-3306.23"/>
</g>
<!-- 139726315945408 -->
<g id="node16" class="node">
<title>139726315945408</title>
<polygon fill="none" stroke="black" points="15871,-8782 15223,-8782 15223,-8350 15871,-8350 15871,-8782"/>
<text text-anchor="middle" x="15547" y="-8550.25" font-family="sans" font-size="60.00">upower</text>
</g>
<!-- 139726315945408&#45;&gt;139726316341120 -->
<g id="edge15" class="edge">
<title>139726315945408&#45;&gt;139726316341120</title>
<path fill="none" stroke="magenta" d="M15222.53,-8543.79C13428.95,-8420.74 4734.96,-7747.23 2694,-6131 2518.5,-5992.02 2564.54,-5881.58 2435,-5699 2135.88,-5277.41 1877.14,-5287.25 1691,-4805 1409.4,-4075.42 1700.97,-3824.41 1616,-3047 1582.4,-2739.54 1515.39,-2388.58 1469.15,-2165.53"/>
<polygon fill="magenta" stroke="magenta" points="1472.59,-2164.9 1467.13,-2155.82 1465.74,-2166.32 1472.59,-2164.9"/>
</g>
<!-- 139726315945408&#45;&gt;139726132976448 -->
<g id="edge141" class="edge">
<title>139726315945408&#45;&gt;139726132976448</title>
<path fill="none" stroke="magenta" d="M15871.4,-8375.11C16165.9,-8183.63 16584.97,-7859.24 16793,-7457 16881.75,-7285.41 16792.47,-7211.99 16841,-7025 16949.23,-6607.94 17110.16,-6548.67 17216,-6131 17263.4,-5943.96 17235.98,-5890.57 17259,-5699 17306.88,-5300.61 17356.93,-5205.28 17385,-4805 17398.43,-4613.47 17387.68,-4564.98 17385,-4373 17380.73,-4067.48 17369.85,-3714.76 17362.19,-3490.65"/>
<polygon fill="magenta" stroke="magenta" points="17365.7,-3490.8 17361.86,-3480.93 17358.7,-3491.04 17365.7,-3490.8"/>
</g>
<!-- 139726315945408&#45;&gt;139726133354144 -->
<g id="edge61" class="edge">
<title>139726315945408&#45;&gt;139726133354144</title>
<path fill="none" stroke="magenta" d="M15502.63,-8349.68C15440.73,-8051.53 15323.78,-7496.37 15215,-7025 15122.98,-6626.29 15048.63,-6536.66 14995,-6131 14982.2,-6034.15 15022.33,-4445.63 14957,-4373 14388.51,-3740.93 8162.75,-3364.66 6637.7,-3281.56"/>
<polygon fill="magenta" stroke="magenta" points="6638,-3278.07 6627.82,-3281.02 6637.62,-3285.06 6638,-3278.07"/>
</g>
<!-- 139726109125216 -->
<g id="node29" class="node">
<title>139726109125216</title>
<polygon fill="none" stroke="black" points="12987,-6131 12339,-6131 12339,-5699 12987,-5699 12987,-6131"/>
<text text-anchor="middle" x="12663" y="-5899.25" font-family="sans" font-size="60.00">udev</text>
</g>
<!-- 139726315945408&#45;&gt;139726109125216 -->
<g id="edge106" class="edge">
<title>139726315945408&#45;&gt;139726109125216</title>
<path fill="none" stroke="magenta" d="M15222.55,-8499.6C14489.29,-8344.52 12741.95,-7931.75 12406,-7457 12350.55,-7378.64 12395.09,-7120.38 12406,-7025 12441.51,-6714.44 12531.24,-6364.32 12594.64,-6142.06"/>
<polygon fill="magenta" stroke="magenta" points="12597.93,-6143.28 12597.32,-6132.7 12591.2,-6141.35 12597.93,-6143.28"/>
</g>
<!-- 139726315945280 -->
<g id="node52" class="node">
<title>139726315945280</title>
<polygon fill="none" stroke="black" points="18268,-7457 17620,-7457 17620,-7025 18268,-7025 18268,-7457"/>
<text text-anchor="middle" x="17944" y="-7225.25" font-family="sans" font-size="60.00">dbus</text>
</g>
<!-- 139726315945408&#45;&gt;139726315945280 -->
<g id="edge86" class="edge">
<title>139726315945408&#45;&gt;139726315945280</title>
<path fill="none" stroke="magenta" d="M15871.2,-8386.06C16326.21,-8134.92 17149.96,-7680.26 17610.13,-7426.28"/>
<polygon fill="magenta" stroke="magenta" points="17611.53,-7429.5 17618.59,-7421.61 17608.15,-7423.37 17611.53,-7429.5"/>
</g>
<!-- 139726315945440 -->
<g id="node17" class="node">
<title>139726315945440</title>
<polygon fill="none" stroke="black" points="18910,-10108 18262,-10108 18262,-9676 18910,-9676 18910,-10108"/>
<text text-anchor="middle" x="18586" y="-9876.25" font-family="sans" font-size="60.00">udisks</text>
</g>
<!-- 139726315945440&#45;&gt;139726316341120 -->
<g id="edge16" class="edge">
<title>139726315945440&#45;&gt;139726316341120</title>
<path fill="none" stroke="darkviolet" d="M18635.79,-9675.69C18687.28,-9452.35 18769.71,-9092.93 18839,-8782 18881.74,-8590.21 18876.53,-8538.2 18933,-8350 19418.46,-6732.15 19993.31,-6465.49 20303,-4805 20338.2,-4616.25 20403.49,-4536.6 20303,-4373 19620.76,-3262.3 18943.77,-3392.89 17687,-3047 14530.1,-2178.15 3794.56,-1974.79 1755.8,-1943.68"/>
<polygon fill="darkviolet" stroke="darkviolet" points="1755.86,-1940.18 1745.81,-1943.52 1755.76,-1947.18 1755.86,-1940.18"/>
</g>
<!-- 139726315945440&#45;&gt;139726132976448 -->
<g id="edge142" class="edge">
<title>139726315945440&#45;&gt;139726132976448</title>
<path fill="none" stroke="darkviolet" d="M18624.56,-9675.71C18730.18,-9085.72 19016.54,-7484.89 19019,-7457 19035.88,-7265.74 19072.84,-7209.3 19019,-7025 18690.72,-5901.2 17984.6,-5911.14 17601,-4805 17537.78,-4622.7 17585.03,-4564.05 17558,-4373 17514.54,-4065.87 17446.73,-3714.08 17401.36,-3490.58"/>
<polygon fill="darkviolet" stroke="darkviolet" points="17404.8,-3489.95 17399.38,-3480.85 17397.94,-3491.35 17404.8,-3489.95"/>
</g>
<!-- 139726315945440&#45;&gt;139726109125216 -->
<g id="edge107" class="edge">
<title>139726315945440&#45;&gt;139726109125216</title>
<path fill="none" stroke="darkviolet" d="M18261.7,-9680.62C18258.79,-9679.06 18255.89,-9677.52 18253,-9676 17338.86,-9195.31 16870.68,-9478.44 16108,-8782 15947.68,-8635.61 15993.68,-8534.95 15880,-8350 15625.25,-7935.55 15450.64,-7898.81 15247,-7457 15164.11,-7277.17 15265.32,-7176.66 15138,-7025 14577.63,-6357.47 13533.68,-6075.47 12998.41,-5970.47"/>
<polygon fill="darkviolet" stroke="darkviolet" points="12999.4,-5967.1 12988.92,-5968.62 12998.06,-5973.97 12999.4,-5967.1"/>
</g>
<!-- 139726315945440&#45;&gt;139726315945280 -->
<g id="edge87" class="edge">
<title>139726315945440&#45;&gt;139726315945280</title>
<path fill="none" stroke="darkviolet" d="M18545.55,-9675.51C18488.31,-9376.56 18377.57,-8819.71 18261,-8350 18184.66,-8042.39 18081.42,-7691.23 18013.8,-7468.2"/>
<polygon fill="darkviolet" stroke="darkviolet" points="18017.2,-7467.34 18010.95,-7458.79 18010.5,-7469.38 18017.2,-7467.34"/>
</g>
<!-- 139726315945440&#45;&gt;139726315945312 -->
<g id="edge93" class="edge">
<title>139726315945440&#45;&gt;139726315945312</title>
<path fill="none" stroke="darkviolet" d="M18475.42,-9675.7C18350.69,-9432.84 18148.74,-9039.64 18021.88,-8792.62"/>
<polygon fill="darkviolet" stroke="darkviolet" points="18025.02,-8791.07 18017.34,-8783.78 18018.79,-8794.27 18025.02,-8791.07"/>
</g>
<!-- 139726315945472 -->
<g id="node18" class="node">
<title>139726315945472</title>
<polygon fill="none" stroke="black" points="2122,-8782 1474,-8782 1474,-8350 2122,-8350 2122,-8782"/>
<text text-anchor="middle" x="1798" y="-8550.25" font-family="sans" font-size="60.00">wpa&#45;supplicant</text>
</g>
<!-- 139726315945472&#45;&gt;139726316341120 -->
<g id="edge17" class="edge">
<title>139726315945472&#45;&gt;139726316341120</title>
<path fill="none" stroke="#8b7765" d="M1589.45,-8349.68C1399.55,-8139.87 1128.21,-7802.78 989,-7457 730.88,-6815.85 780,-6607.16 780,-5916 780,-5916 780,-5916 780,-4588 780,-4245.48 724.52,-3377.9 813,-3047 901.29,-2716.82 1106.99,-2378.08 1254.46,-2163.53"/>
<polygon fill="#8b7765" stroke="#8b7765" points="1257.13,-2165.83 1259.92,-2155.61 1251.36,-2161.86 1257.13,-2165.83"/>
</g>
<!-- 139726315945472&#45;&gt;139726133354144 -->
<g id="edge62" class="edge">
<title>139726315945472&#45;&gt;139726133354144</title>
<path fill="none" stroke="#8b7765" d="M1786.02,-8349.66C1740.51,-7514.83 1587.14,-4530.34 1711,-4373 2244.31,-3695.52 4999.59,-3382.73 5966.31,-3292.64"/>
<polygon fill="#8b7765" stroke="#8b7765" points="5966.46,-3296.14 5976.09,-3291.73 5965.81,-3289.17 5966.46,-3296.14"/>
</g>
<!-- 139726315945472&#45;&gt;139726315945280 -->
<g id="edge88" class="edge">
<title>139726315945472&#45;&gt;139726315945280</title>
<path fill="none" stroke="#8b7765" d="M2122.17,-8352.98C2125.11,-8351.96 2128.06,-8350.96 2131,-8350 8650,-6221.41 10927.46,-9292.38 17535,-7457 17559.6,-7450.17 17584.41,-7441.71 17608.99,-7432.14"/>
<polygon fill="#8b7765" stroke="#8b7765" points="17610.09,-7435.46 17618.1,-7428.53 17607.51,-7428.96 17610.09,-7435.46"/>
</g>
<!-- 139726315945504 -->
<g id="node19" class="node">
<title>139726315945504</title>
<polygon fill="none" stroke="black" points="19590,-10108 18942,-10108 18942,-9676 19590,-9676 19590,-10108"/>
<text text-anchor="middle" x="19266" y="-9876.25" font-family="sans" font-size="60.00">network&#45;manager</text>
</g>
<!-- 139726315945504&#45;&gt;139726316341120 -->
<g id="edge18" class="edge">
<title>139726315945504&#45;&gt;139726316341120</title>
<path fill="none" stroke="#8b7765" d="M19460.89,-9675.59C19642.85,-9463.21 19908.83,-9121.95 20063,-8782 20352.3,-8144.08 20398,-7942.45 20398,-7242 20398,-7242 20398,-7242 20398,-4588 20398,-3529.89 19121.53,-3261.92 18528,-3047 16894.42,-2455.47 4008.95,-2021.26 1755.64,-1949.47"/>
<polygon fill="#8b7765" stroke="#8b7765" points="1755.78,-1945.97 1745.67,-1949.15 1755.56,-1952.97 1755.78,-1945.97"/>
</g>
<!-- 139726315945504&#45;&gt;139726132976448 -->
<g id="edge143" class="edge">
<title>139726315945504&#45;&gt;139726132976448</title>
<path fill="none" stroke="#8b7765" d="M19423.33,-9675.89C19726.06,-9240.06 20360,-8211.64 20360,-7242 20360,-7242 20360,-7242 20360,-5914 20360,-5742.66 20403.12,-4512.05 20303,-4373 19685.99,-3516.07 18322.56,-3320.91 17689.33,-3276.75"/>
<polygon fill="#8b7765" stroke="#8b7765" points="17689.93,-3273.28 17679.72,-3276.08 17689.45,-3280.26 17689.93,-3273.28"/>
</g>
<!-- 139726315945504&#45;&gt;139726133354144 -->
<g id="edge63" class="edge">
<title>139726315945504&#45;&gt;139726133354144</title>
<path fill="none" stroke="#8b7765" d="M19350.34,-9675.52C19431.93,-9455.04 19550.2,-9100.55 19599,-8782 19702.66,-8105.4 19618,-7926.5 19618,-7242 19618,-7242 19618,-7242 19618,-5914 19618,-5828.38 19657.36,-4435.65 19599,-4373 18688.08,-3395.11 8614.63,-3279.07 6637.57,-3265.7"/>
<polygon fill="#8b7765" stroke="#8b7765" points="6637.95,-3262.2 6627.93,-3265.63 6637.91,-3269.2 6637.95,-3262.2"/>
</g>
<!-- 139726315945504&#45;&gt;139726316335744 -->
<g id="edge81" class="edge">
<title>139726315945504&#45;&gt;139726316335744</title>
<path fill="none" stroke="#8b7765" d="M19169.73,-9675.63C18985.88,-9256.49 18582.7,-8298.39 18353,-7457 18301.66,-7268.93 18408.38,-7169.03 18277,-7025 17258.16,-5908.06 16390.06,-6713.57 14995,-6131 14982.92,-6125.96 14970.76,-6120.59 14958.57,-6114.98"/>
<polygon fill="#8b7765" stroke="#8b7765" points="14960.24,-6111.89 14949.7,-6110.84 14957.28,-6118.24 14960.24,-6111.89"/>
</g>
<!-- 139726315945504&#45;&gt;139726315945280 -->
<g id="edge89" class="edge">
<title>139726315945504&#45;&gt;139726315945280</title>
<path fill="none" stroke="#8b7765" d="M19158.52,-9675.62C18912.04,-9181.74 18308.05,-7971.47 18056.65,-7467.73"/>
<polygon fill="#8b7765" stroke="#8b7765" points="18059.79,-7466.17 18052.19,-7458.79 18053.52,-7469.3 18059.79,-7466.17"/>
</g>
<!-- 139726315945504&#45;&gt;139726315945312 -->
<g id="edge94" class="edge">
<title>139726315945504&#45;&gt;139726315945312</title>
<path fill="none" stroke="#8b7765" d="M19044.84,-9675.7C18794.64,-9432.12 18389.09,-9037.3 18135.49,-8790.42"/>
<polygon fill="#8b7765" stroke="#8b7765" points="18137.98,-8787.95 18128.37,-8783.49 18133.1,-8792.97 18137.98,-8787.95"/>
</g>
<!-- 139726316341248 -->
<g id="node63" class="node">
<title>139726316341248</title>
<polygon fill="none" stroke="black" points="19590,-8782 18942,-8782 18942,-8350 19590,-8350 19590,-8782"/>
<text text-anchor="middle" x="19266" y="-8550.25" font-family="sans" font-size="60.00">session&#45;environment</text>
</g>
<!-- 139726315945504&#45;&gt;139726316341248 -->
<g id="edge123" class="edge">
<title>139726315945504&#45;&gt;139726316341248</title>
<path fill="none" stroke="#8b7765" d="M19266,-9675.7C19266,-9433.2 19266,-9040.81 19266,-8793.72"/>
<polygon fill="#8b7765" stroke="#8b7765" points="19269.5,-8793.94 19266,-8783.94 19262.5,-8793.94 19269.5,-8793.94"/>
</g>
<!-- 139726315939712 -->
<g id="node20" class="node">
<title>139726315939712</title>
<polygon fill="none" stroke="black" points="12654,-10108 12006,-10108 12006,-9676 12654,-9676 12654,-10108"/>
<text text-anchor="middle" x="12330" y="-9876.25" font-family="sans" font-size="60.00">elogind</text>
</g>
<!-- 139726315939712&#45;&gt;139726316341120 -->
<g id="edge19" class="edge">
<title>139726315939712&#45;&gt;139726316341120</title>
<path fill="none" stroke="#8b7765" d="M12005.52,-9879.88C10214.98,-9815.97 1588,-9473.66 647,-8782 48.81,-8342.32 0,-7984.4 0,-7242 0,-7242 0,-7242 0,-4588 0,-4018.18 254.68,-3213.91 347,-3047 544.33,-2690.22 886.49,-2365.9 1131.4,-2161.63"/>
<polygon fill="#8b7765" stroke="#8b7765" points="1133.46,-2164.47 1138.91,-2155.38 1128.98,-2159.09 1133.46,-2164.47"/>
</g>
<!-- 139726315939712&#45;&gt;139726316342528 -->
<g id="edge122" class="edge">
<title>139726315939712&#45;&gt;139726316342528</title>
<path fill="none" stroke="#8b7765" d="M12326.36,-9675.66C12312.51,-8829.76 12266.98,-5777.01 12330,-5699 13517.84,-4228.62 14713.99,-5457.57 16488,-4805 16509.64,-4797.04 16531.55,-4788.09 16553.4,-4778.49"/>
<polygon fill="#8b7765" stroke="#8b7765" points="16554.67,-4781.75 16562.39,-4774.49 16551.83,-4775.36 16554.67,-4781.75"/>
</g>
<!-- 139726315939712&#45;&gt;139726315992864 -->
<g id="edge23" class="edge">
<title>139726315939712&#45;&gt;139726315992864</title>
<path fill="none" stroke="#8b7765" d="M12005.82,-9885.19C10213.96,-9849.79 1574.31,-9635.45 799,-8782 669.9,-8639.89 757,-8537.35 799,-8350 871.77,-8025.35 1050.85,-7683.81 1179.17,-7467.19"/>
<polygon fill="#8b7765" stroke="#8b7765" points="1182.18,-7468.98 1184.27,-7458.6 1176.16,-7465.41 1182.18,-7468.98"/>
</g>
<!-- 139726315939712&#45;&gt;139726133354144 -->
<g id="edge64" class="edge">
<title>139726315939712&#45;&gt;139726133354144</title>
<path fill="none" stroke="#8b7765" d="M12005.65,-9885.39C10206.72,-9850.98 1507.62,-9640.79 727,-8782 529.03,-8564.21 756.63,-8066.75 989,-7025 1210.34,-6032.68 1361.8,-5805.79 1541,-4805 1558.02,-4709.92 1524.93,-4445.29 1589,-4373 2176.28,-3710.35 4988.78,-3387.29 5966.31,-3293.67"/>
<polygon fill="#8b7765" stroke="#8b7765" points="5966.6,-3297.16 5976.22,-3292.72 5965.93,-3290.19 5966.6,-3297.16"/>
</g>
<!-- 139726315939712&#45;&gt;139726316336128 -->
<g id="edge102" class="edge">
<title>139726315939712&#45;&gt;139726316336128</title>
<path fill="none" stroke="#8b7765" d="M12654.49,-9859.12C13587.02,-9760.35 16241.89,-9426.55 16774,-8782 16898.47,-8631.23 16808.27,-7210.83 16869,-7025 16979.56,-6686.7 17220.91,-6351.89 17394.37,-6140.13"/>
<polygon fill="#8b7765" stroke="#8b7765" points="17396.94,-6142.52 17400.58,-6132.57 17391.53,-6138.07 17396.94,-6142.52"/>
</g>
<!-- 139726315939712&#45;&gt;139726109125216 -->
<g id="edge108" class="edge">
<title>139726315939712&#45;&gt;139726109125216</title>
<path fill="none" stroke="#8b7765" d="M12330.42,-9675.61C12332.06,-9053.95 12339.79,-7284.42 12375,-7025 12417.28,-6713.49 12517.11,-6363.95 12587.33,-6142.05"/>
<polygon fill="#8b7765" stroke="#8b7765" points="12590.61,-6143.29 12590.3,-6132.7 12583.94,-6141.17 12590.61,-6143.29"/>
</g>
<!-- 139726315939712&#45;&gt;139726315945280 -->
<g id="edge90" class="edge">
<title>139726315939712&#45;&gt;139726315945280</title>
<path fill="none" stroke="#8b7765" d="M12654.25,-9887.55C13444.35,-9864.15 15503.79,-9711.66 16864,-8782 17355.48,-8446.09 17694.65,-7807.66 17849.21,-7467.9"/>
<polygon fill="#8b7765" stroke="#8b7765" points="17852.38,-7469.37 17853.32,-7458.82 17846.01,-7466.48 17852.38,-7469.37"/>
</g>
<!-- 139726315939712&#45;&gt;139726315945312 -->
<g id="edge96" class="edge">
<title>139726315939712&#45;&gt;139726315945312</title>
<path fill="none" stroke="#8b7765" d="M12654.47,-9826.59C13441.44,-9668.36 15512.35,-9240 17216,-8782 17332.36,-8750.72 17458.51,-8712.65 17570.73,-8677.3"/>
<polygon fill="#8b7765" stroke="#8b7765" points="17571.62,-8680.69 17580.11,-8674.34 17569.52,-8674.01 17571.62,-8680.69"/>
</g>
<!-- 139726316381152 -->
<g id="node21" class="node">
<title>139726316381152</title>
<polygon fill="none" stroke="black" points="714,-4805 66,-4805 66,-4373 714,-4373 714,-4805"/>
<text text-anchor="middle" x="390" y="-4573.25" font-family="sans" font-size="60.00">mcron</text>
</g>
<!-- 139726316381152&#45;&gt;139726316341120 -->
<g id="edge20" class="edge">
<title>139726316381152&#45;&gt;139726316341120</title>
<path fill="none" stroke="#00cdcd" d="M413.63,-4372.7C452.25,-4068.32 543.76,-3498.93 728,-3047 861.67,-2719.1 1089.7,-2379.03 1247.26,-2163.6"/>
<polygon fill="#00cdcd" stroke="#00cdcd" points="1250.02,-2165.75 1253.11,-2155.61 1244.38,-2161.61 1250.02,-2165.75"/>
</g>
<!-- 139726316381152&#45;&gt;139726133354144 -->
<g id="edge65" class="edge">
<title>139726316381152&#45;&gt;139726133354144</title>
<path fill="none" stroke="#00cdcd" d="M714.34,-4432.76C767.3,-4410.75 822.14,-4389.9 875,-4373 2753.65,-3772.42 5105.42,-3422.35 5966.43,-3306.87"/>
<polygon fill="#00cdcd" stroke="#00cdcd" points="5966.79,-3310.35 5976.24,-3305.56 5965.86,-3303.41 5966.79,-3310.35"/>
</g>
<!-- 139726461809568 -->
<g id="node22" class="node">
<title>139726461809568</title>
<polygon fill="none" stroke="black" points="1456,-8782 808,-8782 808,-8350 1456,-8350 1456,-8782"/>
<text text-anchor="middle" x="1132" y="-8550.25" font-family="sans" font-size="60.00">fontconfig&#45;file&#45;system</text>
</g>
<!-- 139726461809568&#45;&gt;139726315992864 -->
<g id="edge22" class="edge">
<title>139726461809568&#45;&gt;139726315992864</title>
<path fill="none" stroke="dimgrey" d="M1162.9,-8349.86C1197.7,-8107.55 1254.01,-7715.45 1289.46,-7468.55"/>
<polygon fill="dimgrey" stroke="dimgrey" points="1292.91,-7469.16 1290.87,-7458.77 1285.98,-7468.17 1292.91,-7469.16"/>
</g>
<!-- 139726315956256 -->
<g id="node23" class="node">
<title>139726315956256</title>
<polygon fill="none" stroke="black" points="3282,-4805 2634,-4805 2634,-4373 3282,-4373 3282,-4805"/>
<text text-anchor="middle" x="2958" y="-4573.25" font-family="sans" font-size="60.00">root&#45;file&#45;system</text>
</g>
<!-- 139726315956256&#45;&gt;139726133354144 -->
<g id="edge25" class="edge">
<title>139726315956256&#45;&gt;139726133354144</title>
<path fill="none" stroke="darkseagreen" d="M3282.4,-4379.85C3286.95,-4377.52 3291.48,-4375.24 3296,-4373 4227.58,-3911.46 5401.15,-3532.73 5966.82,-3361.9"/>
<polygon fill="darkseagreen" stroke="darkseagreen" points="5967.57,-3365.33 5976.13,-3359.09 5965.55,-3358.63 5967.57,-3365.33"/>
</g>
<!-- 139726315991552&#45;&gt;139726133354144 -->
<g id="edge26" class="edge">
<title>139726315991552&#45;&gt;139726133354144</title>
<path fill="none" stroke="darkviolet" d="M2464.48,-4396.35C2481.72,-4388.09 2498.96,-4380.25 2516,-4373 3743.69,-3850.77 5295.08,-3481.19 5966.75,-3334.31"/>
<polygon fill="darkviolet" stroke="darkviolet" points="5967.05,-3337.83 5976.07,-3332.28 5965.56,-3330.99 5967.05,-3337.83"/>
</g>
<!-- 139726316341152 -->
<g id="node25" class="node">
<title>139726316341152</title>
<polygon fill="none" stroke="black" points="4024,-4805 3376,-4805 3376,-4373 4024,-4373 4024,-4805"/>
<text text-anchor="middle" x="3700" y="-4573.25" font-family="sans" font-size="60.00">host&#45;name ulysses</text>
</g>
<!-- 139726316341152&#45;&gt;139726133354144 -->
<g id="edge27" class="edge">
<title>139726316341152&#45;&gt;139726133354144</title>
<path fill="none" stroke="#8b7765" d="M4024.44,-4377.86C4027.3,-4376.23 4030.15,-4374.61 4033,-4373 4702.51,-3995.02 5519.39,-3614.53 5967.65,-3412.31"/>
<polygon fill="#8b7765" stroke="#8b7765" points="5968.78,-3415.64 5976.46,-3408.33 5965.9,-3409.25 5968.78,-3415.64"/>
</g>
<!-- 139726316335744&#45;&gt;139726316342528 -->
<g id="edge113" class="edge">
<title>139726316335744&#45;&gt;139726316342528</title>
<path fill="none" stroke="blue" d="M14948.2,-5726.03C14964.02,-5716.89 14979.69,-5707.84 14995,-5699 15685.43,-5300.48 15867.95,-5217.7 16550,-4805 16551.44,-4804.13 16552.89,-4803.25 16554.33,-4802.38"/>
<polygon fill="blue" stroke="blue" points="16555.9,-4805.52 16562.63,-4797.34 16552.26,-4799.54 16555.9,-4805.52"/>
</g>
<!-- 139726316335744&#45;&gt;139726132976448 -->
<g id="edge128" class="edge">
<title>139726316335744&#45;&gt;139726132976448</title>
<path fill="none" stroke="blue" d="M14948.44,-5725.9C15485.03,-5414.46 16499.94,-4823.83 16512,-4805 16616.03,-4642.5 16486.71,-4553.46 16555,-4373 16684.6,-4030.52 16948.28,-3697.96 17137.3,-3487.81"/>
<polygon fill="blue" stroke="blue" points="17139.73,-3490.35 17143.82,-3480.58 17134.53,-3485.66 17139.73,-3490.35"/>
</g>
<!-- 139726316335744&#45;&gt;139726133354144 -->
<g id="edge28" class="edge">
<title>139726316335744&#45;&gt;139726133354144</title>
<path fill="none" stroke="blue" d="M14299.81,-5868.39C13984.94,-5824.29 13493.33,-5755.97 13067,-5699 11529.66,-5493.59 7169.08,-5969.84 6145,-4805 6060.04,-4708.36 6189.88,-3894.86 6260.82,-3490.43"/>
<polygon fill="blue" stroke="blue" points="6264.25,-3491.12 6262.53,-3480.66 6257.36,-3489.91 6264.25,-3491.12"/>
</g>
<!-- 139726316335744&#45;&gt;139726315991552 -->
<g id="edge67" class="edge">
<title>139726316335744&#45;&gt;139726315991552</title>
<path fill="none" stroke="blue" d="M14299.81,-5866.78C13971.62,-5820.02 13449.28,-5748.44 12996,-5699 8396.85,-5197.34 7105.73,-5956.89 2625,-4805 2575.34,-4792.23 2524.35,-4774.86 2474.95,-4755.47"/>
<polygon fill="blue" stroke="blue" points="2476.43,-4752.29 2465.84,-4751.86 2473.85,-4758.8 2476.43,-4752.29"/>
</g>
<!-- 139726316336128&#45;&gt;139726316342528 -->
<g id="edge114" class="edge">
<title>139726316336128&#45;&gt;139726316342528</title>
<path fill="none" stroke="#00cdcd" d="M17477.52,-5698.7C17348.32,-5455.72 17139.1,-5062.25 17007.77,-4815.25"/>
<polygon fill="#00cdcd" stroke="#00cdcd" points="17011.04,-4813.95 17003.26,-4806.77 17004.86,-4817.24 17011.04,-4813.95"/>
</g>
<!-- 139726316336128&#45;&gt;139726133354144 -->
<g id="edge29" class="edge">
<title>139726316336128&#45;&gt;139726133354144</title>
<path fill="none" stroke="#00cdcd" d="M17564.45,-5698.8C17510.88,-5296.26 17389.38,-4461.83 17292,-4373 16484.31,-3636.18 8394.89,-3332.06 6637.68,-3274.43"/>
<polygon fill="#00cdcd" stroke="#00cdcd" points="6638.1,-3270.94 6627.99,-3274.11 6637.87,-3277.94 6638.1,-3270.94"/>
</g>
<!-- 139726316336032 -->
<g id="node69" class="node">
<title>139726316336032</title>
<polygon fill="none" stroke="black" points="19590,-4805 18942,-4805 18942,-4373 19590,-4373 19590,-4805"/>
<text text-anchor="middle" x="19266" y="-4573.25" font-family="sans" font-size="60.00">privileged&#45;program</text>
</g>
<!-- 139726316336128&#45;&gt;139726316336032 -->
<g id="edge144" class="edge">
<title>139726316336128&#45;&gt;139726316336032</title>
<path fill="none" stroke="#00cdcd" d="M17864.22,-5698.7C18172.64,-5454.76 18672.85,-5059.13 18984.9,-4812.32"/>
<polygon fill="#00cdcd" stroke="#00cdcd" points="18986.76,-4815.32 18992.43,-4806.37 18982.42,-4809.83 18986.76,-4815.32"/>
</g>
<!-- 139726109125120 -->
<g id="node28" class="node">
<title>139726109125120</title>
<polygon fill="none" stroke="black" points="4690,-4805 4042,-4805 4042,-4373 4690,-4373 4690,-4805"/>
<text text-anchor="middle" x="4366" y="-4573.25" font-family="sans" font-size="60.00">sysctl</text>
</g>
<!-- 139726109125120&#45;&gt;139726133354144 -->
<g id="edge30" class="edge">
<title>139726109125120&#45;&gt;139726133354144</title>
<path fill="none" stroke="darkviolet" d="M4681.09,-4372.51C5038.11,-4128.36 5617.07,-3732.41 5977.81,-3485.71"/>
<polygon fill="darkviolet" stroke="darkviolet" points="5979.56,-3488.76 5985.83,-3480.22 5975.6,-3482.98 5979.56,-3488.76"/>
</g>
<!-- 139726109125216&#45;&gt;139726316342528 -->
<g id="edge115" class="edge">
<title>139726109125216&#45;&gt;139726316342528</title>
<path fill="none" stroke="#00cdcd" d="M12987.43,-5848.08C13661.22,-5705.28 15254.17,-5336.77 16512,-4805 16525.72,-4799.2 16539.58,-4793.01 16553.46,-4786.52"/>
<polygon fill="#00cdcd" stroke="#00cdcd" points="16554.65,-4789.83 16562.2,-4782.39 16551.66,-4783.5 16554.65,-4789.83"/>
</g>
<!-- 139726109125216&#45;&gt;139726133354144 -->
<g id="edge31" class="edge">
<title>139726109125216&#45;&gt;139726133354144</title>
<path fill="none" stroke="#00cdcd" d="M12338.7,-5729.58C12310.59,-5717.9 12282.14,-5707.46 12254,-5699 10353.23,-5127.4 4698.41,-6277.07 3367,-4805 3334.8,-4769.4 3339.71,-4412.49 3367,-4373 3965.27,-3507.39 5331.84,-3316.67 5966.55,-3275.19"/>
<polygon fill="#00cdcd" stroke="#00cdcd" points="5966.43,-3278.71 5976.19,-3274.57 5965.98,-3271.72 5966.43,-3278.71"/>
</g>
<!-- 139726109126016 -->
<g id="node30" class="node">
<title>139726109126016</title>
<polygon fill="none" stroke="black" points="5394,-4805 4746,-4805 4746,-4373 5394,-4373 5394,-4805"/>
<text text-anchor="middle" x="5070" y="-4573.25" font-family="sans" font-size="60.00">log&#45;cleanup</text>
</g>
<!-- 139726109126016&#45;&gt;139726133354144 -->
<g id="edge32" class="edge">
<title>139726109126016&#45;&gt;139726133354144</title>
<path fill="none" stroke="#8b7765" d="M5270.34,-4372.7C5496.88,-4129.24 5864.02,-3734.69 6093.76,-3487.79"/>
<polygon fill="#8b7765" stroke="#8b7765" points="6096.26,-3490.24 6100.51,-3480.54 6091.13,-3485.47 6096.26,-3490.24"/>
</g>
<!-- 139726109126208 -->
<g id="node31" class="node">
<title>139726109126208</title>
<polygon fill="none" stroke="black" points="6098,-4805 5450,-4805 5450,-4373 6098,-4373 6098,-4805"/>
<text text-anchor="middle" x="5774" y="-4573.25" font-family="sans" font-size="60.00">shepherd&#45;transient</text>
</g>
<!-- 139726109126208&#45;&gt;139726133354144 -->
<g id="edge33" class="edge">
<title>139726109126208&#45;&gt;139726133354144</title>
<path fill="none" stroke="red" d="M5859.86,-4372.7C5956.66,-4129.96 6113.36,-3737.03 6211.88,-3489.98"/>
<polygon fill="red" stroke="red" points="6215.07,-3491.42 6215.53,-3480.84 6208.57,-3488.83 6215.07,-3491.42"/>
</g>
<!-- 139726109126304 -->
<g id="node32" class="node">
<title>139726109126304</title>
<polygon fill="none" stroke="black" points="6802,-4805 6154,-4805 6154,-4373 6802,-4373 6802,-4805"/>
<text text-anchor="middle" x="6478" y="-4573.25" font-family="sans" font-size="60.00">shepherd&#45;timer</text>
</g>
<!-- 139726109126304&#45;&gt;139726133354144 -->
<g id="edge34" class="edge">
<title>139726109126304&#45;&gt;139726133354144</title>
<path fill="none" stroke="darkseagreen" d="M6449.38,-4372.7C6417.14,-4130.2 6364.98,-3737.81 6332.14,-3490.72"/>
<polygon fill="darkseagreen" stroke="darkseagreen" points="6335.62,-3490.38 6330.84,-3480.93 6328.68,-3491.3 6335.62,-3490.38"/>
</g>
<!-- 139726109126400 -->
<g id="node33" class="node">
<title>139726109126400</title>
<polygon fill="none" stroke="black" points="7468,-4805 6820,-4805 6820,-4373 7468,-4373 7468,-4805"/>
<text text-anchor="middle" x="7144" y="-4573.25" font-family="sans" font-size="60.00">log&#45;rotation</text>
</g>
<!-- 139726109126400&#45;&gt;139726133354144 -->
<g id="edge35" class="edge">
<title>139726109126400&#45;&gt;139726133354144</title>
<path fill="none" stroke="#8b7765" d="M7007.08,-4372.7C6852.48,-4129.6 6602.08,-3735.86 6445.02,-3488.88"/>
<polygon fill="#8b7765" stroke="#8b7765" points="6448.13,-3487.27 6439.82,-3480.71 6442.23,-3491.02 6448.13,-3487.27"/>
</g>
<!-- 139726109126432 -->
<g id="node34" class="node">
<title>139726109126432</title>
<polygon fill="none" stroke="black" points="16356,-4805 15708,-4805 15708,-4373 16356,-4373 16356,-4805"/>
<text text-anchor="middle" x="16032" y="-4573.25" font-family="sans" font-size="60.00">nscd</text>
</g>
<!-- 139726109126432&#45;&gt;139726132976448 -->
<g id="edge131" class="edge">
<title>139726109126432&#45;&gt;139726132976448</title>
<path fill="none" stroke="#00cdcd" d="M16246.98,-4372.7C16490.19,-4129.12 16884.41,-3734.3 17130.92,-3487.42"/>
<polygon fill="#00cdcd" stroke="#00cdcd" points="17133.24,-3490.05 17137.83,-3480.5 17128.28,-3485.1 17133.24,-3490.05"/>
</g>
<!-- 139726109126432&#45;&gt;139726133354144 -->
<g id="edge36" class="edge">
<title>139726109126432&#45;&gt;139726133354144</title>
<path fill="none" stroke="#00cdcd" d="M15707.76,-4378.11C15703.17,-4376.34 15698.59,-4374.63 15694,-4373 13966.9,-3758.1 8106.06,-3372.09 6637.71,-3283.55"/>
<polygon fill="#00cdcd" stroke="#00cdcd" points="6638.18,-3280.07 6627.99,-3282.96 6637.76,-3287.05 6638.18,-3280.07"/>
</g>
<!-- 139726109126496 -->
<g id="node35" class="node">
<title>139726109126496</title>
<polygon fill="none" stroke="black" points="2426,-6131 1778,-6131 1778,-5699 2426,-5699 2426,-6131"/>
<text text-anchor="middle" x="2102" y="-5899.25" font-family="sans" font-size="60.00">urandom&#45;seed</text>
</g>
<!-- 139726109126496&#45;&gt;139726133354144 -->
<g id="edge38" class="edge">
<title>139726109126496&#45;&gt;139726133354144</title>
<path fill="none" stroke="#8b7765" d="M2026.77,-5698.52C1953.88,-5477.48 1848.45,-5122.07 1807,-4805 1794.56,-4709.81 1747.8,-4448.58 1807,-4373 2326.93,-3709.21 5013.7,-3388.57 5966.48,-3294.46"/>
<polygon fill="#8b7765" stroke="#8b7765" points="5966.49,-3297.98 5976.1,-3293.51 5965.81,-3291.01 5966.49,-3297.98"/>
</g>
<!-- 139726109126496&#45;&gt;139726315991552 -->
<g id="edge68" class="edge">
<title>139726109126496&#45;&gt;139726315991552</title>
<path fill="none" stroke="#8b7765" d="M2108.18,-5698.7C2115.14,-5456.2 2126.4,-5063.81 2133.49,-4816.72"/>
<polygon fill="#8b7765" stroke="#8b7765" points="2136.99,-4817.04 2133.77,-4806.94 2129.99,-4816.84 2136.99,-4817.04"/>
</g>
<!-- 139726109126528 -->
<g id="node36" class="node">
<title>139726109126528</title>
<polygon fill="none" stroke="black" points="15652,-6131 15004,-6131 15004,-5699 15652,-5699 15652,-6131"/>
<text text-anchor="middle" x="15328" y="-5899.25" font-family="sans" font-size="60.00">static&#45;networking</text>
</g>
<!-- 139726109126528&#45;&gt;139726316342528 -->
<g id="edge116" class="edge">
<title>139726109126528&#45;&gt;139726316342528</title>
<path fill="none" stroke="blue" d="M15581.68,-5698.7C15868.96,-5454.88 16334.79,-5059.52 16625.62,-4812.69"/>
<polygon fill="blue" stroke="blue" points="16627.66,-4815.55 16633.02,-4806.41 16623.13,-4810.21 16627.66,-4815.55"/>
</g>
<!-- 139726109126528&#45;&gt;139726133354144 -->
<g id="edge39" class="edge">
<title>139726109126528&#45;&gt;139726133354144</title>
<path fill="none" stroke="blue" d="M15003.62,-5715.76C14988.11,-5709.55 14972.53,-5703.91 14957,-5699 12783.28,-5011.71 6277.21,-6485.82 4737,-4805 4704.57,-4769.61 4714.96,-4415.64 4737,-4373 4994.29,-3875.34 5589.3,-3552.82 5967.03,-3390.18"/>
<polygon fill="blue" stroke="blue" points="5968.39,-3393.41 5976.2,-3386.25 5965.63,-3386.98 5968.39,-3393.41"/>
</g>
<!-- 139726109065248 -->
<g id="node37" class="node">
<title>139726109065248</title>
<polygon fill="none" stroke="black" points="8134,-4805 7486,-4805 7486,-4373 8134,-4373 8134,-4805"/>
<text text-anchor="middle" x="7810" y="-4573.25" font-family="sans" font-size="60.00">mingetty</text>
</g>
<!-- 139726109065248&#45;&gt;139726133354144 -->
<g id="edge40" class="edge">
<title>139726109065248&#45;&gt;139726133354144</title>
<path fill="none" stroke="red" d="M7564.78,-4372.7C7287.07,-4128.88 6836.77,-3733.52 6555.64,-3486.69"/>
<polygon fill="red" stroke="red" points="6558.33,-3484.4 6548.51,-3480.43 6553.71,-3489.66 6558.33,-3484.4"/>
</g>
<!-- 139726109065280 -->
<g id="node38" class="node">
<title>139726109065280</title>
<polygon fill="none" stroke="black" points="8800,-4805 8152,-4805 8152,-4373 8800,-4373 8800,-4805"/>
<text text-anchor="middle" x="8476" y="-4573.25" font-family="sans" font-size="60.00">mingetty</text>
</g>
<!-- 139726109065280&#45;&gt;139726133354144 -->
<g id="edge41" class="edge">
<title>139726109065280&#45;&gt;139726133354144</title>
<path fill="none" stroke="dimgrey" d="M8151.8,-4378.49C8148.85,-4376.65 8145.92,-4374.82 8143,-4373 7620.52,-4047.07 7006.57,-3680.47 6636.23,-3461.1"/>
<polygon fill="dimgrey" stroke="dimgrey" points="6638.13,-3458.16 6627.74,-3456.07 6634.56,-3464.18 6638.13,-3458.16"/>
</g>
<!-- 139726109065312 -->
<g id="node39" class="node">
<title>139726109065312</title>
<polygon fill="none" stroke="black" points="9466,-4805 8818,-4805 8818,-4373 9466,-4373 9466,-4805"/>
<text text-anchor="middle" x="9142" y="-4573.25" font-family="sans" font-size="60.00">mingetty</text>
</g>
<!-- 139726109065312&#45;&gt;139726133354144 -->
<g id="edge42" class="edge">
<title>139726109065312&#45;&gt;139726133354144</title>
<path fill="none" stroke="red" d="M8817.65,-4377.71C8814.76,-4376.12 8811.88,-4374.55 8809,-4373 8056.3,-3966.77 7124.88,-3584.35 6636.63,-3392.51"/>
<polygon fill="red" stroke="red" points="6638.25,-3389.39 6627.66,-3388.99 6635.69,-3395.9 6638.25,-3389.39"/>
</g>
<!-- 139726109065344 -->
<g id="node40" class="node">
<title>139726109065344</title>
<polygon fill="none" stroke="black" points="10132,-4805 9484,-4805 9484,-4373 10132,-4373 10132,-4805"/>
<text text-anchor="middle" x="9808" y="-4573.25" font-family="sans" font-size="60.00">mingetty</text>
</g>
<!-- 139726109065344&#45;&gt;139726133354144 -->
<g id="edge43" class="edge">
<title>139726109065344&#45;&gt;139726133354144</title>
<path fill="none" stroke="darkgoldenrod" d="M9483.83,-4377.37C9480.88,-4375.89 9477.94,-4374.44 9475,-4373 8484.55,-3888.71 7227.79,-3515.21 6637.28,-3352.75"/>
<polygon fill="darkgoldenrod" stroke="darkgoldenrod" points="6638.51,-3349.45 6627.94,-3350.18 6636.65,-3356.2 6638.51,-3349.45"/>
</g>
<!-- 139726109065376 -->
<g id="node41" class="node">
<title>139726109065376</title>
<polygon fill="none" stroke="black" points="10798,-4805 10150,-4805 10150,-4373 10798,-4373 10798,-4805"/>
<text text-anchor="middle" x="10474" y="-4573.25" font-family="sans" font-size="60.00">mingetty</text>
</g>
<!-- 139726109065376&#45;&gt;139726133354144 -->
<g id="edge44" class="edge">
<title>139726109065376&#45;&gt;139726133354144</title>
<path fill="none" stroke="dimgrey" d="M10149.94,-4377.13C10146.95,-4375.73 10143.97,-4374.35 10141,-4373 8906.96,-3811.12 7319.48,-3460.77 6637.58,-3326.47"/>
<polygon fill="dimgrey" stroke="dimgrey" points="6638.34,-3323.05 6627.85,-3324.56 6636.99,-3329.92 6638.34,-3323.05"/>
</g>
<!-- 139726109065408 -->
<g id="node42" class="node">
<title>139726109065408</title>
<polygon fill="none" stroke="black" points="11464,-4805 10816,-4805 10816,-4373 11464,-4373 11464,-4805"/>
<text text-anchor="middle" x="11140" y="-4573.25" font-family="sans" font-size="60.00">mingetty</text>
</g>
<!-- 139726109065408&#45;&gt;139726133354144 -->
<g id="edge45" class="edge">
<title>139726109065408&#45;&gt;139726133354144</title>
<path fill="none" stroke="darkseagreen" d="M10815.54,-4376.75C10812.69,-4375.48 10809.84,-4374.23 10807,-4373 9324.98,-3733.55 7402.74,-3415.66 6637.57,-3307.73"/>
<polygon fill="darkseagreen" stroke="darkseagreen" points="6638.27,-3304.3 6627.88,-3306.37 6637.3,-3311.23 6638.27,-3304.3"/>
</g>
<!-- 139726109065504 -->
<g id="node43" class="node">
<title>139726109065504</title>
<polygon fill="none" stroke="black" points="12130,-4805 11482,-4805 11482,-4373 12130,-4373 12130,-4805"/>
<text text-anchor="middle" x="11806" y="-4573.25" font-family="sans" font-size="60.00">agetty</text>
</g>
<!-- 139726109065504&#45;&gt;139726133354144 -->
<g id="edge46" class="edge">
<title>139726109065504&#45;&gt;139726133354144</title>
<path fill="none" stroke="red" d="M11481.59,-4376.62C11478.73,-4375.39 11475.86,-4374.18 11473,-4373 9739.76,-3655.91 7479.79,-3377.07 6637.54,-3293.69"/>
<polygon fill="red" stroke="red" points="6637.96,-3290.21 6627.67,-3292.72 6637.27,-3297.18 6637.96,-3290.21"/>
</g>
<!-- 139726109065760 -->
<g id="node44" class="node">
<title>139726109065760</title>
<polygon fill="none" stroke="black" points="12796,-4805 12148,-4805 12148,-4373 12796,-4373 12796,-4805"/>
<text text-anchor="middle" x="12472" y="-4573.25" font-family="sans" font-size="60.00">shepherd&#45;system&#45;log</text>
</g>
<!-- 139726109065760&#45;&gt;139726133354144 -->
<g id="edge47" class="edge">
<title>139726109065760&#45;&gt;139726133354144</title>
<path fill="none" stroke="darkseagreen" d="M12147.63,-4376.53C12144.75,-4375.33 12141.88,-4374.15 12139,-4373 10152.25,-3578.24 7552.5,-3343.3 6637.84,-3282.78"/>
<polygon fill="darkseagreen" stroke="darkseagreen" points="6638.21,-3279.3 6628,-3282.13 6637.75,-3286.28 6638.21,-3279.3"/>
</g>
<!-- 139726109065856 -->
<g id="node45" class="node">
<title>139726109065856</title>
<polygon fill="none" stroke="black" points="13462,-4805 12814,-4805 12814,-4373 13462,-4373 13462,-4805"/>
<text text-anchor="middle" x="13138" y="-4573.25" font-family="sans" font-size="60.00">console&#45;fonts</text>
</g>
<!-- 139726109065856&#45;&gt;139726133354144 -->
<g id="edge48" class="edge">
<title>139726109065856&#45;&gt;139726133354144</title>
<path fill="none" stroke="darkgoldenrod" d="M12813.66,-4376.45C12810.77,-4375.27 12807.89,-4374.12 12805,-4373 10562.4,-3500.31 7620.37,-3313.09 6637.74,-3274"/>
<polygon fill="darkgoldenrod" stroke="darkgoldenrod" points="6637.91,-3270.51 6627.78,-3273.61 6637.64,-3277.5 6637.91,-3270.51"/>
</g>
<!-- 139726109066144 -->
<g id="node46" class="node">
<title>139726109066144</title>
<polygon fill="none" stroke="black" points="14128,-4805 13480,-4805 13480,-4373 14128,-4373 14128,-4805"/>
<text text-anchor="middle" x="13804" y="-4573.25" font-family="sans" font-size="60.00">virtual&#45;terminal</text>
</g>
<!-- 139726109066144&#45;&gt;139726133354144 -->
<g id="edge49" class="edge">
<title>139726109066144&#45;&gt;139726133354144</title>
<path fill="none" stroke="darkseagreen" d="M13479.69,-4376.38C13476.79,-4375.23 13473.89,-4374.1 13471,-4373 10970.96,-3422.28 7685.07,-3285.74 6637.79,-3266.81"/>
<polygon fill="darkseagreen" stroke="darkseagreen" points="6637.91,-3263.32 6627.85,-3266.64 6637.78,-3270.31 6637.91,-3263.32"/>
</g>
<!-- 139726315950080 -->
<g id="node47" class="node">
<title>139726315950080</title>
<polygon fill="none" stroke="black" points="16023,-7457 15375,-7457 15375,-7025 16023,-7025 16023,-7457"/>
<text text-anchor="middle" x="15699" y="-7225.25" font-family="sans" font-size="60.00">ntp</text>
</g>
<!-- 139726315950080&#45;&gt;139726132976448 -->
<g id="edge134" class="edge">
<title>139726315950080&#45;&gt;139726132976448</title>
<path fill="none" stroke="blue" d="M16023.24,-7081.91C16355.11,-6901.36 16856,-6572.83 17102,-6131 17174.14,-6001.43 17240.75,-4952.71 17254,-4805 17295.83,-4338.7 17327.12,-3791.5 17342.79,-3490.76"/>
<polygon fill="blue" stroke="blue" points="17346.29,-3490.96 17343.31,-3480.79 17339.3,-3490.6 17346.29,-3490.96"/>
</g>
<!-- 139726315950080&#45;&gt;139726133354144 -->
<g id="edge51" class="edge">
<title>139726315950080&#45;&gt;139726133354144</title>
<path fill="none" stroke="blue" d="M15698.01,-7024.55C15694.73,-6361.99 15683.15,-4397.6 15661,-4373 15043.16,-3686.84 8238.47,-3348.5 6637.75,-3278.07"/>
<polygon fill="blue" stroke="blue" points="6638.04,-3274.58 6627.9,-3277.64 6637.73,-3281.57 6638.04,-3274.58"/>
</g>
<!-- 139726315950080&#45;&gt;139726316335744 -->
<g id="edge73" class="edge">
<title>139726315950080&#45;&gt;139726316335744</title>
<path fill="none" stroke="blue" d="M15524.19,-7024.7C15326.62,-6781.36 15006.49,-6387.08 14806,-6140.15"/>
<polygon fill="blue" stroke="blue" points="14808.89,-6138.16 14799.87,-6132.6 14803.46,-6142.57 14808.89,-6138.16"/>
</g>
<!-- 139726315950112 -->
<g id="node48" class="node">
<title>139726315950112</title>
<polygon fill="none" stroke="black" points="14948.38,-4805 14145.62,-4805 14145.62,-4373 14948.38,-4373 14948.38,-4805"/>
<text text-anchor="middle" x="14547" y="-4573.25" font-family="sans" font-size="60.00">x11&#45;socket&#45;directory&#45;service</text>
</g>
<!-- 139726315950112&#45;&gt;139726133354144 -->
<g id="edge52" class="edge">
<title>139726315950112&#45;&gt;139726133354144</title>
<path fill="none" stroke="darkviolet" d="M14145.33,-4375.73C14142.55,-4374.81 14139.77,-4373.89 14137,-4373 11336.97,-3470.55 7739.09,-3301.9 6637.35,-3270.87"/>
<polygon fill="darkviolet" stroke="darkviolet" points="6637.71,-3267.38 6627.61,-3270.6 6637.51,-3274.38 6637.71,-3267.38"/>
</g>
<!-- 139726315923872 -->
<g id="node49" class="node">
<title>139726315923872</title>
<polygon fill="none" stroke="black" points="16784,-7457 16136,-7457 16136,-7025 16784,-7025 16784,-7457"/>
<text text-anchor="middle" x="16460" y="-7225.25" font-family="sans" font-size="60.00">cups</text>
</g>
<!-- 139726315923872&#45;&gt;139726132976448 -->
<g id="edge135" class="edge">
<title>139726315923872&#45;&gt;139726132976448</title>
<path fill="none" stroke="darkgoldenrod" d="M16643.39,-7024.66C16813.03,-6812.34 17056.69,-6471.12 17178,-6131 17242.9,-5949.05 17200.17,-5890.45 17226,-5699 17279.78,-5300.3 17336.35,-5206.07 17368,-4805 17383.11,-4613.6 17369.21,-4565 17368,-4373 17366.07,-4067.56 17361.16,-3714.82 17357.7,-3490.69"/>
<polygon fill="darkgoldenrod" stroke="darkgoldenrod" points="17361.2,-3490.9 17357.55,-3480.96 17354.2,-3491.01 17361.2,-3490.9"/>
</g>
<!-- 139726315923872&#45;&gt;139726133354144 -->
<g id="edge53" class="edge">
<title>139726315923872&#45;&gt;139726133354144</title>
<path fill="none" stroke="darkgoldenrod" d="M16611.6,-7024.56C16754.95,-6809.09 16963.36,-6462.88 17069,-6131 17128.47,-5944.17 17352.45,-4518.47 17221,-4373 16492.62,-3566.89 8395.36,-3316.89 6637.44,-3271.93"/>
<polygon fill="darkgoldenrod" stroke="darkgoldenrod" points="6637.84,-3268.44 6627.75,-3271.69 6637.66,-3275.44 6637.84,-3268.44"/>
</g>
<!-- 139726315923872&#45;&gt;139726316335744 -->
<g id="edge74" class="edge">
<title>139726315923872&#45;&gt;139726316335744</title>
<path fill="none" stroke="darkgoldenrod" d="M16161.18,-7024.51C15822.78,-6780.48 15274.09,-6384.8 14931.95,-6138.08"/>
<polygon fill="darkgoldenrod" stroke="darkgoldenrod" points="14934.04,-6135.26 14923.88,-6132.25 14929.94,-6140.94 14934.04,-6135.26"/>
</g>
<!-- 139726315923872&#45;&gt;139726316336128 -->
<g id="edge98" class="edge">
<title>139726315923872&#45;&gt;139726316336128</title>
<path fill="none" stroke="darkgoldenrod" d="M16644.08,-7024.7C16852.13,-6781.36 17189.23,-6387.08 17400.35,-6140.15"/>
<polygon fill="darkgoldenrod" stroke="darkgoldenrod" points="17402.99,-6142.46 17406.83,-6132.58 17397.67,-6137.91 17402.99,-6142.46"/>
</g>
<!-- 139726315924512 -->
<g id="node50" class="node">
<title>139726315924512</title>
<polygon fill="none" stroke="black" points="11855,-7457 11207,-7457 11207,-7025 11855,-7025 11855,-7457"/>
<text text-anchor="middle" x="11531" y="-7225.25" font-family="sans" font-size="60.00">tlp</text>
</g>
<!-- 139726315924512&#45;&gt;139726132976448 -->
<g id="edge139" class="edge">
<title>139726315924512&#45;&gt;139726132976448</title>
<path fill="none" stroke="darkviolet" d="M11463.75,-7024.62C11375.88,-6696.14 11268.09,-6069.17 11588,-5699 13020.66,-4041.3 14900.12,-6367.54 16436,-4805 16572.45,-4666.18 16430.7,-4551.64 16508,-4373 16656.35,-4030.19 16933.08,-3697.86 17129.61,-3487.84"/>
<polygon fill="darkviolet" stroke="darkviolet" points="17132.12,-3490.28 17136.41,-3480.6 17127.02,-3485.5 17132.12,-3490.28"/>
</g>
<!-- 139726315924512&#45;&gt;139726133354144 -->
<g id="edge58" class="edge">
<title>139726315924512&#45;&gt;139726133354144</title>
<path fill="none" stroke="darkviolet" d="M11206.79,-7203.14C9736.08,-7028.72 3716.09,-6234.46 2625,-4805 2595.88,-4766.84 2596.38,-4411.53 2625,-4373 3031.84,-3825.36 5137.73,-3444.62 5966.44,-3313.88"/>
<polygon fill="darkviolet" stroke="darkviolet" points="5966.81,-3317.37 5976.14,-3312.35 5965.72,-3310.45 5966.81,-3317.37"/>
</g>
<!-- 139726315924512&#45;&gt;139726109125216 -->
<g id="edge105" class="edge">
<title>139726315924512&#45;&gt;139726109125216</title>
<path fill="none" stroke="darkviolet" d="M11715.08,-7024.7C11923.13,-6781.36 12260.23,-6387.08 12471.35,-6140.15"/>
<polygon fill="darkviolet" stroke="darkviolet" points="12473.99,-6142.46 12477.83,-6132.58 12468.67,-6137.91 12473.99,-6142.46"/>
</g>
<!-- 139726315945248 -->
<g id="node51" class="node">
<title>139726315945248</title>
<polygon fill="none" stroke="black" points="15652,-4805 15004,-4805 15004,-4373 15652,-4373 15652,-4805"/>
<text text-anchor="middle" x="15328" y="-4573.25" font-family="sans" font-size="60.00">thermald</text>
</g>
<!-- 139726315945248&#45;&gt;139726133354144 -->
<g id="edge59" class="edge">
<title>139726315945248&#45;&gt;139726133354144</title>
<path fill="none" stroke="darkseagreen" d="M15003.74,-4378.17C14999.16,-4376.38 14994.58,-4374.65 14990,-4373 13402.97,-3799.53 8037.21,-3386.84 6637.96,-3287.2"/>
<polygon fill="darkseagreen" stroke="darkseagreen" points="6638.22,-3283.71 6628,-3286.49 6637.73,-3290.69 6638.22,-3283.71"/>
</g>
<!-- 139726315945280&#45;&gt;139726316342528 -->
<g id="edge120" class="edge">
<title>139726315945280&#45;&gt;139726316342528</title>
<path fill="none" stroke="blue" d="M17949.93,-7024.65C17959.56,-6629.6 17973.01,-5818.48 17925,-5699 17777.11,-5330.98 17444.83,-5012.46 17196,-4812.39"/>
<polygon fill="blue" stroke="blue" points="17198.36,-4809.79 17188.36,-4806.27 17193.98,-4815.25 17198.36,-4809.79"/>
</g>
<!-- 139726315945280&#45;&gt;139726132976448 -->
<g id="edge140" class="edge">
<title>139726315945280&#45;&gt;139726132976448</title>
<path fill="none" stroke="blue" d="M17976.29,-7024.66C18007.97,-6801.68 18054.06,-6442.89 18072,-6131 18083.03,-5939.32 18120.74,-5884.71 18072,-5699 17956.21,-5257.82 17708.01,-5239.1 17568,-4805 17508.7,-4621.15 17544.97,-4564.56 17520,-4373 17480.1,-4066.88 17425.94,-3714.49 17390.49,-3490.6"/>
<polygon fill="blue" stroke="blue" points="17393.97,-3490.2 17388.95,-3480.87 17387.06,-3491.29 17393.97,-3490.2"/>
</g>
<!-- 139726315945280&#45;&gt;139726133354144 -->
<g id="edge60" class="edge">
<title>139726315945280&#45;&gt;139726133354144</title>
<path fill="none" stroke="blue" d="M17946.77,-7024.55C17949.49,-6801.1 17953.46,-6441.59 17955,-6131 17955.95,-5939 17998.44,-5886.02 17955,-5699 17854.85,-5267.83 17684.35,-5214.39 17516,-4805 17438.97,-4617.69 17529.32,-4499.31 17371,-4373 16510.18,-3686.22 8397.4,-3342.92 6637.68,-3276.19"/>
<polygon fill="blue" stroke="blue" points="6638.11,-3272.71 6627.98,-3275.83 6637.84,-3279.7 6638.11,-3272.71"/>
</g>
<!-- 139726315945280&#45;&gt;139726316335744 -->
<g id="edge78" class="edge">
<title>139726315945280&#45;&gt;139726316335744</title>
<path fill="none" stroke="blue" d="M17619.58,-7064.04C17591.22,-7050.31 17562.76,-7037.1 17535,-7025 16437.99,-6546.64 16081.91,-6631.88 14995,-6131 14982.98,-6125.46 14970.85,-6119.66 14958.67,-6113.65"/>
<polygon fill="blue" stroke="blue" points="14960.29,-6110.55 14949.78,-6109.23 14957.17,-6116.82 14960.29,-6110.55"/>
</g>
<!-- 139726315945280&#45;&gt;139726316336032 -->
<g id="edge145" class="edge">
<title>139726315945280&#45;&gt;139726316336032</title>
<path fill="none" stroke="blue" d="M18051.48,-7024.54C18298.04,-6530.32 18902.33,-5318.99 19153.58,-4815.35"/>
<polygon fill="blue" stroke="blue" points="19156.71,-4816.92 19158.04,-4806.41 19150.45,-4813.79 19156.71,-4816.92"/>
</g>
<!-- 139726315957824 -->
<g id="node53" class="node">
<title>139726315957824</title>
<polygon fill="none" stroke="black" points="14462.75,-7457 13449.25,-7457 13449.25,-7025 14462.75,-7025 14462.75,-7457"/>
<text text-anchor="middle" x="13956" y="-7225.25" font-family="sans" font-size="60.00">brightnessctl&#45;udev&#45;rules&#45;udev&#45;rules</text>
</g>
<!-- 139726315957824&#45;&gt;139726316335744 -->
<g id="edge71" class="edge">
<title>139726315957824&#45;&gt;139726316335744</title>
<path fill="none" stroke="#8b7765" d="M14064.63,-7024.7C14187.16,-6781.84 14385.54,-6388.64 14510.17,-6141.62"/>
<polygon fill="#8b7765" stroke="#8b7765" points="14513.25,-6143.29 14514.63,-6132.78 14507,-6140.13 14513.25,-6143.29"/>
</g>
<!-- 139726315957824&#45;&gt;139726109125216 -->
<g id="edge103" class="edge">
<title>139726315957824&#45;&gt;139726109125216</title>
<path fill="none" stroke="#8b7765" d="M13745.74,-7024.7C13507.86,-6781.12 13122.29,-6386.3 12881.19,-6139.42"/>
<polygon fill="#8b7765" stroke="#8b7765" points="12883.93,-6137.22 12874.44,-6132.51 12878.93,-6142.11 12883.93,-6137.22"/>
</g>
<!-- 139726315958016 -->
<g id="node54" class="node">
<title>139726315958016</title>
<polygon fill="none" stroke="black" points="13431.25,-7457 12414.75,-7457 12414.75,-7025 13431.25,-7025 13431.25,-7457"/>
<text text-anchor="middle" x="12923" y="-7225.25" font-family="sans" font-size="60.00">pipewire&#45;add&#45;udev&#45;rules&#45;udev&#45;rules</text>
</g>
<!-- 139726315958016&#45;&gt;139726316335744 -->
<g id="edge72" class="edge">
<title>139726315958016&#45;&gt;139726316335744</title>
<path fill="none" stroke="dimgrey" d="M13199.61,-7024.7C13513.01,-6780.76 14021.29,-6385.13 14338.37,-6138.32"/>
<polygon fill="dimgrey" stroke="dimgrey" points="14340.29,-6141.26 14346.03,-6132.36 14335.99,-6135.74 14340.29,-6141.26"/>
</g>
<!-- 139726315958016&#45;&gt;139726109125216 -->
<g id="edge104" class="edge">
<title>139726315958016&#45;&gt;139726109125216</title>
<path fill="none" stroke="dimgrey" d="M12880.72,-7024.7C12833.1,-6782.2 12756.04,-6389.81 12707.52,-6142.72"/>
<polygon fill="dimgrey" stroke="dimgrey" points="12710.96,-6142.05 12705.6,-6132.92 12704.09,-6143.4 12710.96,-6142.05"/>
</g>
<!-- 139726315945312&#45;&gt;139726316342528 -->
<g id="edge121" class="edge">
<title>139726315945312&#45;&gt;139726316342528</title>
<path fill="none" stroke="darkseagreen" d="M18001.36,-8349.57C18092.92,-8130.07 18224.79,-7777.35 18277,-7457 18404.77,-6673.01 18337.33,-6395.27 17955,-5699 17759.04,-5342.13 17418.32,-5017.18 17174.6,-4812.59"/>
<polygon fill="darkseagreen" stroke="darkseagreen" points="17177.05,-4810.07 17167.13,-4806.33 17172.55,-4815.44 17177.05,-4810.07"/>
</g>
<!-- 139726315945312&#45;&gt;139726316335744 -->
<g id="edge79" class="edge">
<title>139726315945312&#45;&gt;139726316335744</title>
<path fill="none" stroke="darkseagreen" d="M17581.72,-8521.59C17033.66,-8430.11 15928.99,-8164.12 15366,-7457 15244.33,-7304.18 15354.08,-7207.73 15285,-7025 15161.16,-6697.4 14942.24,-6356.55 14790.44,-6140.68"/>
<polygon fill="darkseagreen" stroke="darkseagreen" points="14793.43,-6138.85 14784.81,-6132.69 14787.71,-6142.88 14793.43,-6138.85"/>
</g>
<!-- 139726315945312&#45;&gt;139726316336128 -->
<g id="edge100" class="edge">
<title>139726315945312&#45;&gt;139726316336128</title>
<path fill="none" stroke="darkseagreen" d="M17831.59,-8349.61C17759.34,-8128.69 17654.4,-7773.53 17611,-7457 17547.43,-6993.38 17561.85,-6443.96 17577.37,-6142.39"/>
<polygon fill="darkseagreen" stroke="darkseagreen" points="17580.85,-6143 17577.87,-6132.83 17573.85,-6142.64 17580.85,-6143"/>
</g>
<!-- 139726315945312&#45;&gt;139726315945280 -->
<g id="edge83" class="edge">
<title>139726315945312&#45;&gt;139726315945280</title>
<path fill="none" stroke="darkseagreen" d="M17912.18,-8349.86C17919.14,-8107.55 17930.4,-7715.45 17937.49,-7468.55"/>
<polygon fill="darkseagreen" stroke="darkseagreen" points="17940.98,-7468.88 17937.77,-7458.78 17933.99,-7468.68 17940.98,-7468.88"/>
</g>
<!-- 139726315945312&#45;&gt;139726316336032 -->
<g id="edge146" class="edge">
<title>139726315945312&#45;&gt;139726316336032</title>
<path fill="none" stroke="darkseagreen" d="M18222.64,-8349.69C18485.65,-8151.41 18844.04,-7831.75 19019,-7457 19237.34,-6989.34 19264.13,-5408.98 19266.35,-4816.68"/>
<polygon fill="darkseagreen" stroke="darkseagreen" points="19269.85,-4816.98 19266.38,-4806.97 19262.85,-4816.95 19269.85,-4816.98"/>
</g>
<!-- 139726315945344 -->
<g id="node56" class="node">
<title>139726315945344</title>
<polygon fill="none" stroke="black" points="16765,-8782 16117,-8782 16117,-8350 16765,-8350 16765,-8782"/>
<text text-anchor="middle" x="16441" y="-8550.25" font-family="sans" font-size="60.00">geoclue</text>
</g>
<!-- 139726315945344&#45;&gt;139726316335744 -->
<g id="edge80" class="edge">
<title>139726315945344&#45;&gt;139726316335744</title>
<path fill="none" stroke="darkviolet" d="M16116.74,-8350.23C15847.53,-8152.56 15479.88,-7833.5 15295,-7457 15209.85,-7283.6 15306.16,-7208.9 15247,-7025 15141.37,-6696.64 14932.71,-6356.13 14786.08,-6140.53"/>
<polygon fill="darkviolet" stroke="darkviolet" points="14789.17,-6138.86 14780.65,-6132.57 14783.39,-6142.8 14789.17,-6138.86"/>
</g>
<!-- 139726315945344&#45;&gt;139726315945280 -->
<g id="edge84" class="edge">
<title>139726315945344&#45;&gt;139726315945280</title>
<path fill="none" stroke="darkviolet" d="M16685.41,-8349.86C16962.19,-8106.23 17411,-7711.17 17691.2,-7464.52"/>
<polygon fill="darkviolet" stroke="darkviolet" points="17693.11,-7467.5 17698.31,-7458.27 17688.49,-7462.25 17693.11,-7467.5"/>
</g>
<!-- 139726315945536 -->
<g id="node57" class="node">
<title>139726315945536</title>
<polygon fill="none" stroke="black" points="2843.5,-8782 2140.5,-8782 2140.5,-8350 2843.5,-8350 2843.5,-8782"/>
<text text-anchor="middle" x="2492" y="-8550.25" font-family="sans" font-size="60.00">add&#45;nonguix&#45;substitutes</text>
</g>
<!-- 139726315945536&#45;&gt;139726109126464 -->
<g id="edge82" class="edge">
<title>139726315945536&#45;&gt;139726109126464</title>
<path fill="none" stroke="magenta" d="M2440.94,-8349.86C2383.4,-8107.43 2290.28,-7715.06 2231.68,-7468.18"/>
<polygon fill="magenta" stroke="magenta" points="2235.16,-7467.66 2229.44,-7458.74 2228.34,-7469.28 2235.16,-7467.66"/>
</g>
<!-- 139726315945376 -->
<g id="node58" class="node">
<title>139726315945376</title>
<polygon fill="none" stroke="black" points="18244,-10108 17596,-10108 17596,-9676 18244,-9676 18244,-10108"/>
<text text-anchor="middle" x="17920" y="-9876.25" font-family="sans" font-size="60.00">cups&#45;pk&#45;helper</text>
</g>
<!-- 139726315945376&#45;&gt;139726315945280 -->
<g id="edge85" class="edge">
<title>139726315945376&#45;&gt;139726315945280</title>
<path fill="none" stroke="darkviolet" d="M18001.5,-9675.56C18080.3,-9454.92 18194.15,-9100.15 18239,-8782 18305.3,-8311.64 18144.16,-7767.01 18034.83,-7467.88"/>
<polygon fill="darkviolet" stroke="darkviolet" points="18038.22,-7466.95 18031.49,-7458.76 18031.65,-7469.36 18038.22,-7466.95"/>
</g>
<!-- 139726315945376&#45;&gt;139726315945312 -->
<g id="edge92" class="edge">
<title>139726315945376&#45;&gt;139726315945312</title>
<path fill="none" stroke="darkviolet" d="M17917.72,-9675.7C17915.16,-9433.2 17911.01,-9040.81 17908.4,-8793.72"/>
<polygon fill="darkviolet" stroke="darkviolet" points="17911.9,-8793.91 17908.29,-8783.94 17904.9,-8793.98 17911.9,-8793.91"/>
</g>
<!-- 139726461901248 -->
<g id="node59" class="node">
<title>139726461901248</title>
<polygon fill="none" stroke="black" points="17578,-10108 16930,-10108 16930,-9676 17578,-9676 17578,-10108"/>
<text text-anchor="middle" x="17254" y="-9876.25" font-family="sans" font-size="60.00">polkit&#45;wheel</text>
</g>
<!-- 139726461901248&#45;&gt;139726315945312 -->
<g id="edge95" class="edge">
<title>139726461901248&#45;&gt;139726315945312</title>
<path fill="none" stroke="#00cdcd" d="M17360.02,-9675.7C17479.62,-9432.84 17673.25,-9039.64 17794.9,-8792.62"/>
<polygon fill="#00cdcd" stroke="#00cdcd" points="17797.97,-8794.31 17799.24,-8783.79 17791.69,-8791.21 17797.97,-8794.31"/>
</g>
<!-- 139726109066176 -->
<g id="node60" class="node">
<title>139726109066176</title>
<polygon fill="none" stroke="black" points="17526,-7457 16878,-7457 16878,-7025 17526,-7025 17526,-7457"/>
<text text-anchor="middle" x="17202" y="-7225.25" font-family="sans" font-size="60.00">login</text>
</g>
<!-- 139726109066176&#45;&gt;139726316336128 -->
<g id="edge97" class="edge">
<title>139726109066176&#45;&gt;139726316336128</title>
<path fill="none" stroke="red" d="M17265.42,-7024.7C17336.89,-6782.08 17452.55,-6389.42 17525.33,-6142.35"/>
<polygon fill="red" stroke="red" points="17528.65,-6143.46 17528.11,-6132.88 17521.93,-6141.49 17528.65,-6143.46"/>
</g>
<!-- 139726315924544 -->
<g id="node61" class="node">
<title>139726315924544</title>
<polygon fill="none" stroke="black" points="19010,-7457 18362,-7457 18362,-7025 19010,-7025 19010,-7457"/>
<text text-anchor="middle" x="18686" y="-7225.25" font-family="sans" font-size="60.00">screen&#45;locker</text>
</g>
<!-- 139726315924544&#45;&gt;139726316336128 -->
<g id="edge101" class="edge">
<title>139726315924544&#45;&gt;139726316336128</title>
<path fill="none" stroke="red" d="M18508.1,-7024.7C18307.03,-6781.36 17981.25,-6387.08 17777.21,-6140.15"/>
<polygon fill="red" stroke="red" points="17780.04,-6138.08 17770.97,-6132.6 17774.64,-6142.54 17780.04,-6138.08"/>
</g>
<!-- 139726315924544&#45;&gt;139726316336032 -->
<g id="edge147" class="edge">
<title>139726315924544&#45;&gt;139726316336032</title>
<path fill="none" stroke="red" d="M18733.16,-7024.54C18841.27,-6530.56 19106.19,-5320.18 19216.52,-4816.09"/>
<polygon fill="red" stroke="red" points="19219.89,-4817.05 19218.61,-4806.53 19213.05,-4815.55 19219.89,-4817.05"/>
</g>
<!-- 139726315957696 -->
<g id="node62" class="node">
<title>139726315957696</title>
<polygon fill="none" stroke="black" points="714,-6131 66,-6131 66,-5699 714,-5699 714,-6131"/>
<text text-anchor="middle" x="390" y="-5899.25" font-family="sans" font-size="60.00">system&#45;cron&#45;jobs</text>
</g>
<!-- 139726315957696&#45;&gt;139726316381152 -->
<g id="edge109" class="edge">
<title>139726315957696&#45;&gt;139726316381152</title>
<path fill="none" stroke="darkviolet" d="M390,-5698.7C390,-5456.2 390,-5063.81 390,-4816.72"/>
<polygon fill="darkviolet" stroke="darkviolet" points="393.5,-4816.94 390,-4806.94 386.5,-4816.94 393.5,-4816.94"/>
</g>
<!-- 139726316341248&#45;&gt;139726316342528 -->
<g id="edge110" class="edge">
<title>139726316341248&#45;&gt;139726316342528</title>
<path fill="none" stroke="blue" d="M19262.13,-8349.7C19249.94,-8044.14 19202.07,-7472.14 19019,-7025 18620.62,-6051.97 17665.7,-5200.17 17180.96,-4812.44"/>
<polygon fill="blue" stroke="blue" points="17183.27,-4809.8 17173.27,-4806.29 17178.9,-4815.27 17183.27,-4809.8"/>
</g>
<!-- 139726316341376&#45;&gt;139726316342528 -->
<g id="edge111" class="edge">
<title>139726316341376&#45;&gt;139726316342528</title>
<path fill="none" stroke="red" d="M12245.46,-5704.69C12249.98,-5702.73 12254.49,-5700.84 12259,-5699 14047.79,-4970.26 14706.55,-5491.41 16512,-4805 16525.65,-4799.81 16539.4,-4794.17 16553.14,-4788.18"/>
<polygon fill="red" stroke="red" points="16554.54,-4791.39 16562.27,-4784.14 16551.71,-4784.98 16554.54,-4791.39"/>
</g>
<!-- 139726316342048 -->
<g id="node65" class="node">
<title>139726316342048</title>
<polygon fill="none" stroke="black" points="17060,-6131 16412,-6131 16412,-5699 17060,-5699 17060,-6131"/>
<text text-anchor="middle" x="16736" y="-5899.25" font-family="sans" font-size="60.00">etc&#45;hosts</text>
</g>
<!-- 139726316342048&#45;&gt;139726316342528 -->
<g id="edge112" class="edge">
<title>139726316342048&#45;&gt;139726316342528</title>
<path fill="none" stroke="#8b7765" d="M16760.72,-5698.7C16788.56,-5456.2 16833.61,-5063.81 16861.97,-4816.72"/>
<polygon fill="#8b7765" stroke="#8b7765" points="16865.43,-4817.27 16863.1,-4806.93 16858.48,-4816.47 16865.43,-4817.27"/>
</g>
<!-- 139726109126560 -->
<g id="node66" class="node">
<title>139726109126560</title>
<polygon fill="none" stroke="black" points="16356,-6131 15708,-6131 15708,-5699 16356,-5699 16356,-6131"/>
<text text-anchor="middle" x="16032" y="-5899.25" font-family="sans" font-size="60.00">etc&#45;bashrc&#45;d</text>
</g>
<!-- 139726109126560&#45;&gt;139726316342528 -->
<g id="edge117" class="edge">
<title>139726109126560&#45;&gt;139726316342528</title>
<path fill="none" stroke="darkviolet" d="M16171.2,-5698.7C16328.37,-5455.6 16582.93,-5061.86 16742.61,-4814.88"/>
<polygon fill="darkviolet" stroke="darkviolet" points="16745.41,-4817 16747.9,-4806.7 16739.53,-4813.2 16745.41,-4817"/>
</g>
<!-- 139726316340960 -->
<g id="node67" class="node">
<title>139726316340960</title>
<polygon fill="none" stroke="black" points="18258,-4805 17610,-4805 17610,-4373 18258,-4373 18258,-4805"/>
<text text-anchor="middle" x="17934" y="-4573.25" font-family="sans" font-size="60.00">firmware</text>
</g>
<!-- 139726316340960&#45;&gt;139726132976448 -->
<g id="edge125" class="edge">
<title>139726316340960&#45;&gt;139726132976448</title>
<path fill="none" stroke="darkgoldenrod" d="M17839.68,-4372.7C17733.3,-4129.84 17561.05,-3736.64 17452.84,-3489.62"/>
<polygon fill="darkgoldenrod" stroke="darkgoldenrod" points="17456.2,-3488.57 17448.98,-3480.82 17449.79,-3491.38 17456.2,-3488.57"/>
</g>
<!-- 139726132976032 -->
<g id="node68" class="node">
<title>139726132976032</title>
<polygon fill="none" stroke="black" points="18924,-4805 18276,-4805 18276,-4373 18924,-4373 18924,-4805"/>
<text text-anchor="middle" x="18600" y="-4573.25" font-family="sans" font-size="60.00">linux&#45;bare&#45;metal</text>
</g>
<!-- 139726132976032&#45;&gt;139726132976448 -->
<g id="edge126" class="edge">
<title>139726132976032&#45;&gt;139726132976448</title>
<path fill="none" stroke="dimgrey" d="M18397.38,-4372.7C18168.27,-4129.24 17796.96,-3734.69 17564.6,-3487.79"/>
<polygon fill="dimgrey" stroke="dimgrey" points="17567.18,-3485.42 17557.78,-3480.53 17562.08,-3490.21 17567.18,-3485.42"/>
</g>
<!-- 139726316336032&#45;&gt;139726132976448 -->
<g id="edge129" class="edge">
<title>139726316336032&#45;&gt;139726132976448</title>
<path fill="none" stroke="darkseagreen" d="M18954.82,-4372.51C18602.31,-4128.42 18030.72,-3732.61 17674.44,-3485.89"/>
<polygon fill="darkseagreen" stroke="darkseagreen" points="17676.47,-3483.04 17666.26,-3480.23 17672.49,-3488.8 17676.47,-3483.04"/>
</g>
<!-- 139726109124704 -->
<g id="node70" class="node">
<title>139726109124704</title>
<polygon fill="none" stroke="black" points="20294,-4805 19646,-4805 19646,-4373 20294,-4373 20294,-4805"/>
<text text-anchor="middle" x="19970" y="-4573.25" font-family="sans" font-size="60.00">special&#45;files</text>
</g>
<!-- 139726109124704&#45;&gt;139726132976448 -->
<g id="edge130" class="edge">
<title>139726109124704&#45;&gt;139726132976448</title>
<path fill="none" stroke="#00cdcd" d="M19645.72,-4380.74C19641.13,-4378.13 19636.55,-4375.55 19632,-4373 18958.3,-3996.34 18137.88,-3614.99 17688.41,-3412.35"/>
<polygon fill="#00cdcd" stroke="#00cdcd" points="17690.13,-3409.29 17679.57,-3408.37 17687.25,-3415.67 17690.13,-3409.29"/>
</g>
<!-- 139726316338592 -->
<g id="node71" class="node">
<title>139726316338592</title>
<polygon fill="none" stroke="black" points="21074,-3479 20426,-3479 20426,-3047 21074,-3047 21074,-3479"/>
<text text-anchor="middle" x="20750" y="-3247.25" font-family="sans" font-size="60.00">cleanup</text>
</g>
<!-- 139726316338592&#45;&gt;139726132976736 -->
<g id="edge150" class="edge">
<title>139726316338592&#45;&gt;139726132976736</title>
<path fill="none" stroke="darkgoldenrod" d="M20425.72,-3053.6C20421.13,-3051.35 20416.56,-3049.15 20412,-3047 19255.36,-2501.65 18828.68,-2703.68 17669.37,-2154.58"/>
<polygon fill="darkgoldenrod" stroke="darkgoldenrod" points="17671.03,-2151.5 17660.5,-2150.37 17668.03,-2157.82 17671.03,-2151.5"/>
</g>
</g>
</svg>
