<svg width="18" height="18" viewBox="0 0 32 32" fill="none" xmlns="http://www.w3.org/2000/svg">
<path d="M28.1482 24.7649C27.6871 25.8303 27.1412 26.811 26.5087 27.7127C25.6466 28.9418 24.9407 29.7927 24.3967 30.2651C23.5534 31.0407 22.6499 31.4378 21.6824 31.4604C20.9878 31.4604 20.1501 31.2628 19.1751 30.8618C18.1968 30.4628 17.2978 30.2651 16.4758 30.2651C15.6136 30.2651 14.689 30.4628 13.7 30.8618C12.7096 31.2628 11.9116 31.4717 11.3016 31.4924C10.3737 31.532 9.44894 31.1235 8.52584 30.2651C7.93666 29.7512 7.19972 28.8703 6.31689 27.6223C5.36969 26.2896 4.59096 24.7442 3.98089 22.9823C3.32753 21.0792 3 19.2364 3 17.4523C3 15.4087 3.4416 13.646 4.32612 12.1689C5.02127 10.9825 5.94607 10.0466 7.10353 9.35953C8.26099 8.67247 9.51162 8.32235 10.8584 8.29995C11.5954 8.29995 12.5618 8.5279 13.7627 8.9759C14.9603 9.42541 15.7292 9.65336 16.0664 9.65336C16.3184 9.65336 17.1726 9.38682 18.6207 8.85543C19.9901 8.36263 21.1459 8.15859 22.0927 8.23896C24.6584 8.44602 26.5859 9.45741 27.8678 11.2795C25.5732 12.6698 24.4381 14.6171 24.4607 17.1152C24.4814 19.061 25.1873 20.6802 26.5746 21.9658C27.2033 22.5625 27.9054 23.0237 28.6866 23.3512C28.5172 23.8425 28.3384 24.3131 28.1482 24.7649ZM22.264 1.61007C22.264 3.13515 21.7068 4.55915 20.5962 5.87718C19.256 7.44405 17.6349 8.34946 15.877 8.20659C15.8534 8.01486 15.8416 7.82187 15.8416 7.62871C15.8416 6.16461 16.479 4.59774 17.6108 3.31661C18.1759 2.66795 18.8946 2.12866 19.7661 1.69835C20.6358 1.27445 21.4584 1.04009 22.232 1C22.2546 1.20386 22.264 1.40791 22.264 1.61007Z" fill="black"/>
</svg>
