<svg width="24" height="24" viewBox="0 0 24 24" fill="none" xmlns="http://www.w3.org/2000/svg">
<path fill-rule="evenodd" clip-rule="evenodd" d="M4.63636 12C4.63636 7.93318 7.93318 4.63636 12 4.63636C16.0668 4.63636 19.3636 7.93318 19.3636 12C19.3636 14.2201 18.3812 16.2107 16.8273 17.5607C16.7067 17.0433 16.4552 16.5613 16.0887 16.1703C15.5563 15.6025 14.8226 15.2727 14.0454 15.2727H9.95454C9.17739 15.2727 8.44365 15.6025 7.91129 16.1703C7.54482 16.5612 7.29327 17.0433 7.17268 17.5607C5.61882 16.2107 4.63636 14.2201 4.63636 12ZM8.72564 18.5974C9.71192 19.0878 10.8238 19.3636 12 19.3636C13.1762 19.3636 14.2881 19.0878 15.2743 18.5974C15.2733 18.5802 15.2727 18.5629 15.2727 18.5454V18.2727C15.2727 17.8946 15.1314 17.5418 14.8949 17.2895C14.6601 17.039 14.3533 16.9091 14.0454 16.9091H9.95454C9.64671 16.9091 9.33992 17.039 9.10508 17.2895C8.86857 17.5418 8.72727 17.8946 8.72727 18.2727V18.5454C8.72727 18.5629 8.72672 18.5802 8.72564 18.5974ZM12 3C7.02944 3 3 7.02944 3 12C3 16.9706 7.02944 21 12 21C16.9706 21 21 16.9706 21 12C21 7.02944 16.9706 3 12 3ZM12 8.7273C11.0963 8.7273 10.3637 9.45992 10.3637 10.3637C10.3637 11.2674 11.0963 12 12 12C12.9038 12 13.6364 11.2674 13.6364 10.3637C13.6364 9.45992 12.9038 8.7273 12 8.7273ZM8.72729 10.3637C8.72729 8.55618 10.1925 7.09093 12 7.09093C13.8075 7.09093 15.2727 8.55618 15.2727 10.3637C15.2727 12.1711 13.8075 13.6364 12 13.6364C10.1925 13.6364 8.72729 12.1711 8.72729 10.3637Z" fill="#393855"/>
</svg>
