<svg width="168" height="168" viewBox="0 0 168 168" fill="none" xmlns="http://www.w3.org/2000/svg">
<path d="M164 84C164 128.183 128.183 164 84 164C39.8172 164 4 128.183 4 84C4 39.8172 39.8172 4 84 4C128.183 4 164 39.8172 164 84Z" fill="white" stroke="#28E484" stroke-width="8"/>
<path fill-rule="evenodd" clip-rule="evenodd" d="M109.966 62.9399C112.532 65.3264 112.691 69.3565 110.323 71.9413L80.3003 104.701C79.1034 106.007 77.4193 106.75 75.655 106.75C73.8906 106.75 72.2066 106.007 71.0097 104.701L57.6773 90.1532C55.3085 87.5684 55.468 83.5383 58.0335 81.1518C60.5991 78.7652 64.5991 78.9259 66.9679 81.5107L75.655 90.9899L101.032 63.2988C103.401 60.714 107.401 60.5533 109.966 62.9399Z" fill="#28E484"/>
</svg>
