<svg width="110" height="110" viewBox="0 0 110 110" fill="none" xmlns="http://www.w3.org/2000/svg">
<path d="M54.9998 105C82.614 105 105 82.6142 105 55C105 27.3858 82.614 5 54.9998 5C27.3857 5 5 27.3858 5 55C5 82.6142 27.3857 105 54.9998 105Z" stroke="#ED795E" stroke-width="10" stroke-miterlimit="10"/>
<path d="M60.8486 5.32959C74.5415 17.4868 83.1886 35.2199 83.1886 54.9823C83.1886 74.7263 74.5597 92.4777 60.8669 104.635" stroke="#ED795E" stroke-width="10" stroke-miterlimit="10"/>
<path d="M49.131 5.32959C35.4382 17.4868 26.791 35.2199 26.791 54.9823C26.791 74.7263 35.4199 92.4777 49.1127 104.635" stroke="#ED795E" stroke-width="10" stroke-miterlimit="10"/>
<path d="M97.4667 26.0239C86.5892 36.9014 71.5801 43.6108 54.9988 43.6108C38.9294 43.6108 24.3408 37.3036 13.5547 27.0111" stroke="#ED795E" stroke-width="10" stroke-miterlimit="10"/>
<path d="M97.4667 83.9574C86.5892 73.0799 71.5801 66.3706 54.9988 66.3706C38.9294 66.3706 24.3408 72.6777 13.5547 82.9702" stroke="#ED795E" stroke-width="10" stroke-miterlimit="10"/>
<path d="M104.981 55H5" stroke="#ED795E" stroke-width="10" stroke-miterlimit="10"/>
<path d="M54.999 104.982V5" stroke="#ED795E" stroke-width="10" stroke-miterlimit="10"/>
</svg>
