<svg fill="none" height="24" viewBox="0 0 24 24" width="24" xmlns="http://www.w3.org/2000/svg"><path clip-rule="evenodd" d="m2 5.72727c0-1.50623 1.22104-2.72727 2.72727-2.72727h14.54543c1.5063 0 2.7273 1.22104 2.7273 2.72727v9.09093c0 1.5062-1.221 2.7273-2.7273 2.7273h-4.1477l1.3007 2.2762c.1608.2814.1596.627-.0031.9073-.1626.2803-.4622.4528-.7862.4528h-7.27276c-.32407 0-.62363-.1725-.78629-.4528-.16265-.2803-.16381-.6259-.00303-.9073l1.30072-2.2762h-4.14777c-1.50623 0-2.72727-1.2211-2.72727-2.7273zm2.72727-.90909c-.50207 0-.90909.40702-.90909.90909v6.36363h16.36362v-6.36363c0-.50207-.407-.90909-.9091-.90909zm15.45453 9.09092h-16.36362v.9091c0 .5021.40702.9091.90909.9091h14.54543c.5021 0 .9091-.407.9091-.9091zm-9.2127 3.6364-1.03894 1.8181h4.13964l-1.0389-1.8181z" fill="#393855" fill-rule="evenodd"/></svg>