<svg fill="none" height="24" viewBox="0 0 24 24" width="24" xmlns="http://www.w3.org/2000/svg"><path clip-rule="evenodd" d="m12.749 15.8492h-3.40999v2.1967h2.60319c.2247 0 .4068.1821.4068.4068s-.1821.4068-.4068.4068h-6.02031c-.22466 0-.40678-.1821-.40678-.4068s.18212-.4068.40678-.4068h2.60356v-2.1967h-5.61358c-1.0559 0-1.91187-.856-1.91187-1.9119v-7.52543c0-1.0559.85597-1.91187 1.91187-1.91187h12.04073c1.0559 0 1.9119.85597 1.9119 1.91187v1.88076c-.2795.06104-.5512.14259-.8136.243v-2.12376c0-.60658-.4917-1.09831-1.0983-1.09831h-12.04073c-.60658 0-1.09831.49173-1.09831 1.09831v7.52543c0 .6066.49173 1.0983 1.09831 1.0983h6.01463.00573.00573 3.57494c.0588.2793.1381.551.2361.8136z" fill="#393855" fill-rule="evenodd"/><path d="m9.33901 15.8492v-.5c-.27614 0-.5.2238-.5.5zm3.40999 0v.5c.1639 0 .3174-.0803.4108-.215.0935-.1346.115-.3065.0576-.46zm-3.40999 2.1967h-.5c0 .2762.22386.5.5.5zm-.81356 0v.5c.27614 0 .5-.2238.5-.5zm0-2.1967h.5c0-.2762-.22386-.5-.5-.5zm8.33905-7.55657.1067.48848c.2296-.05016.3933-.25346.3933-.48848zm-.8136.243h-.5c0 .16458.081.31862.2166.41191s.3084.11389.4621.05507zm-7.1244 6.49997v.5h.00341zm.00573 0 .00341-.5001-.00682.0001zm.00573 0-.00341.5h.00341zm3.57494 0 .4892-.103c-.0487-.2314-.2528-.397-.4892-.397zm-3.17389 1.3136h3.40999v-1h-3.40999zm.5 1.6967v-2.1967h-1v2.1967zm2.10319-.5h-2.60319v1h2.60319zm.9068.9068c0-.5008-.4059-.9068-.9068-.9068v1c-.0514 0-.0932-.0417-.0932-.0932zm-.9068.9068c.5009 0 .9068-.406.9068-.9068h-1c0-.0515.0418-.0932.0932-.0932zm-6.02031 0h6.02031v-1h-6.02031zm-.90678-.9068c0 .5008.40598.9068.90678.9068v-1c.05148 0 .09322.0417.09322.0932zm.90678-.9068c-.5008 0-.90678.406-.90678.9068h1c0 .0515-.04174.0932-.09322.0932zm2.60356 0h-2.60356v1h2.60356zm-.5-1.6967v2.1967h1v-2.1967zm-5.11358.5h5.61358v-1h-5.61358zm-2.41187-2.4119c0 1.3321 1.07983 2.4119 2.41187 2.4119v-1c-.77975 0-1.41187-.6321-1.41187-1.4119zm0-7.52543v7.52543h1v-7.52543zm2.41187-2.41187c-1.33204 0-2.41187 1.07983-2.41187 2.41187h1c0-.77975.63212-1.41187 1.41187-1.41187zm12.04073 0h-12.04073v1h12.04073zm2.4119 2.41187c0-1.33204-1.0799-2.41187-2.4119-2.41187v1c.7797 0 1.4119.63212 1.4119 1.41187zm0 1.88076v-1.88076h-1v1.88076zm-1.1349.70998c.2392-.09152.4869-.16586.7416-.2215l-.2135-.97696c-.3041.06644-.5999.15521-.8855.2645zm.3213-.46698v-2.12376h-1v2.12376zm0-2.12376c0-.88272-.7156-1.59831-1.5983-1.59831v1c.3304 0 .5983.26787.5983.59831zm-1.5983-1.59831h-12.04073v1h12.04073zm-12.04073 0c-.88272 0-1.59831.71559-1.59831 1.59831h1c0-.33044.26787-.59831.59831-.59831zm-1.59831 1.59831v7.52543h1v-7.52543zm0 7.52543c0 .8827.71559 1.5983 1.59831 1.5983v-1c-.33044 0-.59831-.2678-.59831-.5983zm1.59831 1.5983h6.01463v-1h-6.01463zm6.01804 0h.00573l-.00682-1h-.00573zm-.00109 0h.00573l.00682-1h-.00573zm.00914 0h3.57494v-1h-3.57494zm4.27944.1386c-.0894-.2393-.1616-.487-.2153-.7416l-.9785.206c.064.304.1503.5998.2571.8856z" fill="#393855"/><circle cx="19" cy="14.25" r="3.5" stroke="#393855" stroke-width="2"/></svg>