<svg width="32" height="24" viewBox="0 0 32 24" fill="none" xmlns="http://www.w3.org/2000/svg">
<path fill-rule="evenodd" clip-rule="evenodd" d="M13.71 3.31051L9.32334 6.56172C8.92667 6.8563 8.46334 7 8.00001 7C7.53667 7 7.07334 6.8563 6.67667 6.56172L2.29001 3.31051C1.98667 3.08418 1.91001 2.63871 2.11667 2.3118C2.32667 1.98488 2.74001 1.90225 3.04334 2.12499L7.43334 5.37619C7.77334 5.62767 8.22667 5.62767 8.56667 5.37619L12.9567 2.12499C13.26 1.90225 13.6733 1.98488 13.8833 2.3118C14.09 2.63871 14.0133 3.08418 13.71 3.31051ZM14.3333 0H1.66667C0.746667 0 0 0.746667 0 1.66667V10.3333C0 11.2533 0.746667 12 1.66667 12H14.3333C15.2533 12 16 11.2533 16 10.3333V1.66667C16 0.746667 15.2533 0 14.3333 0Z" transform="scale(2)" fill="#47525D"/>
</svg>
