<svg width="18" height="18" viewBox="0 0 18 18" fill="none" xmlns="http://www.w3.org/2000/svg">
<path d="M3.78176 11.3746C3.78176 12.4153 2.93159 13.2655 1.89088 13.2655C0.850163 13.2655 0 12.4153 0 11.3746C0 10.3339 0.850163 9.4837 1.89088 9.4837H3.78176V11.3746Z" fill="#E01E5A"/>
<path d="M4.73453 11.3746C4.73453 10.3339 5.58469 9.4837 6.62541 9.4837C7.66612 9.4837 8.51628 10.3339 8.51628 11.3746V16.1091C8.51628 17.1498 7.66612 18 6.62541 18C5.58469 18 4.73453 17.1498 4.73453 16.1091V11.3746Z" fill="#E01E5A"/>
<path d="M6.62541 3.78176C5.58469 3.78176 4.73453 2.9316 4.73453 1.89088C4.73453 0.850163 5.58469 0 6.62541 0C7.66612 0 8.51628 0.850163 8.51628 1.89088V3.78176H6.62541Z" fill="#36C5F0"/>
<path d="M6.62541 4.73456C7.66612 4.73456 8.51628 5.58472 8.51628 6.62544C8.51628 7.66615 7.66612 8.51632 6.62541 8.51632H1.89088C0.850163 8.51632 0 7.66615 0 6.62544C0 5.58472 0.850163 4.73456 1.89088 4.73456H6.62541Z" fill="#36C5F0"/>
<path d="M14.2182 6.62544C14.2182 5.58472 15.0684 4.73456 16.1091 4.73456C17.1498 4.73456 18 5.58472 18 6.62544C18 7.66615 17.1498 8.51632 16.1091 8.51632H14.2182V6.62544Z" fill="#2EB67D"/>
<path d="M13.2655 6.62541C13.2655 7.66613 12.4153 8.51629 11.3746 8.51629C10.3339 8.51629 9.4837 7.66613 9.4837 6.62541V1.89088C9.4837 0.850163 10.3339 0 11.3746 0C12.4153 0 13.2655 0.850163 13.2655 1.89088V6.62541Z" fill="#2EB67D"/>
<path d="M11.3746 14.2183C12.4153 14.2183 13.2655 15.0684 13.2655 16.1091C13.2655 17.1499 12.4153 18 11.3746 18C10.3339 18 9.4837 17.1499 9.4837 16.1091V14.2183H11.3746Z" fill="#ECB22E"/>
<path d="M11.3746 13.2655C10.3339 13.2655 9.4837 12.4153 9.4837 11.3746C9.4837 10.3339 10.3339 9.4837 11.3746 9.4837H16.1091C17.1498 9.4837 18 10.3339 18 11.3746C18 12.4153 17.1498 13.2655 16.1091 13.2655H11.3746Z" fill="#ECB22E"/>
</svg>
