<svg width="24" height="24" viewBox="0 0 24 24" fill="none" xmlns="http://www.w3.org/2000/svg">
<circle cx="12" cy="12" r="12" fill="white"/>
<path d="M2.78313 0.986354C2.53383 0.237841 1.73344 -0.169245 0.985545 0.0671272C0.237646 0.316632 -0.169107 1.11767 0.0670722 1.86619L3.75408 13.2121C4.00338 13.9081 4.7644 14.302 5.48606 14.0919C6.24708 13.8687 6.70632 13.0676 6.45702 12.3322C6.45702 12.306 2.78313 0.986354 2.78313 0.986354Z" transform="translate(11.5864 4)" fill="#ECB32D"/>
<path d="M2.78313 0.986354C2.53383 0.237841 1.73344 -0.169245 0.985545 0.0671272C0.237646 0.316632 -0.169107 1.11767 0.0670722 1.86619L3.75409 13.2121C4.00338 13.9081 4.7644 14.302 5.48606 14.0919C6.24708 13.8687 6.70632 13.0676 6.45702 12.3322C6.45702 12.306 2.78313 0.986354 2.78313 0.986354Z" transform="translate(5.87891 5.85156)" fill="#63C1A0"/>
<path d="M13.1644 2.78541C13.9123 2.53591 14.319 1.73487 14.0829 0.986354C13.8336 0.237841 13.0332 -0.169245 12.2853 0.0671272L0.935577 3.7703C0.240161 4.0198 -0.15347 4.78145 0.0564671 5.5037C0.279525 6.26534 1.07991 6.72496 1.81469 6.47545C1.84093 6.47545 13.1644 2.78541 13.1644 2.78541Z" transform="translate(5.8501 11.5898)" fill="#E01A59"/>
<path d="M0.87911 3.59812C1.61389 3.36174 2.57172 3.04658 3.59517 2.71828C3.35899 1.9829 3.04408 1.02428 2.71606 0L0 0.879831L0.87911 3.59812Z" transform="translate(8.26831 13.9946)" fill="#331433"/>
<path d="M0.879111 3.59811C1.90255 3.26982 2.86039 2.95466 3.59517 2.71828C3.35899 1.9829 3.04408 1.02428 2.71606 0L0 0.879831L0.879111 3.59811Z" transform="translate(13.989 12.1299)" fill="#D62027"/>
<path d="M13.1513 2.78541C13.8992 2.53591 14.3059 1.73487 14.0697 0.986354C13.8204 0.237841 13.0201 -0.169245 12.2722 0.0671272L0.935577 3.75717C0.240162 4.00667 -0.15347 4.76831 0.056467 5.49056C0.279525 6.25221 1.07991 6.71182 1.81469 6.46232C1.84093 6.46232 13.1513 2.78541 13.1513 2.78541Z" transform="translate(4 5.87793)" fill="#89D3DF"/>
<path d="M0.87911 3.59812C1.61389 3.36174 2.57172 3.04658 3.59517 2.71829C3.26714 1.694 2.95223 0.735381 2.71606 0L0 0.879832L0.87911 3.59812Z" transform="translate(6.41821 8.26953)" fill="#258B74"/>
<path d="M0.87911 3.59812C1.90255 3.26982 2.86039 2.95466 3.59517 2.71828C3.26714 1.694 2.95223 0.735381 2.71606 0L0 0.879831L0.87911 3.59812Z" transform="translate(12.126 6.41797)" fill="#819C3C"/>
</svg>
