<svg enable-background="new 0 0 48 48" viewBox="0 0 48 48" xmlns="http://www.w3.org/2000/svg"><path d="m24 0c13.3 0 24 10.7 24 24 0 13.3-10.7 24-24 24-13.3 0-24-10.7-24-24 0-13.3 10.7-24 24-24z" fill="#e9e9fd"/><path d="m36 22.7h-7.3l6.3-3.7-1.3-2.2-6.3 3.7 3.7-6.3-2.2-1.2-3.7 6.3v-7.3h-2.5v7.3l-3.6-6.3-2.2 1.3 3.7 6.3-6.3-3.7-1.3 2.2 6.3 3.7h-7.3v2.5h7.3l-6.3 3.6 1.3 2.2 6.3-3.7-3.7 6.3 2.2 1.3 3.7-6.3v7.3h2.5v-7.5l3.7 6.5 2-1.2-3.7-6.4 6.5 3.7 1.3-2.2-6.3-3.7h7.2zm-12 4.7c-1.9 0-3.4-1.5-3.4-3.4s1.5-3.4 3.4-3.4 3.4 1.5 3.4 3.4-1.5 3.4-3.4 3.4z" fill="#625df5"/></svg>