<svg xmlns="http://www.w3.org/2000/svg" viewBox="2842.4 1025.1 2667.2 2097.1"><path d="M-10268.9 1040h-952.7m-353.9 0h-449.1c-22.6 0-40.8 18.2-40.8 40.8V3068c0 22.5 18.2 40.8 40.8 40.8h2558.7c22.6 0 40.8-18.3 40.8-40.8V1080.8c0-22.6-18.2-40.8-40.8-40.8H-9915m408.2 1987.1h-2477.1V1121.6h2477.1v1905.5z"/><path d="M-11747.9 2060.7h237.3c19.4 0 35.2-15.8 35.2-35.2v-246.1c0-19.4-15.8-35.2-35.2-35.2h-237.3c-19.5 0-35.2 15.8-35.2 35.2v246.1c.1 19.4 15.7 35.2 35.2 35.2zm35.2-246.1h167v175.8h-167v-175.8zM-11396.3 2060.7h237.3c19.5 0 35.2-15.8 35.2-35.2v-246.1c0-19.4-15.7-35.2-35.2-35.2h-237.3c-19.5 0-35.2 15.8-35.2 35.2v246.1c.1 19.4 15.8 35.2 35.2 35.2zm35.1-246.1h167v175.8h-167v-175.8zM-11396.3 2428.7h237.3c19.5 0 35.2-15.8 35.2-35.2v-246.1c0-19.4-15.7-35.2-35.2-35.2h-237.3c-19.5 0-35.2 15.8-35.2 35.2v246.1c.1 19.5 15.8 35.2 35.2 35.2zm35.1-246.1h167v175.8h-167v-175.8zM-11044.7 2060.7h237.3c19.5 0 35.2-15.8 35.2-35.2v-246.1c0-19.4-15.7-35.2-35.2-35.2h-237.3c-19.4 0-35.1 15.8-35.1 35.2v246.1c0 19.4 15.7 35.2 35.1 35.2zm35.1-246.1h167v175.8h-167v-175.8zM-10693.1 2060.7h237.3c19.5 0 35.2-15.8 35.2-35.2v-246.1c0-19.4-15.7-35.2-35.2-35.2h-237.3c-19.5 0-35.2 15.8-35.2 35.2v246.1c0 19.4 15.8 35.2 35.2 35.2zm35.1-246.1h167v175.8h-167v-175.8zM-10341.5 2060.7h237.3c19.5 0 35.2-15.8 35.2-35.2v-246.1c0-19.4-15.8-35.2-35.2-35.2h-237.3c-19.5 0-35.2 15.8-35.2 35.2v246.1c.1 19.4 15.8 35.2 35.2 35.2zm35.2-246.1h167v175.8h-167v-175.8zM-9994.4 2060.7h237.3c19.4 0 35.2-15.8 35.2-35.2v-246.1c0-19.4-15.8-35.2-35.2-35.2h-237.3c-19.5 0-35.2 15.8-35.2 35.2v246.1c0 19.4 15.7 35.2 35.2 35.2zm35.1-246.1h167v175.8h-167v-175.8zM-9992.7 2795h237.3c19.4 0 35.2-15.8 35.2-35.2v-246.1c0-19.4-15.8-35.2-35.2-35.2h-237.3c-19.5 0-35.2 15.8-35.2 35.2v246.1c0 19.4 15.7 35.2 35.2 35.2zm35.2-246.2h167v175.8h-167v-175.8zM-11749.9 2795h237.3c19.4 0 35.2-15.8 35.2-35.2v-246.1c0-19.4-15.8-35.2-35.2-35.2h-237.3c-19.5 0-35.2 15.8-35.2 35.2v246.1c.1 19.4 15.8 35.2 35.2 35.2zm35.2-246.2h167v175.8h-167v-175.8zM-11396.3 1693.2h237.3c19.5 0 35.2-15.8 35.2-35.2v-246.1c0-19.4-15.7-35.2-35.2-35.2h-237.3c-19.5 0-35.2 15.8-35.2 35.2V1658c.1 19.5 15.8 35.2 35.2 35.2zm35.1-246.1h167v175.8h-167v-175.8zM-11747.9 1693.2h237.3c19.5 0 35.2-15.8 35.2-35.2v-246.1c0-19.4-15.7-35.2-35.2-35.2h-237.3c-19.5 0-35.2 15.8-35.2 35.2V1658c.1 19.5 15.7 35.2 35.2 35.2zm35.1-246.1h167v175.8h-167v-175.8zM-11044.7 1693.2h237.3c19.5 0 35.2-15.8 35.2-35.2v-246.1c0-19.4-15.7-35.2-35.2-35.2h-237.3c-19.4 0-35.1 15.8-35.1 35.2V1658c0 19.5 15.7 35.2 35.1 35.2zm35.1-246.1h167v175.8h-167v-175.8zM-10693.1 1693.2h237.3c19.5 0 35.2-15.8 35.2-35.2v-246.1c0-19.4-15.7-35.2-35.2-35.2h-237.3c-19.5 0-35.2 15.8-35.2 35.2V1658c0 19.5 15.8 35.2 35.2 35.2zm35.1-246.1h167v175.8h-167v-175.8zM-10341.5 1693.2h237.3c19.5 0 35.2-15.8 35.2-35.2v-246.1c0-19.4-15.8-35.2-35.2-35.2h-237.3c-19.5 0-35.2 15.8-35.2 35.2V1658c.1 19.5 15.8 35.2 35.2 35.2zm35.2-246.1h167v175.8h-167v-175.8zM-9994.4 1693.2h237.3c19.4 0 35.2-15.8 35.2-35.2v-246.1c0-19.4-15.8-35.2-35.2-35.2h-237.3c-19.5 0-35.2 15.8-35.2 35.2V1658c0 19.5 15.7 35.2 35.2 35.2zm35.1-246.1h167v175.8h-167v-175.8zM-11747.9 2428.1h237.3c19.4 0 35.2-15.8 35.2-35.2v-246.1c0-19.4-15.8-35.2-35.2-35.2h-237.3c-19.5 0-35.2 15.8-35.2 35.2V2393c.1 19.4 15.7 35.1 35.2 35.1zm35.2-246.1h167v175.8h-167V2182zM-11044.7 2428.1h237.3c19.5 0 35.2-15.8 35.2-35.2v-246.1c0-19.4-15.7-35.2-35.2-35.2h-237.3c-19.4 0-35.1 15.8-35.1 35.2V2393c0 19.4 15.7 35.1 35.1 35.1zm35.1-246.1h167v175.8h-167V2182zM-10693.1 2428.1h237.3c19.5 0 35.2-15.8 35.2-35.2v-246.1c0-19.4-15.7-35.2-35.2-35.2h-237.3c-19.5 0-35.2 15.8-35.2 35.2V2393c0 19.4 15.8 35.1 35.2 35.1zm35.1-246.1h167v175.8h-167V2182zM-10341.5 2428.1h584.4c19.5 0 35.2-15.8 35.2-35.2v-246.1c0-19.4-15.8-35.2-35.2-35.2h-584.4c-19.5 0-35.2 15.8-35.2 35.2V2393c.1 19.4 15.8 35.1 35.2 35.1zm35.2-246.1h514v175.8h-514V2182zM-11397.4 2795.6h1293.8c19.4 0 35.2-15.8 35.2-35.2v-246.1c0-19.4-15.8-35.2-35.2-35.2h-1293.8c-19.5 0-35.2 15.8-35.2 35.2v246.1c.1 19.5 15.8 35.2 35.2 35.2zm35.2-246.1h1223.4v175.8h-1223.4v-175.8z"/><g fill="#63707A" stroke="#63707A" stroke-miterlimit="10"><path stroke-width="20" d="M5458.9 1035.1H2893.1c-22.5 0-40.7 18.2-40.7 40.7v1995.6c0 22.5 18.2 40.7 40.7 40.7h2565.7c22.5 0 40.7-18.2 40.7-40.7V1075.8c.1-22.5-18.1-40.7-40.6-40.7zm-40.8 1995.6H2933.9V1116.5h2484.3v1914.2h-.1z"/><path stroke-width="22.312" d="M3799.5 2901.3h264.8c21.7 0 39.2-17.6 39.2-39.3v-274.6c0-21.7-17.5-39.2-39.2-39.2h-264.8c-21.7 0-39.2 17.6-39.2 39.2V2862c0 21.7 17.5 39.3 39.2 39.3zm39.2-274.5H4025v196.1h-186.3v-196.1zM3311.4 2901.3h264.8c21.7 0 39.2-17.6 39.2-39.3v-274.6c0-21.7-17.5-39.2-39.2-39.2h-264.8c-21.7 0-39.2 17.6-39.2 39.2V2862c0 21.7 17.5 39.3 39.2 39.3zm39.2-274.5h186.3v196.1h-186.3v-196.1zM4287.6 2901.3h264.8c21.7 0 39.2-17.6 39.2-39.3v-274.6c0-21.7-17.5-39.2-39.2-39.2h-264.8c-21.7 0-39.2 17.6-39.2 39.2V2862c0 21.7 17.5 39.3 39.2 39.3zm39.3-274.5h186.3v196.1h-186.3v-196.1zM4775.8 2901.3h264.8c21.7 0 39.2-17.6 39.2-39.3v-274.6c0-21.7-17.5-39.2-39.2-39.2h-264.8c-21.7 0-39.3 17.6-39.3 39.2V2862c0 21.7 17.6 39.3 39.3 39.3zm39.2-274.5h186.2v196.1H4815v-196.1z"/></g></svg>