<svg width="25" height="25" viewBox="0 0 25 25" fill="none" xmlns="http://www.w3.org/2000/svg">
<path d="M23.4746 12.5L24.7168 11.2577C25.0918 10.8828 25.0918 10.2732 24.7168 9.89818C24.3419 9.52319 23.7323 9.52319 23.3573 9.89818L21.717 11.5385H14.8211L18.6671 7.69249H20.192C20.7228 7.69249 21.1535 7.26174 21.1535 6.73099C21.1535 6.20024 20.7228 5.76949 20.192 5.76949H19.2305V4.80799C19.2305 4.27724 18.7998 3.84649 18.269 3.84649C17.7383 3.84649 17.3075 4.27724 17.3075 4.80799V6.33293L13.4615 10.1789V3.28305L15.1037 1.6408C15.4787 1.26582 15.4787 0.656225 15.1037 0.281239C14.7288 -0.0937464 14.1192 -0.0937464 13.7442 0.281239L12.5 1.52542L11.2577 0.281239C10.8828 -0.0937464 10.2732 -0.0937464 9.89818 0.281239C9.52319 0.656225 9.52319 1.26582 9.89818 1.6408L11.5385 3.28305V10.1789L7.69249 6.33293V4.80799C7.69249 4.27724 7.26174 3.84649 6.73099 3.84649C6.20024 3.84649 5.76949 4.27724 5.76949 4.80799V5.76949H4.80799C4.27724 5.76949 3.84649 6.20024 3.84649 6.73099C3.84649 7.26174 4.27724 7.69249 4.80799 7.69249H6.33293L10.1789 11.5385H3.28305L1.64273 9.89625C1.26774 9.52127 0.658148 9.52127 0.283162 9.89625C-0.0918235 10.2712 -0.0918235 10.8808 0.283162 11.2558L1.52542 12.5L0.281239 13.7423C-0.0937464 14.1172 -0.0937464 14.7268 0.281239 15.1018C0.469693 15.2903 0.715838 15.3845 0.961982 15.3845C1.20813 15.3845 1.45427 15.2903 1.64273 15.1037L3.28305 13.4615H10.1789L6.33293 17.3075H4.80799C4.27724 17.3075 3.84649 17.7383 3.84649 18.269C3.84649 18.7998 4.27724 19.2305 4.80799 19.2305H5.76949V20.192C5.76949 20.7228 6.20024 21.1535 6.73099 21.1535C7.26174 21.1535 7.69249 20.7228 7.69249 20.192V18.6671L11.5385 14.8211V21.717L9.89625 23.3592C9.52127 23.7342 9.52127 24.3438 9.89625 24.7188C10.2712 25.0937 10.8808 25.0937 11.2558 24.7188L12.5 23.4746L13.7423 24.7168C13.9307 24.9053 14.1769 24.9995 14.423 24.9995C14.6691 24.9995 14.9153 24.9053 15.1037 24.7188C15.4787 24.3438 15.4787 23.7342 15.1037 23.3592L13.4615 21.717V14.8211L17.3075 18.6671V20.192C17.3075 20.7228 17.7383 21.1535 18.269 21.1535C18.7998 21.1535 19.2305 20.7228 19.2305 20.192V19.2305H20.192C20.7228 19.2305 21.1535 18.7998 21.1535 18.269C21.1535 17.7383 20.7228 17.3075 20.192 17.3075H18.6671L14.8211 13.4615H21.717L23.3592 15.1037C23.5457 15.2903 23.7919 15.3845 24.038 15.3845C24.2842 15.3845 24.5303 15.2903 24.7188 15.1037C25.0937 14.7288 25.0937 14.1192 24.7188 13.7442L23.4746 12.5Z" fill="white"/>
</svg>
